<svg width="388" height="125" viewBox="0 0 388 125" fill="none" xmlns="http://www.w3.org/2000/svg">
<path d="M1 41.9442V40.9442C1 29.2398 4.4604 19.0918 14.3489 10.4709C22.3055 3.46925 32.696 1.01613 43.4321 1.01613C55.0844 1.01613 66.6115 5.47458 74.6927 14.5983L74.6944 14.6002C81.1584 21.9355 83.9372 31.885 83.9372 41.4288C83.9372 50.2378 82.0475 56.3374 78.344 61.7785C74.7714 67.0273 69.5293 71.6246 62.8919 77.4456C62.7287 77.5887 62.5646 77.7326 62.3997 77.8772C62.3994 77.8775 62.3991 77.8778 62.3988 77.878L38.5325 98.9016H82.9372H83.9372V99.9016V120.577V121.577H82.9372H2H1V120.577V101.517V101.069L1.33409 100.771L49.8316 57.4821L1 41.9442ZM1 41.9442H2H24.4826H25.5151L25.482 40.9121C25.3313 36.2128 27.4486 31.4729 30.7949 28.2596C33.8068 25.382 37.8891 23.6916 42.9504 23.6916C48.2973 23.6916 52.4969 25.5147 55.8227 29.6197M1 41.9442L55.8227 29.6197M55.8227 29.6197C58.3691 32.7846 59.4546 37.0621 59.4546 41.1057C59.4546 45.713 56.9506 51.1169 49.8322 57.4816L55.8227 29.6197ZM206.655 41.9442V40.9442C206.655 29.2399 210.115 19.092 220.004 10.4711C227.96 3.4693 238.351 1.01613 249.087 1.01613C260.74 1.01613 272.267 5.47458 280.348 14.5983L280.35 14.6002C286.814 21.9355 289.592 31.885 289.592 41.4288C289.592 50.2378 287.703 56.3374 283.999 61.7785C280.427 67.0274 275.184 71.6247 268.547 77.4458L268.056 77.8767L268.054 77.878L244.188 98.9016H288.592H289.592V99.9016V120.577V121.577H288.592H207.655H206.655V120.577V101.517V101.069L206.989 100.771L255.487 57.4821L206.655 41.9442ZM206.655 41.9442H207.655H230.138H231.17L231.137 40.9121C230.986 36.2126 233.104 31.4726 236.45 28.2593C239.462 25.3819 243.544 23.6916 248.605 23.6916C253.952 23.6916 258.151 25.5142 261.477 29.6182M206.655 41.9442L261.477 29.6182M261.477 29.6182C264.024 32.7832 265.11 37.0615 265.11 41.1057C265.11 45.713 262.606 51.1169 255.487 57.4816L261.477 29.6182ZM304.063 41.9442V40.9442C304.063 29.2391 307.524 19.0906 317.413 10.4694C325.37 3.4689 335.76 1.01613 346.495 1.01613C358.147 1.01613 369.674 5.47458 377.756 14.5983L377.757 14.6002C384.221 21.9355 387 31.885 387 41.4288C387 50.2378 385.11 56.3374 381.407 61.7785C377.834 67.0272 372.592 71.6245 365.955 77.4454L365.463 77.8767L365.462 77.878L341.595 98.9016H386H387V99.9016V120.577V121.577H386H305.063H304.063V120.577V101.517V101.069L304.397 100.771L352.894 57.4821L304.063 41.9442ZM304.063 41.9442H305.063M304.063 41.9442H305.063M305.063 41.9442H327.545H328.578M305.063 41.9442H328.578M328.578 41.9442L328.545 40.9121M328.578 41.9442L328.545 40.9121M328.545 40.9121C328.394 36.2132 330.511 31.4737 333.857 28.2604M328.545 40.9121L333.857 28.2604M333.857 28.2604C336.869 25.3823 340.951 23.6916 346.013 23.6916M333.857 28.2604L346.013 23.6916M346.013 23.6916C351.361 23.6916 355.56 25.515 358.886 29.6206M346.013 23.6916L358.886 29.6206M358.886 29.6206C361.432 32.7855 362.517 37.0625 362.517 41.1057M358.886 29.6206L362.517 41.1057M362.517 41.1057C362.517 45.713 360.013 51.1169 352.895 57.4816L362.517 41.1057ZM111.15 109.568L111.16 109.581L111.17 109.593C119.597 119.564 132.597 124 145.015 124C158.255 124 170.44 119.391 178.855 109.599L178.86 109.593L178.865 109.588C187.433 99.3123 188.893 89.5035 188.893 76.8032V48.2129C188.893 34.8656 187.432 25.5377 178.859 15.4225C170.287 5.30813 157.462 0.693116 145.014 1.01581C131.746 0.693693 118.926 6.12843 111.166 15.4283L111.159 15.4366L111.152 15.4451C106.824 20.8661 104.305 25.792 102.879 31.0303C101.458 36.2501 101.138 41.7288 101.138 48.2129V76.8032C101.138 83.4582 101.54 89.0166 103.001 94.2352C104.468 99.4698 106.985 104.312 111.15 109.568ZM144.993 23.6914L145.015 23.6919L145.037 23.6914C152.028 23.5385 158.91 27.6769 162.275 33.8152C164.619 38.5378 164.602 41.6913 164.576 46.5614C164.574 47.0903 164.571 47.6394 164.571 48.2129V76.8032C164.571 77.0865 164.571 77.3647 164.571 77.6379C164.576 84.1338 164.579 87.861 161.695 92.0674L161.681 92.087L161.669 92.1072C158.151 97.799 151.73 101.478 145.038 101.325L145.015 101.324L144.992 101.325C138.474 101.477 132.195 97.8092 128.505 92.2419L128.501 92.2358C125.45 87.706 125.455 82.7587 125.459 77.4366C125.459 77.226 125.46 77.0149 125.46 76.8032V48.2129C125.46 42.0528 125.638 37.7952 128.051 33.6985L128.057 33.6893L128.062 33.68C131.429 27.676 138.166 23.5388 144.993 23.6914Z" stroke="#785436" stroke-opacity="0.2" stroke-width="2"/>
</svg>
