<svg width="28" height="30" viewBox="0 0 28 30" fill="none" xmlns="http://www.w3.org/2000/svg">
<path d="M10.8376 0.871517C10.3762 1.33286 10.0533 2.11714 10.0533 2.62462C10.0533 3.96251 13.0981 11.8053 13.5595 11.7592C13.9747 11.6669 17.3425 3.5473 17.3886 2.44008C17.4348 2.16328 17.0195 1.47126 16.5121 0.963786C15.2664 -0.281838 11.8986 -0.327972 10.8376 0.871517Z" fill="#8E5F2F"/>
<path d="M1.51839 6.31537C0.918644 6.96124 0.272765 8.06846 0.134362 8.80661C-0.373114 11.1595 0.411168 11.8515 5.02459 12.9126C9.73028 14.0198 11.4372 14.112 11.4372 13.3739C11.4372 13.0971 9.96095 11.1133 8.16171 8.99115C4.56325 4.65453 3.45603 4.23933 1.51839 6.31537Z" fill="#8E5F2F"/>
<path d="M21.1715 6.59218C18.3112 9.82158 16.0506 12.728 16.0506 13.2816C16.0506 13.6046 16.5581 13.8814 17.204 13.8814C19.1416 13.8814 26.3847 12.036 26.7537 11.4363C27.4919 10.2829 27.1228 7.93007 25.9233 6.54605C24.3548 4.65454 22.9246 4.70068 21.1715 6.59218Z" fill="#8E5F2F"/>
<path d="M4.84005 17.2953C2.11813 17.9412 0.595703 18.5409 0.318898 19.0945C-0.373115 20.294 0.226629 22.3701 1.61066 23.7541C3.59443 25.7379 4.51711 25.3688 8.16171 21.0783C9.96095 18.9561 11.4372 16.9724 11.4372 16.6956C11.4372 15.9574 9.4996 16.1419 4.84005 17.2953Z" fill="#8E5F2F"/>
<path d="M16.0506 16.834C16.0506 17.1569 17.4808 19.0946 19.1877 21.0783C22.8785 25.3688 24.0318 25.784 25.9233 23.5696C27.2151 22.001 27.538 19.4175 26.5231 18.5871C25.8772 18.0335 18.4496 16.1881 16.9733 16.1881C16.4658 16.1881 16.0506 16.4649 16.0506 16.834Z" fill="#8E5F2F"/>
<path d="M11.5756 22.6007C9.82247 27.3064 9.73021 28.5059 10.8836 29.3825C12.5905 30.7204 17.4346 29.7054 17.4346 28.0446C17.4346 26.8912 14.0207 18.4948 13.5593 18.4948C13.2825 18.4948 12.3599 20.3402 11.5756 22.6007Z" fill="#8E5F2F"/>
</svg>
