<svg width="51" height="50" viewBox="0 0 51 50" fill="none" xmlns="http://www.w3.org/2000/svg">
<path d="M45.2141 27.6935C45.2255 27.8701 45.2383 28.0459 45.2383 28.2258C45.2383 28.4056 45.2255 28.5814 45.2141 28.7581L45.1989 28.9846L46.8086 29.079L46.8232 28.8676C46.8369 28.6556 46.8515 28.4425 46.8515 28.2258C46.8515 28.0088 46.8369 27.796 46.8232 27.5831L46.8086 27.3717L45.1989 27.4661L45.2141 27.6935Z" fill="#DDB892"/>
<path d="M45.0248 25.9483L46.6127 25.6645C45.3772 18.737 39.3731 13.7097 32.3353 13.7097C29.3844 13.7097 26.5384 14.596 24.1087 16.2719L25.0241 17.5993C27.1837 16.1098 29.7128 15.3227 32.3353 15.3227C38.5902 15.3225 43.927 19.7911 45.0248 25.9483Z" fill="#DDB892"/>
<path d="M50.0771 41.1289C50.0771 39.4514 48.786 38.0846 47.1473 37.933C49.04 35.0557 50.0771 31.6952 50.0771 28.2258C50.0771 18.4427 42.1183 10.4839 32.3353 10.4839C29.8232 10.4839 27.4167 11.0258 25.2232 11.9911L11.4659 1.12976C10.5432 0.401539 9.38672 0 8.21022 0H7.75229C4.8548 0 2.49654 2.35724 2.49654 5.25557C2.49654 7.27174 3.67237 9.13379 5.49242 10.0007L9.75456 12.0297V13.7096C9.75456 15.0434 10.8401 16.129 12.174 16.129H18.3627L19.0707 16.466C17.0344 18.7563 15.5683 21.5829 14.9393 24.7474L14.782 25.5378L17.9837 26.1781C17.8861 26.8611 17.8192 27.5467 17.8192 28.2256C17.8192 31.945 19.2377 35.3321 21.5467 37.903H10.5612V33.8709H4.91577V37.9032H1.69008V36.2903H0.0771484V41.1289H1.69008V39.5159H4.91594V42.7418H3.30301C2.41356 42.7418 1.69008 43.4651 1.69008 44.3547V48.3871H0.0771484V50H50.077V48.3871H48.464V44.3547C48.464 44.2104 48.439 44.0724 48.4027 43.9395C49.3955 43.3886 50.0771 42.3426 50.0771 41.1289ZM12.1741 14.516C11.7289 14.516 11.3677 14.154 11.3677 13.7096V12.7974L14.9758 14.516H12.1741ZM6.18542 8.54426C4.92492 7.94356 4.10947 6.65241 4.10947 5.25557C4.10947 3.24669 5.7434 1.61276 7.75229 1.61276H8.21039C9.02566 1.61276 9.82738 1.89101 10.4669 2.39586L23.624 12.7829C22.4102 13.4699 21.2878 14.303 20.2684 15.2498L6.18542 8.54426ZM16.6972 24.2758C18.4853 17.1717 24.9362 12.0968 32.3353 12.0968C41.2287 12.0968 48.4642 19.3323 48.4642 28.2258C48.4642 31.916 47.1917 35.4823 44.8643 38.354L35.8748 30.3097L35.3369 30.9105C34.5699 31.767 33.4757 32.2581 32.3353 32.2581C30.1118 32.2581 28.3029 30.4492 28.3029 28.2258C28.3029 27.9629 28.3295 27.6967 28.382 27.4354L28.54 26.6443L16.6972 24.2758ZM19.432 28.2256C19.432 27.6523 19.486 27.0725 19.5642 26.4935L26.699 27.9201C26.6934 28.0225 26.6902 28.1242 26.6902 28.2258C26.6902 31.3387 29.2232 33.8709 32.3353 33.8709C33.6635 33.8709 34.9465 33.3967 35.9577 32.5482L41.3698 37.3909C38.9601 39.7674 35.7174 41.1287 32.3351 41.1287C25.2205 41.1287 19.432 35.34 19.432 28.2256ZM10.5612 39.5159H23.2313C25.724 41.5296 28.8894 42.7418 32.3353 42.7418C36.1755 42.7418 39.8537 41.1838 42.5724 38.4668L43.9667 39.7144C43.7553 40.1434 43.6256 40.6193 43.6256 41.1289C43.6256 41.7192 43.7966 42.2652 44.074 42.7418H32.3353H10.5612V39.5159ZM6.52887 35.4838H8.94827V42.7418H6.52887V35.4838ZM46.8511 48.3869H3.30301V44.3546H46.8511V48.3869ZM46.8511 42.7418C45.9617 42.7418 45.2382 42.0185 45.2382 41.1289C45.2382 40.2394 45.9615 39.5159 46.8511 39.5159C47.7406 39.5159 48.464 40.2393 48.464 41.1289C48.464 42.0185 47.7407 42.7418 46.8511 42.7418Z" fill="#DDB892"/>
</svg>
