<svg width="1920" height="281" viewBox="0 0 1920 281" fill="none" xmlns="http://www.w3.org/2000/svg">
<g clip-path="url(#clip0_729_3090)">
<rect y="-57" width="1920" height="503.625" fill="#301702"/>
<path fillRule="evenodd" clipRule="evenodd" d="M0 195.204V193.857C0.622987 194.714 0.626422 195.152 0 195.204ZM0 216.805V213.213C0.760792 213.49 1.59027 213.431 2.41975 212.941C4.30679 211.827 4.30679 212.384 2.15017 214.89C1.34709 215.803 0.663623 216.444 0 216.805ZM1920 331.986V334.458C1918.84 334.468 1918.69 333.612 1920 331.986ZM1920 274.896V268.15C1919.89 268.224 1919.77 268.294 1919.65 268.362C1913.59 271.872 1914.29 275.607 1920 274.896ZM1920 260.683V252.631C1919.77 253.102 1919.29 253.696 1918.58 254.437C1914.8 258.336 1914.26 263.349 1917.77 260.843C1918.4 260.451 1919.21 260.427 1920 260.683ZM1920 251.681V-160H0V56.0891C0.831132 56.2233 2.07902 56.5456 3.76764 56.9817C8.62003 58.0957 9.42876 57.8172 7.00257 55.3107C2.41975 50.5762 3.49806 47.2342 9.15919 49.1837C13.742 50.5762 14.0116 49.7407 12.1245 40.2718C10.7766 34.4233 10.7766 28.5748 12.1245 27.1823C16.9769 22.1694 19.4031 28.8533 18.864 46.3987C18.5944 60.3237 19.4031 64.5011 22.3685 64.5011C25.3338 64.5011 25.6034 65.3366 23.1772 68.4001C20.751 71.1851 20.751 72.8561 22.9076 74.2486C24.7947 75.3626 25.3338 80.9326 24.5251 88.1735C23.7164 97.6425 24.2555 100.149 26.9513 99.035C32.3428 96.807 28.5688 109.618 22.3685 114.074C16.1682 118.808 16.1682 122.986 22.3685 122.429C24.7947 122.15 30.7254 122.429 35.0386 122.707L43.1259 123.264L35.5778 127.999C31.5341 130.505 27.4905 134.683 26.9513 137.189C25.873 140.531 23.4468 141.367 19.4031 140.531C14.8203 139.417 16.1682 141.645 25.0643 150C37.7344 161.976 38.8127 164.761 30.995 164.761C28.0296 164.761 25.6034 165.596 25.6034 166.71C25.6034 170.052 34.4995 178.686 38.2735 178.686C40.1606 178.686 41.7781 179.8 41.7781 181.192C41.7781 182.585 43.6651 184.534 46.0913 185.37C49.8654 186.762 50.135 186.483 47.4392 183.142C42.8564 177.572 40.9693 164.761 44.4738 164.761C46.0913 164.761 49.8654 166.153 53.1003 167.824C61.4572 172.559 62.2659 168.381 54.7178 159.748C50.9437 155.57 47.1696 148.886 46.6305 144.709C45.2826 137.746 45.8217 137.189 53.6395 138.86L61.9964 140.531L56.3352 133.847C53.1003 130.227 49.5958 124.378 48.5175 120.758C46.6305 114.352 46.9 114.352 54.9874 118.53C65.2313 124.1 68.7358 124.378 61.7268 118.808C59.031 116.58 57.6831 114.631 59.031 114.631C60.1093 114.631 59.3006 111.567 56.8744 107.668C51.2133 98.7565 51.4828 97.0855 58.2223 100.706C61.1876 102.655 64.4226 103.491 64.9617 102.655C67.1183 100.427 62.8051 92.0725 57.6831 89.2875C54.7178 87.895 52.5612 83.996 52.5612 80.9326C52.5612 75.9196 53.909 75.0841 60.6485 76.1981C69.5445 77.5906 70.8924 75.3626 64.6921 68.9571C59.3006 63.3871 59.5702 61.7162 66.04 61.7162C71.7011 61.7162 73.3186 57.5387 68.7358 54.7537C63.6138 51.4117 65.7704 45.5632 71.4316 46.9557C77.6319 48.6267 78.171 46.9557 74.1273 39.1578C71.9707 34.9803 72.2403 33.8663 75.2057 33.8663C78.4406 33.8663 78.9797 32.4738 76.8231 26.6253C73.5882 17.9919 73.5882 16.3209 76.5535 18.2704C77.9014 19.3844 80.3276 16.5994 81.6755 12.4219L84.3713 4.62396L85.18 12.9789C85.4496 17.4349 85.7192 24.3974 85.4496 28.2963L84.9104 35.2588L87.6062 28.5748C91.6499 18.5489 93.5369 23.2834 90.8411 36.0943C88.6845 45.0062 88.9541 46.9557 91.6499 45.8417C94.3457 45.0062 94.6152 46.9557 92.9978 54.1967C91.9195 59.4882 90.302 65.3366 89.2237 67.0076C86.7975 71.1851 91.1107 70.9066 95.1544 66.7291C100.276 61.4377 102.163 72.0206 97.311 79.8186C91.9195 88.452 91.6499 95.4145 97.0414 93.465C101.085 91.794 102.703 97.921 99.1981 101.82C98.1197 102.655 95.9631 107.947 94.0761 113.517C91.1107 122.707 91.1107 123.543 95.9631 122.15C101.355 120.758 102.972 124.1 98.3893 127.163C97.0414 127.999 95.6935 130.784 95.6935 133.012C95.6935 136.354 96.7719 136.632 101.355 134.126C104.32 132.176 107.555 131.619 108.364 132.176C109.981 134.126 101.624 153.064 95.1544 161.697C87.0671 172.837 89.7628 173.951 104.859 165.318C117.26 158.355 119.956 157.798 124.269 161.14C131.547 166.71 135.321 161.14 129.66 152.507C124.269 143.595 123.999 138.582 129.391 140.81C131.817 141.645 134.243 140.531 135.321 138.303C136.669 134.683 137.208 134.683 140.174 138.86C142.061 141.645 143.139 144.709 142.33 146.101C141.522 147.215 147.452 148.051 155.54 147.494L169.827 146.658L171.445 113.795C172.254 95.9715 173.871 80.3756 175.219 78.9831C176.297 77.8691 176.567 85.3885 175.758 95.4145C174.949 105.719 174.949 114.909 176.028 116.023C177.106 116.859 177.376 125.214 177.106 134.404C176.438 144.578 176.184 148.452 177.943 149.928C179.024 150.836 180.868 150.836 183.845 150.836C194.628 150.836 199.481 154.456 194.628 158.912C192.472 160.583 188.967 161.697 187.08 161.419C181.689 160.026 178.723 181.749 183.845 187.598C190.046 194.838 198.133 195.952 198.133 189.268C198.133 186.483 199.481 184.812 200.829 185.648C202.446 186.762 203.525 183.142 203.525 177.015C203.525 161.419 205.951 166.989 206.49 183.977C207.029 194.838 208.107 198.18 210.803 197.066C214.308 195.674 215.925 206.535 214.577 222.131C214.308 225.473 215.925 231.6 218.082 235.778C220.238 240.234 221.317 247.196 220.508 252.488C219.43 260.007 219.969 261.678 224.821 263.071C229.943 264.463 230.213 264.185 226.439 258.615C221.317 251.095 221.317 248.31 226.439 248.31C229.404 248.31 230.213 246.361 228.865 241.348C227.786 236.892 228.326 234.385 230.213 234.385C232.639 234.385 232.639 232.714 230.213 228.258C227.786 223.524 227.786 221.853 230.213 221.017C232.639 220.182 232.639 218.789 230.482 216.283C228.326 213.776 228.326 212.105 230.482 210.713C232.1 209.877 232.369 207.649 231.561 205.978C230.482 204.307 231.021 203.75 232.639 204.586C233.987 205.7 236.143 212.941 237.222 220.46C238.3 228.815 240.726 235.499 243.422 237.17C246.387 238.841 246.926 239.677 244.5 239.955C242.074 239.955 241.265 242.74 241.805 247.475C242.344 253.045 244.231 255.551 248.814 256.108C254.475 256.944 254.744 256.665 251.509 251.095C248.544 246.361 248.544 244.968 251.779 243.019C253.666 241.626 254.744 239.398 253.936 238.006C253.127 236.613 253.936 229.372 256.092 221.574L259.597 207.928L259.866 221.296C260.136 235.221 261.214 236.335 279.006 240.791C290.328 243.576 288.981 232.157 276.85 221.296C265.258 210.991 266.606 207.371 280.354 212.105C285.746 213.776 291.676 214.612 293.833 213.776C299.225 211.827 298.955 204.029 293.294 201.801C287.902 199.573 265.527 176.458 265.527 173.116C265.527 171.723 268.762 171.723 273.076 173.116C298.416 181.192 303.538 176.458 288.981 158.077C279.545 146.101 273.884 131.341 279.006 131.341C280.624 131.341 285.476 133.29 289.789 135.518C300.842 141.367 300.033 136.075 288.441 125.492C283.319 120.758 279.006 115.188 279.006 112.96C279.006 108.225 282.241 107.947 286.285 112.124C287.902 113.795 291.946 114.631 295.181 114.074L301.112 113.238L295.45 105.719C288.172 96.25 288.172 92.908 296.259 94.3005C304.616 95.9715 307.581 90.68 302.19 84.2745C299.764 81.4895 297.877 78.4261 297.877 77.0336C297.877 75.6411 295.72 72.0206 293.294 68.9571C288.981 64.2226 289.52 64.2226 297.337 69.7926C310.008 78.9831 311.355 74.8056 299.764 63.1086C286.015 49.4622 286.554 42.2213 300.033 52.2472C309.199 58.9312 310.816 54.4752 302.459 45.5632C293.563 35.8158 293.294 34.1448 301.92 36.0943C309.738 37.4868 310.277 36.0943 304.346 26.9038C300.303 20.7769 300.572 20.4984 305.694 21.8909C312.434 23.5619 312.973 20.4984 307.042 11.8649C302.729 5.73795 302.729 5.45946 308.39 7.40895C313.512 9.07994 313.782 8.52293 311.355 2.11748C309.468 -2.89551 309.738 -5.12349 311.625 -5.12349C313.512 -5.12349 314.051 -8.18698 313.512 -11.8074C312.434 -16.8204 313.243 -18.2129 316.208 -17.0989C319.173 -15.7064 319.982 -17.9344 319.443 -27.6819C318.365 -45.7843 319.173 -56.3672 321.33 -54.1392C322.408 -53.0252 322.947 -44.1133 322.678 -34.3658C322.139 -22.1119 322.947 -16.2634 325.104 -16.2634C327.261 -16.2634 327.261 -15.1494 325.643 -12.9214C321.33 -7.07298 322.139 19.9414 326.452 19.9414C331.304 19.9414 331.035 25.5114 326.182 32.1953C321.869 38.3223 320.791 45.0062 324.295 45.0062C325.643 45.0062 329.417 42.4998 332.922 39.4363C336.426 36.3728 339.661 33.8663 340.2 33.8663C342.626 33.8663 332.113 55.0322 328.339 58.0957C324.026 61.4377 324.026 61.7162 328.339 61.7162C334 61.7162 334.27 65.3366 329.148 69.7926C326.991 71.7421 325.374 76.7551 325.374 81.2111C325.643 88.7305 325.913 89.009 331.304 85.3885C339.392 79.2616 341.009 80.3756 338.044 89.2875C336.157 94.8575 334 97.0855 331.304 95.9715C328.878 95.136 327.53 96.25 327.53 99.3134C327.53 102.934 329.148 103.769 334.27 102.934C341.818 101.263 343.435 104.605 336.426 107.668C331.843 109.339 331.843 109.618 336.426 112.124C339.122 113.795 344.783 114.074 349.096 113.238C359.34 111.01 359.61 115.466 350.175 122.15L343.166 126.885L349.096 129.113C353.949 131.062 354.488 132.176 351.792 135.518C349.905 137.746 346.94 139.696 344.783 139.696C342.087 139.696 342.087 141.088 345.053 146.937C347.748 152.507 348.018 155.849 345.861 160.862C344.244 164.482 342.087 167.546 341.009 167.546C339.122 167.546 332.922 180.078 332.922 183.42C332.922 184.256 335.078 183.142 337.774 180.914C340.2 178.686 348.018 173.116 355.297 168.938C365.81 162.811 367.967 160.026 367.697 154.178C367.428 150 368.506 143.595 370.123 139.696C372.819 133.29 373.089 133.569 373.628 145.266C373.897 152.228 374.167 163.925 374.167 171.723C373.897 179.521 375.245 186.483 376.863 187.598C379.289 189.268 379.289 190.939 376.593 195.395C373.628 200.408 373.897 200.965 379.019 200.965C384.411 200.965 384.681 201.244 380.367 207.928C374.437 217.118 374.976 218.511 382.794 216.561C390.611 214.612 391.15 216.84 385.22 225.473C380.637 232.157 382.524 238.284 388.455 236.056C394.116 233.828 393.037 238.284 385.489 246.639C381.715 250.817 378.75 254.994 378.75 255.83C378.75 256.665 383.333 256.665 388.994 255.551C394.385 254.716 397.081 254.716 394.924 255.83C392.768 256.665 389.803 259.172 388.724 261.121C387.646 263.349 384.95 265.02 383.063 265.02C381.176 265.02 377.402 267.527 374.706 270.59C372.698 272.883 371.477 274.277 371.791 275.04C372.277 276.225 376.454 275.893 387.107 275.046C393.738 274.655 399.836 274.126 403.062 273.846C404.427 273.727 405.278 273.654 405.438 273.654C405.977 273.375 404.36 270.869 401.664 267.805C396.003 261.4 397.081 259.172 404.629 261.121C408.943 262.235 409.751 264.463 408.943 273.654C407.595 285.629 410.021 287.857 413.795 278.11C417.299 269.198 417.299 279.224 413.795 288.971C411.369 295.098 411.908 297.047 416.76 301.503C419.995 304.567 424.578 306.795 427.004 306.795C430.239 306.795 429.43 305.124 424.578 301.225C419.456 296.769 418.647 295.098 421.343 293.148C423.5 292.034 424.578 287.857 424.308 284.236C423.769 280.616 424.308 275.882 425.656 273.932C426.735 271.983 427.004 266.97 425.926 263.071C424.578 256.944 425.117 256.108 429.7 257.501C435.092 258.893 435.092 258.615 431.317 249.146C428.288 241.732 427.05 238.899 427.94 237.821C428.554 237.077 430.182 237.17 432.935 237.17C438.326 237.17 438.596 236.892 434.283 230.208C428.891 221.853 428.891 220.46 434.013 220.46C436.979 220.46 437.248 219.068 435.361 213.498C433.744 208.763 433.744 206.535 435.631 206.535C437.248 206.535 438.057 204.307 437.787 201.522C437.518 199.016 438.596 193.724 440.214 189.825C441.235 187.45 441.908 185.686 442.392 185.736C443.44 185.845 443.605 194.462 444.527 223.802C444.796 235.499 446.414 241.348 450.727 246.639C458.275 255.551 475.259 260.564 484.963 256.665C493.59 253.323 494.938 244.133 486.311 246.918C481.459 248.589 480.65 248.032 481.728 243.297C482.807 238.841 481.728 237.449 475.528 236.056C467.98 234.664 456.927 226.587 456.927 222.688C456.927 221.574 462.588 219.903 469.328 218.789C477.685 217.675 480.65 216.283 478.224 214.612C476.067 213.219 472.563 212.941 470.137 213.498C467.71 214.333 463.128 212.662 459.623 209.877L453.692 204.864L460.971 199.851L468.25 194.838L462.049 188.154L456.119 181.471H463.397C467.441 181.471 473.911 183.977 477.685 187.04C486.85 194.56 493.32 194.56 488.737 187.319C486.85 184.256 484.424 182.028 483.076 182.306C481.998 182.585 477.685 177.293 473.641 170.331L466.363 157.798L474.989 164.204C483.346 170.331 491.972 172.28 491.972 168.103C491.972 164.761 484.963 145.544 483.076 143.595C479.302 139.696 481.459 134.126 486.581 134.126C491.972 134.126 494.129 129.67 489.277 127.999C487.929 127.442 486.311 124.378 485.772 121.036C485.503 117.973 483.346 113.238 481.459 110.732C476.067 104.048 479.841 102.098 487.659 107.39C496.555 113.238 500.599 107.39 491.972 100.706C485.772 95.693 486.581 89.566 493.59 89.566C498.712 89.566 498.442 85.667 493.051 80.9326C489.277 77.5906 489.546 77.0336 494.938 75.0841C500.599 72.8561 500.599 72.5776 495.746 67.0076C493.367 64.2759 492.154 62.8839 492.458 62.3389C492.774 61.7726 494.728 62.1206 498.712 62.8302C500.187 63.0094 501.718 63.2176 503.188 63.4174C506.285 63.8384 509.111 64.2226 510.573 64.2226C513.539 64.5011 513.539 65.3366 510.573 69.2356C507.877 72.2991 507.877 73.1346 510.304 71.7421C514.347 69.2356 514.617 73.9701 510.843 81.4895C508.686 85.667 508.956 86.781 512.191 86.781C517.313 86.781 517.313 90.68 512.191 95.136C507.069 99.5919 507.069 103.491 512.46 103.491C516.234 103.491 516.234 103.769 512.46 107.947C506.799 113.517 507.069 116.859 512.73 117.973C516.773 118.808 516.504 119.644 510.843 124.935C507.338 128.556 505.182 131.898 505.99 133.012C507.069 133.847 510.304 131.898 513.269 128.834C516.504 125.492 520.008 122.986 521.356 122.986C522.704 122.986 524.591 121.315 525.13 119.365C525.939 117.694 526.748 120.758 526.748 126.328C527.017 135.24 528.096 136.911 532.679 136.911C537.531 136.911 537.801 137.468 535.105 141.088C532.409 144.43 532.409 145.266 536.183 145.266C541.575 145.266 541.575 151.393 536.453 161.976C532.679 169.495 532.679 170.331 536.453 170.331C538.609 170.331 540.496 171.445 540.496 173.116C540.496 174.508 539.418 175.901 537.801 175.901C534.296 175.901 534.296 188.99 538.07 191.218C539.957 192.61 539.148 194.838 536.183 198.459C532.679 202.358 532.409 204.586 534.835 207.649C536.453 209.877 537.801 212.662 537.531 213.776C537.261 215.169 537.531 217.397 537.801 219.068C538.07 220.46 538.609 224.359 538.879 227.144C538.879 230.486 542.383 233.55 547.236 235.221C552.988 237.152 555.595 237.974 555.916 239.335C556.197 240.525 554.729 242.128 552.088 245.247C549.662 248.589 544.54 251.095 541.305 251.095C535.374 251.095 533.757 254.716 535.105 265.02C535.914 271.983 537.531 271.983 545.349 264.463C552.897 257.222 564.758 252.488 564.758 256.665C564.758 258.893 557.21 265.577 546.966 272.54C542.923 275.325 543.462 275.325 550.74 273.097C555.593 271.426 560.984 270.59 563.141 271.426C565.028 272.261 568.263 271.704 570.15 270.59C573.385 268.641 573.115 267.527 570.15 263.628C567.724 260.564 567.454 258.336 569.341 257.222C570.959 256.108 572.037 249.424 571.498 241.905C571.228 234.664 572.037 228.815 573.385 228.815C574.463 228.815 575.541 222.967 575.541 215.726C575.541 194.003 578.237 204.029 578.776 228.258C579.046 246.639 580.124 251.095 583.359 251.095C586.594 251.095 586.594 251.931 584.168 254.437C579.585 259.172 580.124 265.02 585.246 265.02C588.212 265.02 589.02 266.691 587.672 270.59C586.594 274.211 587.133 276.16 589.559 276.16C591.986 276.439 591.446 277.553 588.212 280.059C582.011 284.793 582.281 287.3 589.02 287.3C593.873 287.3 594.142 288.135 591.446 293.148C589.02 297.883 589.29 299.554 591.986 301.503C594.951 303.174 594.412 304.01 590.638 305.681C587.133 307.073 586.594 308.187 589.29 309.858C591.986 311.529 591.716 313.2 587.942 317.656C583.898 322.391 583.629 323.505 586.594 323.505C588.751 323.505 591.986 322.112 593.603 320.441C597.647 316.264 602.769 319.606 600.612 324.897C599.803 327.682 600.882 329.075 603.577 329.075C607.621 329.075 607.621 328.239 603.308 319.884C600.882 315.15 598.725 307.63 598.456 303.453C598.456 297.326 599.534 295.933 603.308 297.326C607.891 298.718 607.891 298.44 603.847 288.692C598.725 275.882 598.725 272.261 603.577 274.211C607.891 275.882 611.665 265.577 608.16 261.121C604.656 256.387 605.734 249.146 610.047 249.146C612.204 249.146 614.63 251.652 615.439 254.437C615.978 257.222 618.404 259.45 620.561 259.45C623.257 259.45 621.639 255.551 615.439 246.082C610.317 238.841 606.543 231.043 606.543 228.815C606.812 226.587 607.352 221.574 607.352 217.954C607.891 212.384 608.969 211.548 615.708 212.662C621.909 213.498 622.987 212.941 622.178 209.042C621.37 206.257 617.865 202.079 614.361 199.573C605.464 193.724 606.273 188.99 617.326 181.192C622.448 177.572 626.761 173.394 626.761 172.002C626.761 170.331 623.526 164.482 619.752 158.634C611.665 146.937 612.743 141.367 621.37 149.443C624.335 152.228 626.761 153.064 626.761 151.671C626.761 150 624.874 147.215 622.717 145.266C617.865 141.088 617.326 133.012 622.178 134.961C624.874 136.075 625.413 134.126 624.604 128.556C623.526 121.593 624.335 120.758 628.918 122.15C633.501 123.264 634.309 122.429 632.961 116.859C632.153 113.517 629.996 108.504 628.109 106.276C626.222 104.048 624.065 99.8705 623.257 97.0855C621.639 92.908 622.178 92.6295 626.761 95.136C633.501 99.035 632.961 93.7435 625.952 86.224C620.561 80.3756 621.909 75.0841 627.3 80.6541C629.187 82.6035 631.614 83.996 632.692 83.996C635.388 83.996 635.657 66.1721 632.961 63.3871C631.883 62.5517 630.805 59.2097 630.266 56.1462C629.726 52.2472 630.535 51.1332 634.04 52.5257C636.466 53.6397 637.814 53.0827 637.005 51.6902C636.196 50.2977 636.466 43.6138 637.544 36.6513C638.892 28.0178 639.701 26.6253 639.97 31.9168C639.97 36.3728 642.127 41.6643 644.553 44.1707C646.71 46.6772 648.058 50.2977 647.249 52.2472C643.947 60.4331 642.668 63.5019 643.533 64.3313C644.081 64.8563 645.489 64.4839 647.788 63.9442C654.797 61.9947 654.797 62.2731 649.406 73.1346C646.979 78.1476 646.171 83.7175 647.249 86.224C648.327 89.009 648.866 92.6295 648.597 94.3005C648.327 96.5285 649.945 97.0855 652.641 95.9715C657.223 94.3005 657.223 94.579 652.91 100.706C647.249 109.061 646.979 115.745 652.371 113.517C655.336 112.403 655.067 114.352 651.023 122.429C644.553 134.683 644.014 140.81 649.675 138.582C654.797 136.632 654.797 141.645 649.675 146.937C647.519 149.443 645.632 153.342 645.632 155.57C645.632 159.469 646.171 159.469 650.484 155.849C659.65 147.772 661.806 147.494 661.806 154.735C661.806 158.355 660.189 163.368 658.302 165.318C656.415 167.267 653.988 171.166 652.91 174.23C651.293 178.407 651.832 178.964 657.493 177.572C662.884 176.179 663.693 176.736 662.615 181.471C661.806 184.534 659.919 186.205 658.571 185.37C656.954 184.256 654.797 185.37 653.449 187.319C649.675 193.446 650.484 195.395 656.415 195.395C661.537 195.395 661.806 195.952 658.032 203.472C654.258 210.713 654.258 211.827 657.763 213.219C659.919 214.055 663.693 214.055 665.85 213.219C673.128 210.156 670.163 216.283 661.806 221.017C652.641 226.587 651.293 231.6 659.11 231.6C664.772 231.6 666.659 238.284 661.806 241.348C656.954 244.411 659.11 248.31 665.85 248.31C675.015 248.31 674.476 254.437 664.502 262.235C659.919 265.856 656.415 269.755 656.415 270.869C656.415 275.046 664.502 273.654 666.119 269.198C667.198 266.97 670.163 265.02 672.859 265.02C675.555 265.02 677.981 263.628 677.981 262.235C677.981 260.564 676.633 259.45 675.285 259.45C673.398 259.45 673.668 257.779 675.555 254.437C677.711 250.817 677.442 246.639 674.476 237.449C672.05 230.486 671.511 226.587 673.398 228.537C678.25 233.55 680.677 232.157 680.677 224.916C680.677 221.017 681.755 217.397 683.372 216.283C684.99 215.447 684.72 212.105 682.833 207.649C680.137 202.079 680.407 200.13 683.372 198.18C686.607 196.231 686.338 194.56 682.024 189.547C677.172 183.977 677.172 183.42 681.485 185.091C686.877 187.04 687.686 181.471 683.372 172.837C680.946 168.66 681.485 167.546 684.99 167.546C688.764 167.546 689.303 165.596 687.955 156.684C687.416 150.836 687.686 144.152 689.034 142.202C690.651 139.417 691.46 141.924 691.729 149.443C691.999 155.57 691.999 161.697 691.729 162.811C691.46 164.204 693.347 169.217 695.503 174.23C699.277 182.306 699.277 184.256 695.773 191.218C691.19 200.408 691.999 203.472 698.199 198.18C703.321 193.724 703.321 196.231 698.199 206.535C694.695 213.498 694.695 214.612 698.738 216.004C702.512 217.675 702.243 218.511 697.121 224.359C693.886 227.98 691.999 232.714 692.808 234.942C695.234 241.069 704.399 243.019 708.713 238.563C710.6 236.335 713.026 235.499 713.835 236.335C716.261 238.563 703.591 248.31 698.199 248.31C694.425 248.31 694.155 249.146 696.582 252.209C698.199 254.437 702.512 255.273 706.556 254.437C711.948 253.323 713.295 254.159 712.487 256.944C711.948 259.172 707.904 261.121 704.13 261.678C695.234 262.792 694.425 269.755 702.782 273.097L708.443 275.325L702.512 279.781C694.964 285.072 697.66 291.199 706.556 289.249C710.869 288.414 713.026 289.249 713.026 291.756C713.026 295.655 709.791 296.769 702.512 295.655C696.312 294.819 703.86 303.174 711.139 305.681C714.374 306.795 718.148 309.301 719.765 311.251C721.652 313.757 723.809 314.314 726.505 312.365C728.931 310.694 729.201 309.58 727.313 309.58C725.426 309.58 722.731 307.073 721.113 304.01C718.417 298.997 719.226 297.883 726.235 295.376C735.94 291.756 736.479 289.249 729.201 281.73C722.192 274.489 722.192 269.755 729.201 271.983C736.749 274.489 735.94 270.033 727.583 261.957L720.574 255.273L728.392 253.88C735.67 252.488 735.94 251.931 737.288 231.043C739.444 201.244 742.14 200.965 741.601 230.765L741.332 255.273L749.419 256.944C756.967 258.615 757.237 258.893 751.575 260.843C748.071 261.957 745.375 264.463 745.375 266.413C745.375 268.641 744.566 271.983 743.758 274.489C741.871 279.781 763.167 292.034 765.054 286.464C765.863 284.793 766.672 285.907 766.672 289.249C766.941 292.591 769.368 296.769 772.602 298.44C775.007 299.806 776.339 300.563 776.695 300.241C777.136 299.842 776.07 297.777 773.681 293.148L769.368 284.515H777.724C786.89 284.515 787.699 281.73 781.499 272.261C778.803 267.805 778.264 265.02 780.151 263.628C782.038 262.514 782.307 260.286 780.42 256.944C778.264 252.488 778.803 252.209 785.003 253.323C791.203 254.437 791.473 254.159 788.508 248.31C786.351 244.133 786.081 241.348 787.968 240.234C789.855 239.12 789.855 236.892 788.508 234.664C787.16 232.157 787.699 229.094 790.125 226.587C792.821 224.081 793.63 219.903 792.551 214.89C791.742 210.434 792.012 206.257 793.63 205.143C795.517 204.029 796.595 206.535 796.595 211.827C796.595 217.397 798.482 221.296 801.717 223.245C810.343 227.98 814.117 226.587 809.265 221.017C803.334 214.333 803.604 212.105 810.074 212.105C813.039 212.105 815.465 211.548 815.465 210.713C815.465 208.206 808.726 196.788 806.03 194.838C804.413 193.446 804.413 192.61 806.569 192.61C808.187 192.61 810.613 193.724 811.422 195.395C812.23 196.788 814.387 198.18 816.004 198.18C817.892 198.18 816.004 194.56 811.961 190.382C803.334 180.914 802.526 177.293 810.343 181.471C817.352 185.37 819.779 183.42 814.117 178.686C808.995 174.23 808.995 170.052 814.117 172.002C818.97 173.951 819.509 170.052 814.926 165.318C812.5 162.811 812.77 161.976 816.274 161.976C820.318 161.976 820.587 160.862 818.161 156.406C816.004 152.507 816.004 150.836 818.161 150.836C819.779 150.836 820.857 149.165 820.587 147.215C819.509 138.025 821.126 134.126 826.248 134.126C831.101 134.126 831.37 134.961 828.944 139.696C827.057 143.316 827.057 145.266 828.675 145.266C830.562 145.266 830.562 147.772 828.944 151.95C827.327 156.684 827.596 159.191 829.753 160.026C832.179 160.862 832.179 162.811 829.753 168.381C827.057 174.508 827.057 175.901 829.753 175.901C831.64 175.901 834.605 174.508 836.492 172.559C840.806 168.103 840.536 171.723 835.684 181.192C833.527 185.648 832.718 189.825 833.527 190.661C834.336 191.775 833.527 194.281 831.91 196.509C827.866 201.522 830.292 206.814 835.684 204.586C840.266 202.915 840.536 204.029 838.11 210.434C837.301 212.941 835.414 214.055 834.066 213.219C832.718 212.384 831.64 213.219 831.64 214.612C831.64 216.283 834.336 217.675 837.84 217.954C841.075 217.954 842.154 218.789 840.536 219.625C833.527 222.41 837.031 226.587 845.119 225.195C854.284 223.245 854.824 223.802 848.623 230.208C845.388 233.828 845.119 235.499 847.545 236.892C849.971 238.563 849.971 239.955 847.006 242.183C844.849 244.133 843.771 248.31 844.31 251.931C845.119 255.551 843.232 260.843 839.997 264.742C831.91 274.211 834.875 275.046 847.006 266.691C852.397 262.792 858.059 259.45 859.406 259.45C863.989 259.45 857.789 272.261 848.354 282.287C842.962 288.135 839.458 293.427 840.266 294.262C841.075 295.098 843.232 293.984 845.119 291.477C851.05 284.236 854.015 286.743 851.858 297.326C850.241 306.795 850.51 307.073 856.441 305.124C861.563 303.453 862.102 303.731 859.406 307.352C857.519 309.58 856.711 312.365 857.789 313.2C858.598 314.314 858.059 315.15 856.441 315.15C851.589 315.15 854.554 335.759 859.676 336.873C862.102 337.43 863.989 339.101 863.989 340.493C863.989 341.886 871.807 343 881.512 343H899.034L896.339 336.037C894.182 330.189 894.452 329.075 899.034 329.075C903.617 329.075 903.887 328.518 900.382 321.555C898.226 317.378 897.417 313.2 898.765 312.365C900.652 311.251 904.965 297.326 906.043 288.692C906.043 287.021 907.661 282.844 909.278 278.945C911.974 272.54 912.244 273.097 912.244 284.793C912.513 291.756 914.131 298.997 915.748 300.668C918.444 303.453 918.444 304.845 915.209 306.795C911.974 308.744 911.974 310.415 914.939 316.264C918.714 323.226 924.914 326.29 937.584 326.29C942.167 326.29 944.862 324.897 944.862 322.112C944.862 319.884 942.975 317.935 940.549 317.935C938.393 317.935 937.314 316.542 938.123 315.15C938.932 313.479 938.123 312.365 935.966 312.365C933.81 312.365 929.227 309.858 925.722 307.073L919.253 301.782L928.688 298.997C937.314 296.49 937.584 296.212 930.844 295.933C922.218 295.655 918.983 291.199 923.296 285.907C925.992 282.565 925.992 280.895 923.296 277.553C920.601 274.211 920.87 273.375 925.183 273.375C927.879 273.375 933.001 275.325 936.236 277.831C945.671 284.515 945.941 281.173 936.775 270.59C929.227 261.957 927.61 254.437 934.619 261.678C940.549 267.805 945.132 265.577 943.245 257.222C942.167 253.045 940.28 248.589 939.201 247.196C935.697 243.019 936.236 239.955 940.549 239.955C944.054 239.955 944.054 238.563 940.549 229.929C936.775 220.46 936.775 220.182 941.897 221.853C948.097 223.802 952.141 219.068 946.21 216.561C941.088 214.612 941.088 209.32 946.21 209.32C951.063 209.32 951.602 204.864 947.019 202.915C944.323 201.801 944.593 200.687 947.558 198.459C951.063 195.674 951.063 195.117 947.558 192.61C944.323 190.382 944.593 189.825 949.445 189.825C952.68 189.825 956.185 191.496 957.533 193.167C960.498 198.18 960.768 210.156 957.533 214.055C955.915 216.561 955.915 217.675 958.072 217.675C960.498 217.675 960.498 219.068 958.341 223.245C956.185 227.423 956.185 228.815 958.611 228.815C960.768 228.815 960.768 229.929 958.341 232.993C956.185 235.499 955.915 237.17 957.802 237.17C959.42 237.17 961.576 235.778 962.385 234.385C965.081 229.929 971.82 231.043 970.203 235.778C969.124 238.563 970.203 239.955 973.168 239.955C975.594 239.955 976.673 241.348 975.594 243.019C974.786 244.69 975.325 247.196 977.212 248.31C979.638 249.981 979.638 251.652 977.212 256.665C974.786 261.678 974.786 263.349 977.212 265.02C979.099 266.134 979.368 267.805 978.021 268.641C975.864 270.033 975.594 275.603 976.942 301.782C977.212 307.63 978.829 309.858 983.951 311.251C991.499 313.2 990.421 317.099 980.986 320.72C977.212 322.391 974.516 325.733 974.516 329.075C974.516 335.759 978.021 336.316 982.603 330.467C984.49 328.239 988.534 326.29 991.769 326.568C997.161 326.568 997.161 326.847 992.578 329.91C992.116 330.244 991.608 330.61 991.069 330.998C988.461 332.875 985.154 335.257 983.143 336.873C979.368 339.936 979.638 339.936 984.76 337.43C989.882 334.923 991.769 334.923 994.195 338.544C996.891 342.443 1003.09 343 1036.52 342.443L1075.61 341.607L1074.8 334.645C1074.53 330.746 1072.91 327.125 1071.56 326.847C1069.95 326.29 1068.87 323.505 1068.87 320.441C1068.87 317.656 1067.79 315.15 1066.44 315.15C1065.09 315.15 1064.29 312.086 1064.29 308.187C1064.29 304.288 1065.36 301.225 1066.71 301.225C1068.06 301.225 1068.33 299.832 1067.52 298.44C1066.71 296.769 1066.98 295.655 1068.33 295.655C1072.91 295.655 1073.72 285.072 1069.68 278.945C1065.63 273.097 1065.63 272.818 1071.02 275.882C1075.61 278.388 1076.69 277.831 1078.03 272.818C1078.84 269.198 1078.84 263.349 1077.76 259.45C1076.96 255.551 1076.96 253.323 1078.03 254.159C1078.84 254.994 1081 262.514 1082.62 270.869C1083.04 273.052 1083.46 275.255 1083.87 277.357C1085.01 283.299 1085.99 288.439 1086.39 290.085C1086.66 292.313 1088.55 293.984 1090.16 293.705C1091.78 293.148 1093.13 295.933 1093.13 299.554C1093.13 303.453 1094.21 307.352 1095.83 308.187C1097.44 309.023 1097.71 307.909 1096.9 305.681C1095.29 300.946 1098.25 299.832 1102.83 303.174C1104.18 304.567 1103.64 303.453 1101.22 301.225C1097.44 297.326 1096.9 293.705 1098.25 282.008C1098.52 278.667 1099.33 278.667 1101.76 281.173C1107.42 287.021 1108.77 284.793 1106.61 273.375C1105.26 266.134 1105.53 263.071 1107.42 264.185C1109.04 265.299 1109.57 264.185 1108.5 261.121C1103.91 248.589 1103.1 241.905 1106.61 244.133C1109.3 245.804 1109.84 245.247 1108.23 241.069C1104.99 232.993 1104.45 223.245 1106.88 224.916C1108.23 225.752 1109.3 224.359 1109.3 222.131C1109.3 219.625 1110.92 217.675 1112.81 217.675C1115.24 217.675 1116.31 220.739 1116.04 226.03C1115.77 230.486 1116.58 234.385 1117.93 234.385C1119.28 234.385 1119.55 237.17 1118.74 240.234C1117.39 244.69 1117.66 245.525 1120.36 244.133C1122.78 242.462 1123.05 243.297 1121.71 247.196C1120.63 249.981 1119.01 256.108 1118.2 260.843C1116.58 268.362 1116.85 268.919 1120.9 265.299C1126.02 261.121 1126.83 263.071 1122.78 270.869C1120.36 275.046 1120.9 276.16 1124.13 276.16C1127.37 276.16 1127.91 277.274 1125.48 281.452C1121.71 288.692 1121.97 290.085 1126.83 288.414C1131.41 286.464 1132.49 291.477 1128.18 294.262C1123.59 297.326 1125.21 301.225 1131.41 301.225C1134 301.225 1135.4 301.225 1135.68 301.782C1136 302.445 1134.73 303.896 1131.95 307.073C1129.15 310.272 1127.88 311.721 1128.19 312.241C1128.44 312.672 1129.78 312.465 1132.22 312.086C1136.26 311.251 1137.34 312.643 1137.88 319.884C1138.15 325.176 1137.07 329.075 1135.18 329.075C1133.57 329.353 1135.99 331.024 1140.31 332.974C1149.74 337.151 1151.9 336.594 1147.32 330.746C1145.43 328.518 1144.62 325.454 1145.43 323.783C1146.24 322.391 1145.43 320.441 1143.81 319.606C1141.92 318.77 1143.81 318.492 1147.85 319.049L1155.4 319.884L1149.74 314.593C1143.27 308.466 1142.73 305.681 1148.66 307.909C1151.9 309.023 1152.44 308.187 1151.09 304.01C1150.01 300.946 1150.55 298.44 1152.17 298.44C1156.75 298.44 1155.67 289.806 1150.55 283.958C1148.12 281.173 1147.58 278.945 1148.93 278.945C1150.55 278.945 1152.71 274.489 1153.52 269.198C1154.59 263.628 1156.48 260.007 1158.1 261.121C1159.72 261.957 1160.25 264.463 1159.45 266.691C1158.64 268.641 1161.33 274.489 1165.11 279.502C1167.38 282.324 1169.49 285.057 1170.99 287.007C1172.16 288.521 1172.96 289.563 1173.19 289.806C1173.73 290.363 1174.81 290.085 1175.62 289.249C1176.7 288.135 1176.43 285.907 1174.81 283.958C1173.46 282.008 1172.12 277.274 1171.85 273.932C1171.58 268.084 1172.66 267.527 1178.86 268.919L1186.13 270.59L1178.05 263.628C1173.73 259.729 1169.15 256.665 1168.07 256.665C1166.99 256.665 1169.69 251.374 1174.27 244.69C1182.36 232.714 1183.17 227.423 1181.82 200.965C1181.01 186.205 1182.63 167.824 1183.98 175.344C1184.52 178.686 1186.13 180.914 1186.94 180.357C1188.02 179.8 1188.56 184.256 1188.02 190.382C1187.21 198.737 1187.75 201.244 1190.18 199.573C1192.6 198.18 1192.87 199.016 1191.53 203.472C1190.45 207.092 1190.99 209.32 1192.87 209.32C1194.76 209.32 1195.57 210.991 1194.76 212.662C1194.4 213.962 1193.56 216.498 1192.72 219.035C1192.31 220.304 1191.89 221.574 1191.53 222.688C1189.91 228.815 1190.18 229.094 1195.3 226.309C1202.04 222.41 1202.58 225.195 1196.38 232.157C1192.33 236.892 1192.33 237.17 1199.34 237.17C1206.08 237.17 1206.62 236.613 1204.74 227.423C1202.85 216.561 1206.89 214.89 1213.9 223.245C1217.14 226.866 1217.41 226.587 1215.79 221.853C1214.71 218.789 1213.36 209.599 1212.55 201.244C1211.2 190.104 1211.74 186.762 1213.9 188.154C1216.06 189.547 1217.14 187.876 1217.14 184.256C1217.14 180.914 1218.21 178.964 1219.56 179.8C1220.91 180.635 1222.53 177.293 1223.34 172.28C1226.03 156.406 1230.08 143.038 1230.34 150C1230.61 153.621 1232.23 156.406 1234.66 156.406C1239.51 156.406 1239.78 160.305 1235.74 168.103C1233.04 173.116 1233.31 173.673 1237.08 172.28C1242.48 170.052 1242.48 171.166 1237.35 181.471C1233.31 189.268 1233.58 189.825 1238.7 189.825C1244.9 189.825 1245.17 190.939 1241.4 198.459C1236.55 207.371 1243.02 204.586 1250.02 194.56C1255.15 187.04 1256.22 182.028 1256.49 163.368C1256.76 127.999 1257.57 119.087 1259.19 121.036C1260.27 121.872 1261.08 128.834 1261.35 136.075C1261.62 144.709 1262.96 149.165 1265.12 148.886C1267.01 148.329 1268.36 150 1268.36 152.228C1268.36 154.456 1267.28 156.406 1265.66 156.406C1264.31 156.406 1262.96 157.52 1262.96 159.191C1262.96 160.583 1264.85 161.976 1267.01 161.976C1270.24 161.976 1270.51 163.368 1268.09 169.217C1264.31 179.8 1267.82 181.471 1275.09 172.28C1278.87 167.824 1284.26 164.761 1288.3 164.761C1292.08 164.761 1296.66 162.254 1299.09 158.634C1305.02 150 1304.48 147.772 1296.66 149.722C1286.15 152.507 1288.3 145.266 1302.05 132.733C1315.8 120.479 1317.42 116.302 1307.44 120.201C1301.78 122.429 1300.7 122.15 1300.7 118.251C1300.7 115.466 1296.66 109.896 1292.08 105.719L1283.18 97.921L1292.62 97.364C1294.37 97.364 1296.27 97.3315 1298.13 97.2998C1301.72 97.2387 1305.13 97.1806 1306.91 97.364C1313.37 97.921 1312.57 92.6295 1305.02 86.5025C1301.24 83.439 1298.82 78.4261 1298.82 74.2486C1298.82 68.9571 1299.36 67.8431 1302.05 70.0711C1304.75 72.5776 1305.29 70.9066 1304.75 63.3871C1304.21 57.8172 1303.13 52.2472 1302.05 50.5762C1300.97 48.9052 1302.05 45.2847 1304.48 42.4998C1306.91 39.7148 1308.25 35.5373 1307.17 32.7523C1306.37 30.2458 1306.64 28.2963 1307.98 28.2963C1309.6 28.2963 1310.95 18.5489 1310.95 6.85194C1311.49 -14.5924 1314.45 -22.6689 1319.58 -17.3774C1321.46 -15.4279 1320.92 -9.85797 1318.5 -0.110519C1314.99 14.3714 1315.8 17.1564 1321.73 11.0294C1327.12 5.45946 1328.74 11.3079 1323.62 17.1564C1320.92 20.2199 1320.11 22.7264 1321.73 22.7264C1323.35 22.7264 1325.51 21.3339 1326.31 19.9414C1327.12 18.2704 1329.82 17.1564 1332.25 17.1564C1336.02 17.1564 1335.75 18.2704 1330.9 23.5619C1323.35 31.9168 1323.35 33.8663 1331.98 33.8663C1337.64 33.8663 1338.72 34.7018 1337.1 38.8793C1336.33 40.6648 1335.15 44.4288 1333.95 48.2586C1333.47 49.8051 1332.98 51.3622 1332.51 52.8042C1331.17 57.8172 1328.47 62.5517 1326.58 63.3871C1322 65.3366 1324.43 78.4261 1329.82 80.3756C1331.98 81.4895 1336.29 80.3756 1339.25 78.7046C1344.65 75.0841 1344.65 75.6411 1343.03 92.6295C1341.95 103.491 1339.52 111.567 1337.1 113.517C1334.94 115.188 1333.05 118.53 1333.05 120.758C1333.05 122.986 1331.71 126.049 1330.09 127.72C1326.85 131.062 1336.29 138.303 1347.88 141.367L1355.16 143.316L1347.61 150.836C1343.3 155.013 1338.98 158.077 1337.91 157.241C1336.56 156.684 1333.86 157.241 1331.44 158.634C1327.66 160.862 1328.2 161.419 1334.4 163.09C1340.06 164.482 1344.11 163.647 1350.04 159.191L1357.86 153.064L1355.97 159.469C1354.08 165.875 1345.72 175.901 1342.49 175.901C1341.41 175.901 1338.72 178.129 1336.29 180.635C1331.98 184.812 1332.25 185.091 1339.79 183.142C1344.38 181.749 1349.5 180.635 1351.39 180.357C1353.54 180.078 1355.97 178.407 1356.78 177.015C1357.86 175.622 1360.82 172.837 1363.52 170.609C1367.83 167.267 1368.1 167.267 1366.48 172.002C1363.25 182.863 1358.93 189.825 1355.7 189.825C1354.08 189.825 1351.92 191.775 1350.85 194.003C1350.04 196.231 1346.8 198.18 1343.84 198.18C1340.87 198.18 1337.64 200.13 1336.56 202.636C1335.75 204.864 1333.32 206.257 1331.44 205.421C1329.28 204.586 1327.66 205.7 1327.66 207.649C1327.66 213.498 1333.86 214.612 1339.25 209.877C1345.72 204.029 1344.92 209.877 1337.91 219.068L1332.25 226.587L1340.6 222.131C1345.18 219.625 1350.31 217.675 1351.92 217.675C1356.78 217.675 1354.89 226.587 1347.34 236.613L1340.33 246.361L1348.15 244.968C1352.46 244.133 1358.12 242.462 1360.55 241.348C1364.59 239.677 1364.06 241.626 1358.66 251.931C1351.39 265.299 1343.84 273.654 1343.84 268.084C1343.84 266.413 1341.95 265.02 1339.79 265.02C1334.4 265.02 1334.67 272.261 1340.06 274.489C1342.76 275.603 1348.96 272.261 1357.05 265.299C1367.02 256.665 1371.06 254.716 1377 255.83L1384.54 257.501L1379.15 247.196C1375.92 241.348 1374.84 237.17 1376.46 237.17C1378.61 237.17 1378.61 236.056 1376.46 233.271C1373.76 229.929 1374.03 229.372 1378.07 230.486C1384.81 232.436 1384.81 221.574 1377.8 210.991L1372.95 202.915L1379.96 204.864C1386.7 206.535 1386.97 206.257 1386.16 196.788C1385.62 191.496 1385.89 187.04 1386.97 187.04C1388.05 187.04 1390.47 181.192 1392.09 173.951C1394.25 165.318 1396.14 161.976 1397.48 164.482C1398.83 166.432 1399.1 170.609 1398.29 173.951C1397.21 178.129 1397.75 178.964 1400.45 177.293C1403.14 175.622 1403.68 177.293 1402.6 183.977C1401.8 190.382 1402.34 192.61 1404.76 191.496C1407.46 190.382 1407.73 191.775 1405.84 197.066C1402.34 206.257 1402.34 206.535 1407.46 204.586C1410.96 203.193 1410.69 204.864 1406.11 214.612C1402.59 221.717 1401.26 224.401 1402.05 225.415C1402.54 226.03 1403.8 226.03 1405.84 226.03C1410.42 226.03 1410.69 227.144 1408.54 232.993C1406.38 239.12 1406.65 239.955 1411.5 239.955C1415.81 239.955 1416.62 241.069 1415.28 246.082C1414.2 249.703 1411.5 254.159 1409.07 256.108C1405.3 258.893 1405.84 259.45 1412.04 259.45C1418.78 259.45 1419.32 258.615 1419.59 246.082L1419.86 232.993L1422.55 244.69C1423.9 251.374 1426.06 256.665 1427.41 256.665C1428.75 256.665 1429.29 260.564 1428.21 265.299C1426.87 272.261 1427.41 273.932 1430.37 272.818C1432.53 271.983 1433.88 268.362 1433.34 263.906C1432.8 258.615 1433.88 256.665 1437.38 256.665C1439.55 256.533 1440.7 256.464 1440.78 256.13C1440.87 255.76 1439.66 255.066 1437.11 253.602C1433.07 251.095 1432.8 249.981 1435.76 248.032C1438.73 246.361 1438.73 244.968 1436.03 242.183C1431.45 237.449 1431.99 234.385 1437.65 236.335C1441.42 238.006 1441.69 237.449 1438.73 233.828C1436.03 230.208 1436.03 229.094 1438.73 228.258C1440.89 227.423 1442.23 221.296 1442.5 211.827C1443.3 182.294 1443.31 182.303 1446.99 187.186L1447.09 187.319C1449.78 191.218 1451.4 191.496 1455.17 188.433C1460.83 184.256 1461.1 175.901 1455.71 175.901C1451.94 175.901 1452.21 174.787 1455.98 166.71C1460.56 157.798 1470 148.886 1474.04 150.279C1477.55 151.393 1475.93 147.772 1467.84 134.961C1458.14 120.479 1458.14 118.53 1465.42 114.631C1469.73 112.124 1472.16 112.403 1476.2 116.302C1478.9 118.808 1481.32 119.644 1481.32 117.973C1481.32 116.302 1478.9 113.517 1475.93 111.846C1468.38 107.668 1472.16 102.655 1481.59 104.605C1485.9 105.44 1489.41 104.883 1489.41 103.491C1489.41 101.82 1487.79 100.706 1486.17 100.706C1479.7 100.706 1475.66 95.9715 1472.16 85.3885C1468.65 75.3626 1468.92 74.2486 1475.12 67.5646C1481.05 60.8807 1481.86 60.6022 1485.1 65.0581C1489.95 71.7421 1491.84 71.1851 1490.22 63.6656C1488.06 53.3612 1481.59 39.9933 1477.82 38.6008C1476.2 37.7653 1478.63 36.9298 1483.48 36.9298C1490.76 36.6513 1492.1 35.5373 1492.1 30.2458C1492.1 26.6253 1490.49 21.6124 1488.6 18.5489C1485.37 14.3714 1485.63 12.1434 1489.41 3.50996C1492.1 -2.06001 1495.07 -12.6429 1496.15 -20.1624C1498.57 -38.2648 1503.43 -33.2518 1505.04 -10.972C1505.85 1.56047 1507.2 5.18095 1509.9 4.06696C1514.21 2.39597 1515.02 7.68744 1510.98 10.1939C1506.66 12.9789 1507.74 17.9919 1512.32 16.0424C1517.71 14.0929 1517.44 17.9919 1510.98 31.6383C1504.77 45.0062 1504.51 46.1202 1508.28 43.6138C1511.78 41.3858 1511.78 56.4247 1508.28 65.6151C1505.04 75.0841 1511.24 75.6411 1517.18 66.4506C1520.95 60.8807 1521.49 60.6022 1523.11 65.3366C1524.18 68.1216 1523.65 73.4131 1521.49 77.3121C1518.79 82.882 1518.79 84.8315 1521.22 86.5025C1523.65 87.895 1522.84 92.0725 1517.71 102.098C1510.71 116.859 1511.78 120.201 1523.91 120.201C1530.92 120.201 1531.46 124.1 1526.07 134.683C1523.91 139.139 1523.11 142.481 1524.45 142.481C1529.85 142.481 1535.24 138.86 1535.24 134.961C1535.24 132.733 1536.58 131.898 1537.93 132.733C1539.55 133.847 1540.63 131.062 1540.63 126.606C1540.63 120.479 1541.17 119.644 1543.32 122.986C1545.75 126.606 1546.02 126.606 1546.29 122.986C1546.56 116.58 1548.18 108.782 1550.87 97.921C1552.76 90.9585 1553.57 89.8445 1553.84 94.3005C1554.11 97.921 1555.72 100.706 1558.15 100.706C1563 100.706 1563.27 104.605 1559.23 112.403C1556.53 117.416 1556.8 117.973 1560.58 116.58C1565.97 114.352 1565.97 118.53 1560.58 127.163C1556.26 133.847 1556.53 134.126 1561.93 134.126C1568.4 134.126 1568.66 135.24 1564.89 142.759C1561.66 148.886 1567.05 150.279 1572.44 144.709C1577.83 139.139 1576.48 156.406 1570.55 168.381C1565.97 177.572 1565.97 179.243 1569.2 180.635C1571.63 181.471 1572.71 183.977 1571.63 186.762C1570.55 189.268 1569.47 195.395 1568.66 200.687C1567.59 208.763 1568.13 209.877 1572.98 208.485C1578.64 207.092 1580.8 212.941 1575.67 216.283C1574.33 217.118 1574.06 220.46 1575.4 224.081C1576.48 227.423 1577.83 234.942 1577.83 240.791C1578.1 249.981 1586.46 268.919 1586.46 260.286C1586.46 258.336 1585.38 256.108 1583.76 255.273C1582.14 254.437 1581.07 251.652 1581.07 249.146C1581.07 244.968 1581.6 245.247 1585.92 249.146C1592.66 255.551 1595.35 254.994 1591.85 248.589C1587.27 239.398 1588.34 233.828 1594.54 235.778C1600.21 237.727 1601.82 234.664 1597.24 229.929C1595.62 228.258 1594.01 222.967 1593.2 217.954C1592.39 210.713 1592.93 209.32 1596.16 210.434C1599.4 211.548 1599.94 210.713 1598.59 206.535C1597.51 203.193 1598.05 200.965 1599.94 200.965C1601.55 200.965 1600.47 197.623 1597.51 193.724C1589.96 183.977 1590.5 180.914 1598.59 184.256C1605.06 186.762 1605.33 186.483 1603.71 179.243C1602.9 175.065 1601.82 170.052 1601.01 168.103C1600.47 166.432 1601.55 164.761 1603.71 164.761C1605.6 164.761 1608.29 159.191 1609.91 151.393C1611.26 144.136 1611.85 140.902 1612.54 140.885C1613.08 140.871 1613.68 142.935 1614.76 146.658C1615.84 151.114 1618.27 155.849 1619.88 156.963C1622.04 158.355 1621.77 160.862 1619.35 165.039C1615.84 170.609 1616.11 170.888 1620.96 169.774C1625.28 168.381 1626.08 169.217 1625.01 172.837C1624.2 175.344 1622.04 178.964 1620.42 181.192C1618 184.534 1618.54 184.812 1623.39 183.699L1629.32 182.028L1624.2 192.889C1617.73 205.7 1617.73 206.535 1622.85 206.535C1626.08 206.535 1626.62 208.485 1625.28 214.055C1623.66 220.46 1624.2 221.017 1629.32 219.625C1632.28 218.789 1634.98 218.789 1634.98 219.625C1634.98 222.41 1628.51 232.993 1625.82 234.942C1624.2 236.056 1626.08 237.17 1630.4 237.17C1634.98 237.17 1637.68 235.499 1637.95 232.993C1638.75 225.195 1639.02 223.802 1641.18 221.574C1642.26 220.46 1643.07 215.726 1643.07 211.27C1643.07 206.535 1643.61 203.472 1644.15 204.029C1645.49 205.421 1647.92 222.41 1648.19 232.157C1648.46 234.942 1650.35 237.17 1652.5 237.17C1657.36 237.17 1657.89 232.714 1653.31 230.765C1650.62 229.651 1650.62 228.815 1653.31 226.587C1656.01 224.638 1656.01 223.524 1652.5 220.46C1650.35 218.511 1648.46 215.726 1648.46 214.333C1648.46 212.662 1650.62 213.219 1653.04 215.169C1657.09 218.511 1657.36 218.511 1655.74 214.055C1654.66 211.27 1655.2 209.32 1657.09 209.32C1658.97 209.32 1659.24 205.421 1658.16 197.902C1656.82 189.547 1657.36 187.04 1659.51 188.711C1661.94 190.104 1662.21 188.711 1660.86 183.42C1660.05 179.521 1660.32 173.394 1661.67 169.774C1663.29 166.153 1664.36 164.204 1664.36 165.318C1664.63 166.71 1664.36 167.824 1664.1 168.381C1663.56 168.938 1665.44 171.445 1668.14 174.23C1672.72 179.243 1672.99 190.661 1668.68 197.902C1667.87 199.573 1668.14 202.915 1669.49 205.421C1671.1 208.485 1672.45 209.042 1673.8 206.814C1678.11 199.573 1680.27 204.586 1676.5 213.498C1671.91 225.195 1671.64 233.55 1676.23 235.221C1678.38 236.056 1677.84 238.006 1674.07 241.348C1671.27 243.661 1669.93 244.773 1670.11 245.152C1670.28 245.504 1671.76 245.225 1674.61 244.69L1680.81 243.297L1675.15 250.538C1669.22 258.615 1672.45 262.514 1680 256.387C1683.77 253.045 1684.04 253.602 1682.43 261.678C1680.81 268.084 1681.35 270.59 1683.77 270.59C1685.66 270.59 1684.85 273.097 1681.35 276.996C1674.34 284.793 1673.8 287.3 1679.73 287.3C1682.7 287.3 1683.77 288.971 1682.7 292.591C1681.62 297.047 1682.7 297.604 1689.97 296.769C1709.11 294.262 1717.2 291.199 1718.01 285.907C1718.82 281.452 1718.28 280.895 1715.58 283.679C1710.73 288.414 1707.77 288.135 1707.77 282.844C1707.77 280.616 1706.69 279.502 1705.07 280.337C1703.72 281.173 1702.38 280.616 1702.38 278.945C1702.38 277.274 1700.76 276.16 1699.14 276.439C1692.67 277.274 1688.09 276.16 1689.7 274.211C1690.78 273.375 1690.24 270.869 1688.9 269.198C1686.74 266.691 1688.09 263.349 1692.94 257.222C1700.76 247.753 1701.3 244.133 1695.64 241.626C1692.13 240.234 1692.13 238.841 1696.17 230.208C1698.6 224.916 1703.99 219.068 1707.77 217.118L1715.05 213.776L1709.65 204.029C1706.42 198.459 1702.38 192.889 1700.49 191.775C1695.1 188.433 1696.17 184.534 1703.72 180.914C1709.92 178.129 1711.54 178.686 1719.9 187.04C1732.3 199.294 1732.03 195.674 1719.9 182.585C1714.78 177.293 1710.46 172.002 1710.46 171.445C1710.46 170.888 1715.05 170.331 1720.71 170.052C1725.93 169.902 1728.34 169.833 1728.4 169.41C1728.46 169.048 1726.78 168.425 1723.67 167.267C1716.93 164.761 1713.43 158.912 1709.11 143.038C1708.04 139.417 1708.58 136.911 1710.46 136.911C1712.08 136.911 1712.89 135.797 1712.08 134.404C1709.11 129.67 1722.59 128.556 1726.1 133.29C1729.06 137.468 1729.33 137.189 1729.33 130.227C1729.33 121.593 1722.32 106.276 1718.55 106.276C1716.93 106.276 1715.85 104.883 1715.85 103.212C1715.85 101.263 1718.55 100.706 1722.59 101.82C1731.76 104.326 1734.45 96.807 1728.52 86.224C1724.75 79.5401 1724.75 77.5906 1727.98 70.9066C1730.14 66.4506 1732.03 61.1592 1732.03 58.9312C1732.03 56.7032 1733.38 50.0192 1734.99 44.1707C1737.96 32.4738 1742.81 32.7523 1742.81 44.7278C1742.81 59.4882 1745.78 69.7926 1749.82 68.1216C1754.67 66.1721 1754.67 68.6786 1749.28 77.0336C1744.7 84.2745 1747.39 86.5025 1753.06 80.6541C1760.06 73.4131 1753.86 94.579 1746.05 104.048C1742.54 108.504 1742.54 109.061 1746.32 109.061C1751.44 109.061 1751.98 114.631 1748.47 127.999C1746.32 134.961 1746.59 136.911 1749.55 136.911C1751.71 136.911 1754.4 134.683 1756.02 131.898C1760.06 124.378 1766 131.619 1761.95 139.417C1760.33 142.481 1759.53 148.329 1760.6 152.228C1761.68 156.963 1760.06 162.811 1755.21 171.723L1747.93 184.256L1754.13 184.534C1757.64 184.812 1761.68 184.812 1763.57 184.534C1769.23 183.699 1770.04 189.547 1765.73 198.459C1760.6 208.485 1761.68 210.991 1769.23 206.814C1773.27 204.586 1774.89 204.586 1775.97 207.371C1776.78 209.877 1777.86 209.877 1781.36 206.814C1785.4 203.472 1785.94 203.75 1785.94 209.599C1785.94 215.726 1772.73 241.626 1772.47 236.056C1772.47 234.664 1769.77 236.892 1766.8 241.069C1763.57 245.247 1761.68 249.146 1762.22 249.703C1764.11 251.931 1783.25 245.247 1783.25 242.74C1783.25 241.069 1784.33 239.955 1785.94 239.955C1787.29 239.955 1784.33 248.867 1779.2 260.007C1767.07 285.907 1767.07 288.135 1780.01 281.73L1789.99 276.717L1790.8 286.743C1791.87 298.997 1796.46 305.681 1797 295.655C1797.27 291.756 1797.27 287.578 1797 286.186C1796.73 285.072 1797.81 282.287 1799.69 280.059C1801.31 278.11 1801.58 274.768 1800.5 273.097C1799.42 270.869 1799.69 270.59 1801.58 271.704C1803.47 272.818 1804.81 278.945 1804.81 285.629C1804.81 292.034 1806.16 298.718 1808.05 300.668C1810.48 303.174 1810.48 304.01 1808.05 304.01C1806.16 304.01 1804.81 306.516 1804.81 309.58C1804.81 312.643 1806.16 315.15 1807.78 315.15C1809.13 315.15 1809.94 316.264 1809.13 317.378C1807.24 320.72 1825.03 326.011 1831.77 324.34C1834.74 323.505 1837.16 321.277 1837.16 319.049C1837.16 316.821 1835.55 315.985 1833.12 316.821C1830.69 317.935 1829.08 317.099 1829.08 314.871C1829.08 312.643 1825.57 309.301 1820.99 307.352C1810.48 302.617 1810.75 299.554 1821.8 296.769L1830.42 294.541L1821.8 293.705C1812.9 292.591 1809.67 286.186 1816.41 283.679C1818.83 282.844 1818.83 281.173 1816.68 276.996C1813.98 272.54 1814.25 271.704 1818.56 271.426C1821.26 271.147 1824.76 272.818 1826.65 275.046C1828.27 277.274 1831.77 278.945 1834.2 278.945C1837.7 278.945 1837.43 277.831 1832.85 273.932C1829.62 271.426 1825.57 266.413 1823.68 262.792C1822.24 259.678 1821.5 258.078 1821.87 257.768C1822.25 257.44 1823.86 258.553 1827.19 260.843C1836.09 266.691 1838.24 262.514 1833.12 249.981C1828.27 237.727 1828.27 237.17 1832.85 237.17C1836.36 237.17 1836.36 236.056 1832.85 229.372C1827.73 219.068 1828 216.84 1834.47 220.46C1838.78 222.967 1839.86 222.688 1839.86 219.068C1839.86 216.84 1838.78 214.89 1837.16 214.89C1835.82 214.89 1834.47 212.941 1834.47 210.713C1834.47 208.485 1836.36 206.535 1838.78 206.535C1842.56 206.535 1842.82 205.978 1839.59 201.801C1836.62 198.18 1836.62 197.066 1839.32 195.952C1842.02 195.117 1842.02 194.003 1839.59 190.939C1837.7 188.433 1837.43 187.04 1839.32 187.04C1844.98 187.04 1850.64 190.382 1849.03 192.889C1848.22 194.281 1848.76 195.395 1849.83 195.395C1852.8 195.395 1852.8 206.814 1849.56 211.827C1848.22 214.055 1848.49 216.283 1850.64 217.675C1853.07 219.346 1853.07 220.182 1850.64 221.853C1848.22 223.524 1848.22 224.359 1850.91 226.03C1853.61 227.98 1853.61 229.372 1850.64 233.55C1848.82 235.831 1847.88 237.013 1848 237.127C1848.12 237.25 1849.47 236.137 1852.26 233.828C1859.54 227.423 1861.43 227.423 1861.43 234.385C1861.43 237.449 1863.31 239.955 1865.74 239.955C1867.9 239.955 1869.24 241.069 1868.17 242.462C1867.36 243.854 1867.9 245.804 1869.51 246.918C1871.13 248.032 1871.4 250.538 1869.78 253.323C1867.63 257.501 1867.63 267.248 1869.24 299.275C1869.51 304.845 1871.4 307.63 1876.52 309.858C1883.53 312.365 1883.53 312.643 1878.68 316.542C1875.98 318.77 1871.94 320.72 1870.32 320.72C1868.43 320.72 1866.82 324.062 1866.82 328.239V335.48L1873.02 329.632C1876.52 326.29 1880.84 323.505 1882.72 323.505C1884.61 323.505 1885.15 322.112 1884.34 320.72C1883.53 319.049 1884.07 317.935 1885.69 317.935C1887.57 317.935 1888.11 315.985 1887.31 313.757C1886.9 312.643 1886.29 311.112 1885.69 309.58C1885.08 308.048 1884.47 306.516 1884.07 305.402C1882.99 302.617 1884.07 301.225 1887.04 301.225C1890.81 301.225 1891.08 300.389 1888.38 297.047C1885.69 293.705 1885.69 292.87 1889.46 292.87C1892.16 292.87 1893.78 290.642 1893.78 287.021C1893.78 281.173 1894.04 281.173 1901.32 286.186C1906.98 290.085 1907.79 290.085 1905.1 286.743C1902.4 283.122 1902.4 282.008 1905.1 281.173C1907.79 280.059 1907.79 278.945 1904.83 275.325C1902.4 271.983 1902.13 270.59 1904.29 270.59C1906.71 270.59 1906.71 269.198 1904.56 265.02C1902.94 261.957 1902.67 259.45 1904.02 259.45C1905.1 259.45 1905.91 255.83 1905.64 251.095C1905.37 246.639 1906.18 243.576 1907.52 244.411C1908.87 245.247 1909.95 243.854 1909.95 241.348C1909.95 237.727 1910.49 237.449 1913.72 240.512C1916.42 243.019 1916.69 245.247 1914.8 247.475C1912.65 250.26 1913.18 251.095 1916.96 251.095C1918.66 251.095 1919.65 251.265 1920 251.681ZM0 58.3525V67.3253C0.480349 67.2963 1.01615 67.2861 1.61102 67.2861C4.33464 67.2861 5.80746 67.2861 6.10782 66.6927C6.46148 65.9939 5.1895 64.4724 2.41975 61.1592C1.41111 60.0075 0.601095 59.0826 0 58.3525ZM0 84.1741V108.594C6.51675 108.558 10.6293 98.62 4.03721 90.9585C2.66669 89.401 1.22649 86.9078 0 84.1741ZM0 137.592V139.726C0.0779682 139.706 0.16561 139.696 0.263129 139.696C1.2402 139.696 1.08404 138.818 0 137.592ZM0 141.948C0.309653 142.531 0.762002 143.189 1.34144 143.873C4.24222 147.415 4.04742 148.825 0 152.013V141.948ZM1486.71 128.556C1488.87 132.176 1489.41 132.176 1489.41 127.999C1489.41 125.492 1488.33 122.429 1486.71 121.593C1483.21 119.365 1483.21 122.986 1486.71 128.556ZM513.539 143.873C513.539 147.772 514.617 147.494 519.2 141.367C522.165 137.468 524.322 132.733 523.783 131.062C522.435 126.885 513.539 137.746 513.539 143.873ZM1486.71 157.798C1492.91 163.647 1493.99 158.912 1487.79 152.507C1483.21 147.494 1481.32 146.937 1481.32 150.279C1481.32 151.671 1483.75 155.013 1486.71 157.798ZM155.54 174.23C157.966 175.344 162.01 175.901 164.166 175.344C167.132 174.787 165.514 171.166 157.966 162.254C151.227 154.178 147.183 151.114 145.835 153.064C144.757 155.013 145.296 156.406 147.183 156.406C149.07 156.406 148.8 158.634 145.835 163.368C143.409 167.267 142.6 170.609 144.217 170.609C147.992 171.166 150.148 172.002 155.54 174.23ZM513.808 166.432C513.808 169.495 514.617 170.331 515.426 168.103C516.234 166.153 515.965 163.647 515.156 162.811C514.347 161.697 513.539 163.368 513.808 166.432ZM131.008 187.598C132.356 177.572 131.547 168.938 129.391 168.938C128.043 168.938 125.347 168.103 123.999 166.989C120.495 164.761 112.407 170.888 113.755 174.508C114.294 176.179 111.059 180.357 106.477 183.699C97.311 190.939 95.1544 197.345 103.781 192.61C106.746 190.939 108.633 188.433 107.825 187.319C107.285 185.927 109.442 184.256 113.216 183.699C116.99 182.863 120.225 183.699 121.034 185.927C122.651 190.104 130.469 191.218 131.008 187.598ZM1288.3 188.99C1291.81 192.61 1295.04 183.42 1292.35 178.129C1291 175.344 1288.84 173.116 1287.77 173.116C1285.07 173.116 1285.61 186.205 1288.3 188.99ZM1477.28 178.964C1479.17 182.028 1486.71 182.306 1486.71 179.243C1486.71 178.129 1484.29 177.015 1481.32 176.736C1478.36 176.458 1476.47 177.293 1477.28 178.964ZM1524.72 179.8C1520.41 185.091 1521.76 187.876 1526.88 184.534C1528.77 183.142 1530.12 180.635 1529.31 178.686C1528.5 176.179 1527.15 176.736 1524.72 179.8ZM156.888 188.711C156.079 189.547 154.731 187.598 153.653 184.534C151.766 177.572 149.609 177.293 142.87 182.306C137.748 186.483 139.365 192.61 145.835 192.61C147.992 192.61 149.609 193.724 149.609 195.117C149.609 198.737 142.6 204.029 140.713 201.801C139.635 200.965 138.287 202.358 137.208 204.864C134.782 211.27 140.174 216.84 144.757 212.941C146.644 211.27 152.844 208.485 158.505 206.814C163.897 204.864 168.479 202.358 168.479 201.244C168.479 197.623 158.505 187.04 156.888 188.711ZM623.257 185.648C621.37 190.104 628.109 194.838 631.344 191.496C632.422 190.382 631.344 187.876 628.918 185.37C625.144 181.471 624.604 181.471 623.257 185.648ZM44.7434 197.902L50.6741 194.56L44.2043 190.939C35.3082 185.927 33.6907 186.205 33.6907 192.332C33.6907 199.851 37.7344 201.801 44.7434 197.902ZM362.575 202.358C361.227 198.459 360.688 193.446 361.497 191.218C364.193 184.256 360.419 186.483 349.096 198.459C336.426 212.105 334.809 218.511 346.67 208.206C356.105 199.851 359.879 199.016 359.879 205.143C359.879 207.371 360.958 209.32 362.575 209.32C364.193 209.32 364.193 206.814 362.575 202.358ZM516.504 202.636C517.852 203.472 518.93 200.965 518.93 197.066C518.93 188.433 517.313 187.598 515.426 195.395C514.617 198.459 515.156 201.801 516.504 202.636ZM102.163 209.32C105.398 209.32 117.26 200.408 117.26 197.902C117.26 193.446 112.947 195.117 106.477 202.358C102.972 206.257 101.085 209.32 102.163 209.32ZM122.651 203.193C122.651 206.535 127.773 210.434 129.66 208.485C130.199 207.928 129.121 205.7 126.695 203.75C124.269 201.522 122.651 201.522 122.651 203.193ZM197.324 221.574C194.898 218.511 192.741 214.333 192.741 212.662C192.741 210.713 191.663 209.32 190.046 209.32C185.193 209.32 187.08 213.776 194.628 220.739C200.02 225.473 200.829 225.752 197.324 221.574ZM130.739 240.234L130.469 231.043C130.199 217.954 127.504 213.498 120.764 214.333C117.26 214.89 114.294 217.954 113.216 222.41C112.407 226.309 111.868 229.929 112.407 230.208C112.542 230.277 112.913 230.486 113.469 230.799C115.137 231.739 118.473 233.619 122.112 235.499L130.739 240.234ZM1475.66 218.232C1473.23 222.688 1472.7 222.688 1467.84 217.675C1458.41 207.928 1451.67 210.713 1451.67 224.081C1451.67 232.157 1451.94 232.157 1456.79 227.701C1459.49 224.916 1462.45 224.081 1462.72 225.752C1463.26 227.144 1467.03 227.701 1471.35 226.866C1476.47 225.752 1478.63 223.802 1478.63 219.346C1478.36 214.055 1478.09 214.055 1475.66 218.232ZM1253.8 220.46C1255.95 220.46 1257.03 219.068 1256.22 217.675C1255.42 216.004 1253.53 214.89 1251.91 214.89C1250.56 214.89 1249.48 216.004 1249.48 217.675C1249.48 219.068 1251.37 220.46 1253.8 220.46ZM1729.6 226.03C1731.22 226.03 1731.22 224.081 1729.33 220.46C1727.72 217.397 1725.29 214.89 1723.67 214.89C1722.05 214.89 1722.05 216.84 1723.94 220.46C1725.56 223.524 1727.98 226.03 1729.6 226.03ZM359.34 225.473C357.453 224.638 353.41 226.309 350.714 229.094C344.514 235.499 350.175 236.335 357.992 230.486C361.497 227.701 361.766 226.309 359.34 225.473ZM610.047 225.195C611.934 226.03 614.361 225.752 615.169 224.916C616.248 224.081 614.63 223.245 611.665 223.524C608.699 223.524 607.891 224.359 610.047 225.195ZM143.678 235.499C147.992 238.006 158.236 234.664 156.348 231.322C154.461 228.537 152.844 228.537 145.835 231.322C142.061 232.714 141.522 234.107 143.678 235.499ZM1243.02 231.043C1241.4 233.828 1245.98 238.841 1248.14 236.613C1248.68 236.056 1248.14 233.828 1247.06 231.879C1245.44 229.651 1244.09 229.372 1243.02 231.043ZM809.535 241.626C810.343 240.512 808.726 238.006 805.761 235.778C799.83 231.043 796.595 230.486 796.595 234.385C796.595 237.727 807.378 243.854 809.535 241.626ZM1853.61 239.398C1849.03 248.032 1850.1 250.538 1854.96 243.297C1857.38 239.677 1858.73 236.056 1857.92 235.221C1857.11 234.664 1855.23 236.335 1853.61 239.398ZM958.821 248.109C959.047 248.281 960.259 247.168 962.655 244.968C965.35 242.183 966.698 239.398 965.89 238.284C964.811 237.449 962.655 239.677 961.037 243.297C959.399 246.4 958.59 247.931 958.821 248.109ZM193.281 249.981C195.168 251.095 194.359 249.424 191.663 246.082C191.28 245.651 190.906 245.228 190.545 244.82C188.107 242.067 186.237 239.955 186.002 239.955C184.115 239.955 181.958 244.69 181.958 249.146C181.958 253.602 182.767 253.88 186.002 251.095C188.159 249.424 191.394 248.867 193.281 249.981ZM1455.98 248.31C1457.6 248.31 1460.56 246.361 1462.45 244.133C1466.76 238.841 1464.88 238.841 1458.14 244.133C1455.44 246.361 1454.36 248.31 1455.98 248.31ZM1210.4 252.209C1213.9 253.323 1214.17 252.766 1211.74 248.31C1208.24 241.905 1206.35 241.069 1206.35 246.639C1206.35 248.867 1208.24 251.095 1210.4 252.209ZM1718.01 244.69C1719.63 245.247 1722.86 245.247 1724.75 244.69C1726.37 243.854 1725.02 243.297 1721.25 243.297C1717.47 243.297 1716.12 243.854 1718.01 244.69ZM1625.55 256.387C1629.32 258.058 1631.75 257.501 1633.09 254.716C1634.44 252.488 1634.71 249.981 1633.9 249.146C1633.09 248.032 1632.28 248.867 1632.28 250.538C1632.28 252.488 1629.59 253.88 1626.35 254.159C1620.42 254.159 1620.42 254.437 1625.55 256.387ZM47.7088 259.45C50.4045 259.45 52.5612 257.779 52.5612 255.551C52.5612 253.045 49.3262 251.652 42.5868 251.652C33.1516 251.652 32.882 251.931 37.7344 255.551C40.4302 257.779 45.013 259.45 47.7088 259.45ZM262.832 258.058C264.449 258.893 265.527 258.615 265.527 256.944C265.527 255.551 264.449 253.323 262.832 252.488C261.484 251.652 260.136 251.931 260.136 253.602C260.136 254.994 261.484 257.222 262.832 258.058ZM130.739 266.413C129.121 265.577 128.312 262.514 128.582 260.286C129.93 253.323 123.46 252.766 119.956 259.45C116.99 265.02 118.608 276.16 122.112 276.16C126.695 275.882 133.704 268.362 130.739 266.413ZM800.908 267.805C810.074 271.426 811.961 269.476 807.378 260.843C803.065 252.488 800.369 252.209 796.595 259.45C794.169 264.185 794.708 265.577 800.908 267.805ZM451.266 267.805C449.918 267.805 449.11 266.691 449.918 265.577C450.457 264.463 448.84 261.957 445.875 260.007C443.179 258.058 440.753 257.779 440.753 259.172C440.753 266.691 468.519 287.021 471.754 281.73C472.563 280.337 471.484 278.945 469.328 278.945C466.902 278.945 462.588 276.439 459.623 273.375C456.658 270.312 452.884 267.805 451.266 267.805ZM242.344 270.312C244.5 272.261 248.274 273.375 250.431 272.818C253.666 272.261 253.666 270.869 250.97 265.577C248.274 260.286 247.196 259.729 242.883 263.071C238.57 266.413 238.57 266.97 242.344 270.312ZM272.267 278.388C283.05 278.388 284.128 275.882 276.31 267.805C270.38 261.678 264.179 260.564 261.484 265.02C260.675 266.413 261.214 267.805 262.832 267.805C264.719 267.805 265.258 270.033 264.179 273.097C262.832 277.553 263.91 278.388 272.267 278.388ZM1368.1 265.577C1368.1 270.59 1372.95 275.046 1375.65 272.261C1376.46 271.147 1375.11 268.362 1372.68 265.856C1368.37 261.4 1368.1 261.4 1368.1 265.577ZM1587.8 271.704C1591.85 273.375 1595.62 269.755 1592.66 266.691C1590.23 264.185 1587 264.463 1585.38 267.527C1584.57 268.919 1585.65 270.59 1587.8 271.704ZM1198.53 274.489C1194.22 279.781 1196.92 284.236 1201.23 279.781C1202.85 278.11 1203.66 275.046 1203.12 273.375C1202.58 271.147 1200.96 271.426 1198.53 274.489ZM1407.46 275.882C1411.23 280.059 1419.86 278.945 1421.48 273.932C1422.55 270.033 1415.01 269.476 1412.58 273.375C1411.5 275.046 1409.34 275.325 1407.73 274.489C1405.3 273.097 1405.3 273.375 1407.46 275.882ZM242.883 282.844C249.353 285.35 250.431 284.793 246.657 280.337C242.883 275.603 238.57 274.768 238.57 278.667C238.57 280.059 240.457 282.008 242.883 282.844ZM559.906 282.008C556.132 288.135 559.906 289.249 564.489 283.401C566.376 281.173 566.645 278.667 565.297 278.11C564.219 277.274 561.793 278.945 559.906 282.008ZM1365.67 290.085C1373.49 294.541 1376.73 290.92 1371.87 282.844C1367.83 276.717 1360.01 273.654 1360.01 278.388C1360.01 279.502 1357.32 281.73 1354.08 283.122C1351.12 284.793 1346.53 288.692 1344.65 292.034C1340.87 297.883 1340.87 298.161 1348.15 296.769C1357.59 295.098 1360.55 293.148 1358.66 289.806C1356.51 286.464 1359.2 286.743 1365.67 290.085ZM397.081 290.363C403.012 291.477 405.708 289.528 405.708 284.515C405.708 276.996 400.586 277.553 391.69 285.907C382.794 293.984 382.254 295.655 389.533 295.655C392.498 295.655 394.924 294.262 394.924 292.87C394.924 291.199 395.733 290.363 397.081 290.363ZM961.307 283.401C961.307 286.464 962.115 287.3 962.924 285.072C963.733 283.122 963.463 280.616 962.655 279.781C961.846 278.667 961.037 280.337 961.307 283.401ZM1584.84 287.3C1587.54 287.3 1588.34 285.629 1587.54 283.122C1585.11 276.996 1582.14 278.11 1575.67 287.3C1571.09 293.705 1570.82 295.655 1573.79 295.655C1575.94 295.655 1578.37 293.705 1579.45 291.477C1580.26 289.249 1582.68 287.3 1584.84 287.3ZM1853.61 283.401C1853.61 286.464 1854.42 287.3 1855.23 285.072C1856.03 283.122 1855.76 280.616 1854.96 279.781C1854.15 278.667 1853.34 280.337 1853.61 283.401ZM445.605 288.414C449.11 289.528 452.614 289.806 453.692 288.971C456.658 285.629 450.188 282.287 444.796 284.515C442.324 285.456 441.045 285.943 441.05 286.414C441.057 286.919 442.537 287.406 445.605 288.414ZM659.38 296.769C659.919 297.604 663.424 295.655 666.928 292.591C671.241 288.971 671.781 287.3 669.085 287.3C665.041 287.3 657.493 294.819 659.38 296.769ZM803.065 295.376C806.03 294.819 808.726 292.591 809.535 290.642C810.883 285.907 806.03 286.464 801.717 291.756C798.482 295.655 798.752 296.212 803.065 295.376ZM1209.05 295.655C1210.67 295.655 1211.74 294.541 1211.74 293.148C1211.74 291.477 1210.67 289.528 1209.05 288.692C1207.7 287.857 1206.35 288.971 1206.35 291.199C1206.35 293.705 1207.7 295.655 1209.05 295.655ZM1900.51 298.44C1902.67 300.389 1904.56 300.668 1904.56 298.997C1904.56 297.604 1902.67 294.819 1900.51 292.87C1898.36 290.92 1896.47 290.642 1896.47 292.313C1896.47 293.705 1898.36 296.49 1900.51 298.44ZM241.265 301.225C242.883 301.225 243.961 300.111 243.961 298.718C243.961 297.047 242.883 295.098 241.265 294.262C239.917 293.427 238.57 294.541 238.57 296.769C238.57 299.275 239.917 301.225 241.265 301.225ZM757.586 306.359C758.383 306.159 758.794 304.43 759.663 301.225C760.471 298.161 759.932 294.819 758.584 293.984C757.237 293.148 756.158 293.705 756.158 295.376C756.158 297.047 754.002 297.604 751.575 296.49C747.262 294.819 747.262 295.376 751.845 300.668C755.191 304.726 756.653 306.594 757.586 306.359ZM259.597 297.604C261.484 298.44 263.91 298.161 264.719 297.326C265.797 296.49 264.179 295.655 261.214 295.933C258.249 295.933 257.44 296.769 259.597 297.604ZM1419.05 301.225C1420.67 301.225 1422.01 299.832 1422.01 298.44C1422.01 296.769 1421.48 295.655 1420.94 295.655C1420.13 295.655 1418.78 296.769 1417.97 298.44C1417.16 299.832 1417.7 301.225 1419.05 301.225ZM263.64 308.187C268.762 310.415 276.31 308.187 276.31 304.567C276.31 301.503 271.188 301.503 264.179 304.288C259.327 305.959 259.057 306.238 263.64 308.187ZM394.385 306.795C398.968 306.795 403.012 305.402 403.012 304.01C403.012 300.389 394.924 300.389 389.533 304.01C386.568 305.959 387.646 306.795 394.385 306.795ZM467.98 306.795C464.745 306.795 462.319 305.402 462.319 304.01C462.319 302.339 460.701 301.225 458.545 301.225C456.388 301.225 453.692 302.339 452.884 304.01C452.075 305.402 453.692 306.795 456.658 306.795C459.893 306.795 462.319 308.744 462.319 310.972C462.319 313.479 465.554 316.542 469.328 317.935C478.763 321.834 480.381 321.277 474.45 317.099C471.754 314.871 470.406 311.808 471.484 310.137C472.832 307.909 471.484 306.795 467.98 306.795ZM769.907 306.795C771.255 306.795 771.794 305.402 770.985 304.01C770.176 302.339 768.828 301.225 768.02 301.225C767.481 301.225 766.941 302.339 766.941 304.01C766.941 305.402 768.289 306.795 769.907 306.795ZM1163.22 306.795C1164.84 306.795 1165.92 305.402 1165.92 304.01C1165.92 302.339 1164.84 301.225 1163.22 301.225C1161.87 301.225 1160.52 302.339 1160.52 304.01C1160.52 305.402 1161.87 306.795 1163.22 306.795ZM802.795 311.251C803.604 309.023 803.604 306.516 802.795 305.681C800.639 303.453 798.752 303.731 794.708 306.238C792.282 307.909 792.821 309.301 796.595 311.529C800.369 314.314 801.717 314.036 802.795 311.251ZM250.701 320.72C251.779 319.049 249.622 315.428 246.118 312.365C242.613 309.301 238.839 307.073 237.222 307.073C235.874 307.073 236.952 308.744 239.917 311.251C242.883 313.479 245.039 317.378 244.5 319.606C243.692 324.062 248.274 324.897 250.701 320.72ZM1686.2 313.757C1689.97 312.922 1694.29 311.808 1696.17 311.251C1698.06 310.972 1700.49 309.858 1701.3 308.744C1705.07 305.124 1692.94 307.073 1686.2 311.251L1679.46 315.428L1686.2 313.757ZM1166.19 318.77C1168.88 317.935 1171.31 316.264 1171.31 314.871C1171.31 310.137 1166.72 310.137 1164.03 315.15C1161.33 319.327 1161.6 319.884 1166.19 318.77ZM389.533 321.834C393.307 320.998 396.812 319.606 397.351 319.049C397.62 318.77 397.62 317.099 397.351 315.428C396.812 314.036 393.307 315.15 389.533 318.213L382.794 323.783L389.533 321.834ZM547.775 329.632C550.74 327.961 554.514 324.619 556.401 322.391C558.288 320.163 558.558 317.656 557.21 316.821C554.784 315.428 548.853 320.72 544.54 328.518C542.923 331.581 543.731 331.86 547.775 329.632ZM717.878 331.86C725.966 331.86 727.044 328.518 720.574 321.555C713.295 313.479 711.948 313.479 707.904 322.669C705.208 328.796 705.478 330.746 708.713 334.366C711.678 337.151 713.026 337.43 713.026 335.202C713.026 333.252 715.182 331.86 717.878 331.86ZM745.375 322.669C745.375 326.847 750.497 327.404 756.158 323.505C759.663 320.998 759.663 320.441 756.158 317.935C749.688 313.479 745.375 315.428 745.375 322.669ZM418.108 325.733C416.221 329.075 421.343 333.252 423.769 330.746C424.848 329.632 424.308 327.682 422.691 326.011C420.804 324.062 419.186 324.062 418.108 325.733ZM383.063 336.316C381.176 341.329 392.229 341.607 398.699 336.594C402.742 333.531 402.742 332.417 399.777 329.91C395.733 326.568 385.22 330.467 383.063 336.316ZM1175.62 336.594C1176.97 335.202 1175.89 332.417 1172.93 330.189C1166.72 325.733 1163.22 325.176 1163.22 329.075C1163.22 330.467 1164.84 331.86 1166.99 331.86C1169.15 331.86 1171.31 333.531 1172.12 335.202C1172.66 337.151 1174.27 337.708 1175.62 336.594ZM1881.64 334.088C1885.42 332.417 1888.38 329.91 1888.38 328.518C1888.38 327.634 1888.41 327.03 1888.14 326.823C1887.55 326.378 1885.57 327.766 1878.95 332.138C1869.78 337.987 1871.13 339.101 1881.64 334.088ZM1813.71 337.708C1819.91 342.443 1821.26 342.721 1818.56 339.379C1814.79 334.366 1804.81 327.682 1804.81 330.189C1804.81 331.024 1808.86 334.366 1813.71 337.708ZM770.176 339.101C772.872 341.607 780.42 338.265 780.42 334.645C780.42 331.303 777.724 331.024 772.333 334.645C770.176 336.037 769.368 337.987 770.176 339.101ZM1899.44 336.316C1899.44 339.379 1900.24 340.215 1901.05 337.987C1901.86 336.037 1901.59 333.531 1900.78 332.695C1899.98 331.581 1899.17 333.252 1899.44 336.316ZM920.87 340.215C922.218 340.215 922.757 338.822 921.948 337.43C921.14 335.759 919.792 334.645 918.983 334.645C918.444 334.645 917.905 335.759 917.905 337.43C917.905 338.822 919.253 340.215 920.87 340.215ZM1098.52 337.43C1103.91 341.05 1107.42 341.05 1105.26 337.43C1104.45 335.759 1101.49 334.645 1099.06 334.645C1095.02 334.645 1095.02 335.202 1098.52 337.43Z" fill="#4E2705"/>
</g>
<defs>
<clipPath id="clip0_729_3090">
<rect width="1920" height="281" fill="white"/>
</clipPath>
</defs>
</svg>
