<svg width="41" height="38" viewBox="0 0 41 38" fill="none" xmlns="http://www.w3.org/2000/svg">
<path d="M40.1531 4.75785H31.8581C31.8756 4.39239 31.919 4.00073 31.9624 3.62179C32.1105 2.35516 32.267 1.04109 31.3009 0.362078C30.6655 -0.0861536 29.7035 -0.116758 28.276 0.262118C26.9966 0.601646 25.3121 1.28037 23.1362 2.32489C22.4399 1.60241 21.4651 1.14981 20.3856 1.14981C19.3064 1.14981 18.3313 1.60241 17.635 2.32489C15.4588 1.28037 13.7702 0.601287 12.4952 0.262118C11.0634 -0.116459 10.1016 -0.0861536 9.47033 0.362078C8.50423 1.04551 8.66068 2.35524 8.80876 3.62179C8.85219 4.00037 8.90028 4.39205 8.9131 4.75785H0.618145C0.278617 4.75785 0 5.03647 0 5.376V16.9089C0 17.2485 0.278617 17.5271 0.618145 17.5271H1.41026V37.3819C1.41026 37.7214 1.68888 38 2.02841 38H38.7387C39.0782 38 39.3568 37.7214 39.3568 37.3819L39.3562 17.5226H40.1484C40.4879 17.5226 40.7665 17.244 40.7665 16.9045V5.376C40.7709 5.03647 40.4923 4.75785 40.1527 4.75785H40.1531ZM30.5913 1.3719C30.9567 1.62866 30.8436 2.56884 30.7393 3.47839C30.6784 3.98316 30.6175 4.50105 30.6175 5.01047C30.6175 5.53273 30.7524 6.10714 30.883 6.66439C31.0526 7.39561 31.2659 8.30518 30.9745 8.54885C30.6787 8.79686 29.3903 9.08859 23.7803 6.71654C24.0502 6.19428 24.2026 5.59802 24.2026 4.97138C24.2026 4.39696 24.0721 3.84845 23.8456 3.35678C28.7849 1.00199 30.1908 1.08884 30.5912 1.37183L30.5913 1.3719ZM30.5519 18.9936L28.9155 19.2417C28.6762 19.2763 28.4803 19.4506 28.4151 19.6855L27.9406 21.3697L21.7256 8.54007C21.8344 8.50102 21.9434 8.45293 22.0477 8.40077L30.5519 18.9936ZM18.7228 8.40448C18.8271 8.45665 18.9361 8.50037 19.0448 8.54379L12.8346 21.3652L12.3601 19.681C12.2948 19.4461 12.099 19.2718 11.8597 19.2372L10.2232 18.9891L18.7228 8.40448ZM17.6348 14.2886V16.2861H16.6687L17.6348 14.2886ZM18.8665 11.7382L20.2983 8.77864H20.381H20.4638L21.8956 11.7382V36.7588H18.862V11.7382H18.8665ZM23.1361 14.2886L24.1022 16.2861H23.1361V14.2886ZM20.3855 2.38561C21.8086 2.38561 22.9662 3.54323 22.9662 4.96631C22.9662 6.38939 21.8086 7.54701 20.3855 7.54701C18.9624 7.54701 17.8048 6.38939 17.8048 4.96631C17.8048 3.54353 18.9624 2.38561 20.3855 2.38561V2.38561ZM9.89257 6.65954C10.0231 6.10261 10.1581 5.52788 10.1581 5.00563C10.1581 4.49648 10.0972 3.97857 10.0363 3.47354C9.92755 2.56399 9.81855 1.62378 10.1843 1.36705C10.5804 1.08844 11.9904 1.00159 16.9302 3.35178C16.6997 3.84344 16.5732 4.38757 16.5732 4.96638C16.5732 5.59297 16.7257 6.18929 16.9955 6.71154C11.3857 9.08357 10.0975 8.78745 9.80134 8.54385C9.50524 8.3005 9.71828 7.39093 9.89257 6.65969L9.89257 6.65954ZM1.23577 5.9936H8.7742C8.74797 6.1198 8.71766 6.25036 8.68705 6.37655C8.42592 7.49075 8.13012 8.7573 9.00472 9.48824C9.36174 9.78405 9.84899 9.9321 10.5062 9.9321C10.9285 9.9321 11.4202 9.87119 11.9858 9.74937C13.3612 9.45764 15.2109 8.80916 17.6391 7.77344L10.8064 16.2818L1.23635 16.2821L1.23577 5.9936ZM2.65042 17.5228H9.81401L8.58238 19.0549C8.44307 19.2289 8.40839 19.4597 8.48649 19.6687C8.56489 19.8776 8.75199 20.0213 8.9697 20.056L11.2764 20.4043L12.0817 23.268C12.1513 23.516 12.3647 23.6943 12.6214 23.7162C12.6389 23.7162 12.6561 23.7206 12.678 23.7206C12.9129 23.7206 13.1306 23.5856 13.2349 23.3723L16.0683 17.5275H17.6351V36.7637L2.65075 36.7635L2.65042 17.5228ZM38.12 36.7636H23.1356V17.5273H24.7024L27.5358 23.3721C27.6401 23.5855 27.8578 23.7204 28.0927 23.7204C28.1102 23.7204 28.1274 23.7204 28.1493 23.716C28.406 23.6942 28.6194 23.5158 28.689 23.2678L29.4943 20.4041L31.801 20.0558C32.0187 20.0211 32.2058 19.8775 32.2842 19.6685C32.3626 19.4595 32.3276 19.229 32.1883 19.0547L30.9567 17.5226H38.1203L38.12 36.7636ZM39.5346 16.291H29.9639L23.1311 7.78271C25.5596 8.8185 27.4134 9.46259 28.7844 9.75864C29.35 9.88046 29.842 9.94137 30.264 9.94137C30.9212 9.94137 31.4085 9.79331 31.7655 9.49751C32.6404 8.76629 32.3443 7.50002 32.0832 6.38582C32.0526 6.25963 32.0222 6.12906 31.996 6.00287H39.5344L39.5346 16.291Z" fill="#785436"/>
</svg>
