<svg width="40" height="40" viewBox="0 0 40 40" fill="none" xmlns="http://www.w3.org/2000/svg">
<mask id="path-1-outside-1_300_723" maskUnits="userSpaceOnUse" x="0" y="0" width="40" height="40" fill="black">
<rect fill="white" width="40" height="40"/>
<path d="M39.2161 9.0551C38.717 7.16147 37.7064 5.4418 36.295 4.08478C33.1885 0.987383 29.0342 0.0601518 27.0077 2.04916C25.3709 3.44021 22.7327 5.93924 19.5474 9.00401C18.7023 7.55765 17.6027 6.27597 16.3019 5.22065C15.7909 4.79794 15.1457 4.57187 14.4826 4.58287C13.8193 4.59386 13.1822 4.84161 12.6854 5.28114C10.8309 6.92704 10.316 8.79574 11.1786 10.5529C11.9622 12.1525 11.9017 14.6377 11.6191 16.7752C9.39816 18.9589 7.10769 21.2216 4.83561 23.4658L1.70137 26.5629C1.23758 27.0267 0.736962 27.954 1.15899 29.5258C2.08622 33.0264 6.97316 37.8948 10.4694 38.8362C10.8413 38.938 11.2243 38.9924 11.6097 38.9982C12.285 39.0241 12.9419 38.7728 13.4274 38.3028C15.8753 35.9196 37.1807 15.1804 38.3812 13.344C39.3133 12.3423 39.6239 10.8216 39.2161 9.0551ZM14.4659 35.9753C14.8553 34.2412 15.7085 31.3388 17.2849 29.5305C17.454 29.3371 17.4343 29.0434 17.2409 28.8743C17.0475 28.7055 16.7538 28.7252 16.585 28.9183C14.2667 31.5519 13.4413 36.1885 13.2977 37.1157L12.7595 37.6491C12.2958 38.1128 11.6189 38.1963 10.6916 37.946C7.50168 37.0927 2.89293 32.484 2.03939 29.2938C1.78906 28.3666 1.89093 27.6708 2.33143 27.2303L5.46567 24.1378L11.3313 18.3375C11.1851 19.2026 10.9664 20.0542 10.6776 20.8828C10.5379 21.0675 10.5557 21.3265 10.7194 21.4902C10.9001 21.67 11.1922 21.67 11.373 21.4902C11.8368 21.0264 13.5939 14.1598 12.1333 10.5106C13.1673 10.3855 14.9477 9.66229 16.1858 6.38407C17.9106 7.9326 20.1639 10.6219 19.4313 13.6821C19.3737 13.9383 19.5345 14.1925 19.7906 14.2504C20.0468 14.3079 20.301 14.1469 20.3586 13.8907C20.6568 12.5511 20.5203 11.151 19.9692 9.89416C21.4158 8.50311 22.7513 7.20942 23.9427 6.09201C23.6319 7.64054 23.0155 10.1351 22.051 11.4566C21.9688 11.5549 21.9313 11.6827 21.9468 11.8098C21.9624 11.9369 22.0296 12.0517 22.1331 12.1274C22.2363 12.2031 22.366 12.2328 22.4918 12.2092C22.6176 12.1859 22.7282 12.1115 22.7974 12.0038C24.2441 10.0193 24.9394 5.92056 25.074 5.04897L25.9411 4.23298C25.8434 4.96326 25.8829 5.70517 26.0569 6.42127C26.5575 8.31746 27.5715 10.039 28.9871 11.3965C30.3436 12.8091 32.0635 13.8199 33.9578 14.3173C34.4374 14.434 34.929 14.4948 35.4228 14.4984C35.6712 14.4971 35.9193 14.477 36.1648 14.4379C32.4693 18.3235 22.3249 28.3159 14.4659 35.9753ZM15.4258 5.7681C14.2017 9.26879 12.4213 9.6071 11.7676 9.6071C11.429 8.39687 11.9299 7.18209 13.2699 5.98122C13.5616 5.72442 13.9265 5.5653 14.3132 5.52713C14.7 5.48897 15.0894 5.57307 15.4258 5.7681ZM37.6441 12.7508C36.8698 13.5066 35.6363 13.7569 34.1618 13.4183C32.4353 12.9519 30.87 12.0198 29.6365 10.7246C28.349 9.48841 27.4236 7.9234 26.9615 6.19926C26.6228 4.72475 26.8596 3.4867 27.629 2.71248C28.2416 2.15619 29.0518 1.86895 29.8777 1.91524C31.6258 1.91524 33.8141 2.92593 35.6363 4.7481C36.9274 5.9816 37.853 7.5476 38.3116 9.2734C38.6547 10.7246 38.4184 11.9765 37.6441 12.7508Z"/>
<path d="M37.1015 8.86964C36.6503 7.57984 35.9023 6.41391 34.9177 5.46631C32.6366 3.1852 29.85 2.37828 28.5703 3.67652C27.2905 4.97475 28.0602 7.7384 30.3785 10.0194C31.3255 11.0049 32.4915 11.753 33.7819 12.2032C34.1991 12.3426 34.6354 12.416 35.0755 12.4212C35.6849 12.447 36.2786 12.2245 36.7214 11.8044C37.3334 11.1553 37.4957 10.1122 37.1015 8.86964ZM36.0491 11.1555C35.6597 11.5404 34.9271 11.6193 34.0416 11.327C32.8935 10.9175 31.8565 10.2461 31.0137 9.36569C28.9875 7.32552 28.4452 5.11371 29.2287 4.33038C29.5066 4.08587 29.8704 3.96265 30.2394 3.98723C31.2873 3.98723 32.8174 4.67354 34.2593 6.12022C35.1393 6.96076 35.8098 7.99605 36.216 9.14294C36.4941 10.0333 36.434 10.7614 36.0491 11.1507L36.0491 11.1555Z"/>
<path d="M35.015 8.48463C34.6712 7.8213 34.222 7.21844 33.6845 6.69939C33.1667 6.1638 32.5654 5.71586 31.904 5.37333C30.9768 4.93283 30.513 5.12753 30.272 5.37333C30.0311 5.61913 29.8409 6.09197 30.272 7.00532C30.6171 7.6651 31.0644 8.26638 31.5981 8.78609C32.4603 9.64832 33.5548 10.3718 34.3475 10.3718C34.5962 10.3815 34.8381 10.2874 35.015 10.1121C35.2515 9.87566 35.4461 9.39342 35.015 8.48463ZM34.352 9.44457C34.1062 9.47238 33.2808 9.13861 32.2656 8.12306C31.25 7.10749 30.9256 6.2686 30.9441 6.03669C31.1899 6.03669 32.0153 6.34265 33.0305 7.35819C34.046 8.37344 34.3565 9.1985 34.3426 9.44424L34.352 9.44457Z"/>
<path d="M28.8061 16.0381C28.6887 15.9987 28.5603 16.0077 28.4497 16.0637C28.3391 16.1193 28.2557 16.217 28.2175 16.335C27.6396 18.1148 26.7 19.7561 25.4578 21.1556C24.2155 22.555 22.697 23.6826 20.9981 24.4675C21.4619 23.5031 21.7491 22.1492 20.9981 21.2915C20.5854 20.8277 19.7232 20.415 17.9612 21.0735C13.0604 22.9002 9.92129 32.2849 9.79155 32.6649C9.71263 32.9081 9.84524 33.1695 10.0884 33.249C10.136 33.2558 10.1845 33.2558 10.232 33.249C10.4413 33.2594 10.6311 33.1284 10.6958 32.9292C10.7282 32.8363 13.8256 23.5724 18.3092 21.8991C19.2969 21.5281 20.0155 21.5188 20.326 21.8668C20.6368 22.2144 20.6041 23.1928 20.1452 24.0738C19.9511 24.4748 19.6669 24.8251 19.3153 25.0984C19.0776 25.1773 18.8363 25.2436 18.5918 25.2976C18.3357 25.3092 18.1374 25.5259 18.1491 25.7821C18.1607 26.0382 18.3774 26.2365 18.6336 26.2249C19.0116 26.2633 19.3913 26.1754 19.7138 25.9745C21.9018 25.2617 23.8908 24.0441 25.5212 22.4204C27.1513 20.7966 28.3766 18.812 29.0982 16.6273C29.138 16.5105 29.1296 16.3825 29.0746 16.2722C29.0199 16.1616 28.9232 16.0772 28.8061 16.0381Z"/>
<path d="M16.5242 20.2797C16.6361 20.2244 16.7208 20.1261 16.7593 20.0074C16.7978 19.8887 16.7868 19.7594 16.7286 19.6488C16.6707 19.5385 16.5704 19.456 16.4508 19.4201C16.3311 19.3845 16.2021 19.3984 16.0931 19.4592C11.7534 21.7775 7.99753 25.4219 4.92804 30.3502C4.83522 30.4987 4.77506 30.6005 4.73786 30.6516C4.60946 30.7862 4.57421 30.9847 4.64796 31.1555C4.7217 31.3263 4.8902 31.4362 5.07649 31.4353C5.17513 31.4343 5.27087 31.4016 5.34978 31.3425C5.44714 31.2729 5.48886 31.2034 5.71622 30.8418C8.69754 26.0568 12.3322 22.5003 16.5242 20.2797Z"/>
<path d="M21.9026 20.0993C21.9456 20.1048 21.9893 20.1048 22.0323 20.0993C22.2315 20.0993 22.5886 19.9418 23.5579 18.9586C24.1976 18.3095 27.3646 14.9433 26.7245 12.4675C26.6605 12.2192 26.4072 12.0697 26.1589 12.1338C25.9105 12.1978 25.761 12.4511 25.8251 12.6994C26.4047 14.9159 22.5796 18.7733 21.9211 19.1582C21.7102 19.2064 21.5605 19.394 21.5605 19.6103C21.5605 19.8267 21.7102 20.0143 21.9211 20.0625L21.9026 20.0993Z"/>
</mask>
<path d="M39.2161 9.0551C38.717 7.16147 37.7064 5.4418 36.295 4.08478C33.1885 0.987383 29.0342 0.0601518 27.0077 2.04916C25.3709 3.44021 22.7327 5.93924 19.5474 9.00401C18.7023 7.55765 17.6027 6.27597 16.3019 5.22065C15.7909 4.79794 15.1457 4.57187 14.4826 4.58287C13.8193 4.59386 13.1822 4.84161 12.6854 5.28114C10.8309 6.92704 10.316 8.79574 11.1786 10.5529C11.9622 12.1525 11.9017 14.6377 11.6191 16.7752C9.39816 18.9589 7.10769 21.2216 4.83561 23.4658L1.70137 26.5629C1.23758 27.0267 0.736962 27.954 1.15899 29.5258C2.08622 33.0264 6.97316 37.8948 10.4694 38.8362C10.8413 38.938 11.2243 38.9924 11.6097 38.9982C12.285 39.0241 12.9419 38.7728 13.4274 38.3028C15.8753 35.9196 37.1807 15.1804 38.3812 13.344C39.3133 12.3423 39.6239 10.8216 39.2161 9.0551ZM14.4659 35.9753C14.8553 34.2412 15.7085 31.3388 17.2849 29.5305C17.454 29.3371 17.4343 29.0434 17.2409 28.8743C17.0475 28.7055 16.7538 28.7252 16.585 28.9183C14.2667 31.5519 13.4413 36.1885 13.2977 37.1157L12.7595 37.6491C12.2958 38.1128 11.6189 38.1963 10.6916 37.946C7.50168 37.0927 2.89293 32.484 2.03939 29.2938C1.78906 28.3666 1.89093 27.6708 2.33143 27.2303L5.46567 24.1378L11.3313 18.3375C11.1851 19.2026 10.9664 20.0542 10.6776 20.8828C10.5379 21.0675 10.5557 21.3265 10.7194 21.4902C10.9001 21.67 11.1922 21.67 11.373 21.4902C11.8368 21.0264 13.5939 14.1598 12.1333 10.5106C13.1673 10.3855 14.9477 9.66229 16.1858 6.38407C17.9106 7.9326 20.1639 10.6219 19.4313 13.6821C19.3737 13.9383 19.5345 14.1925 19.7906 14.2504C20.0468 14.3079 20.301 14.1469 20.3586 13.8907C20.6568 12.5511 20.5203 11.151 19.9692 9.89416C21.4158 8.50311 22.7513 7.20942 23.9427 6.09201C23.6319 7.64054 23.0155 10.1351 22.051 11.4566C21.9688 11.5549 21.9313 11.6827 21.9468 11.8098C21.9624 11.9369 22.0296 12.0517 22.1331 12.1274C22.2363 12.2031 22.366 12.2328 22.4918 12.2092C22.6176 12.1859 22.7282 12.1115 22.7974 12.0038C24.2441 10.0193 24.9394 5.92056 25.074 5.04897L25.9411 4.23298C25.8434 4.96326 25.8829 5.70517 26.0569 6.42127C26.5575 8.31746 27.5715 10.039 28.9871 11.3965C30.3436 12.8091 32.0635 13.8199 33.9578 14.3173C34.4374 14.434 34.929 14.4948 35.4228 14.4984C35.6712 14.4971 35.9193 14.477 36.1648 14.4379C32.4693 18.3235 22.3249 28.3159 14.4659 35.9753ZM15.4258 5.7681C14.2017 9.26879 12.4213 9.6071 11.7676 9.6071C11.429 8.39687 11.9299 7.18209 13.2699 5.98122C13.5616 5.72442 13.9265 5.5653 14.3132 5.52713C14.7 5.48897 15.0894 5.57307 15.4258 5.7681ZM37.6441 12.7508C36.8698 13.5066 35.6363 13.7569 34.1618 13.4183C32.4353 12.9519 30.87 12.0198 29.6365 10.7246C28.349 9.48841 27.4236 7.9234 26.9615 6.19926C26.6228 4.72475 26.8596 3.4867 27.629 2.71248C28.2416 2.15619 29.0518 1.86895 29.8777 1.91524C31.6258 1.91524 33.8141 2.92593 35.6363 4.7481C36.9274 5.9816 37.853 7.5476 38.3116 9.2734C38.6547 10.7246 38.4184 11.9765 37.6441 12.7508Z" fill="#785436"/>
<path d="M37.1015 8.86964C36.6503 7.57984 35.9023 6.41391 34.9177 5.46631C32.6366 3.1852 29.85 2.37828 28.5703 3.67652C27.2905 4.97475 28.0602 7.7384 30.3785 10.0194C31.3255 11.0049 32.4915 11.753 33.7819 12.2032C34.1991 12.3426 34.6354 12.416 35.0755 12.4212C35.6849 12.447 36.2786 12.2245 36.7214 11.8044C37.3334 11.1553 37.4957 10.1122 37.1015 8.86964ZM36.0491 11.1555C35.6597 11.5404 34.9271 11.6193 34.0416 11.327C32.8935 10.9175 31.8565 10.2461 31.0137 9.36569C28.9875 7.32552 28.4452 5.11371 29.2287 4.33038C29.5066 4.08587 29.8704 3.96265 30.2394 3.98723C31.2873 3.98723 32.8174 4.67354 34.2593 6.12022C35.1393 6.96076 35.8098 7.99605 36.216 9.14294C36.4941 10.0333 36.434 10.7614 36.0491 11.1507L36.0491 11.1555Z" fill="#785436"/>
<path d="M35.015 8.48463C34.6712 7.8213 34.222 7.21844 33.6845 6.69939C33.1667 6.1638 32.5654 5.71586 31.904 5.37333C30.9768 4.93283 30.513 5.12753 30.272 5.37333C30.0311 5.61913 29.8409 6.09197 30.272 7.00532C30.6171 7.6651 31.0644 8.26638 31.5981 8.78609C32.4603 9.64832 33.5548 10.3718 34.3475 10.3718C34.5962 10.3815 34.8381 10.2874 35.015 10.1121C35.2515 9.87566 35.4461 9.39342 35.015 8.48463ZM34.352 9.44457C34.1062 9.47238 33.2808 9.13861 32.2656 8.12306C31.25 7.10749 30.9256 6.2686 30.9441 6.03669C31.1899 6.03669 32.0153 6.34265 33.0305 7.35819C34.046 8.37344 34.3565 9.1985 34.3426 9.44424L34.352 9.44457Z" fill="#785436"/>
<path d="M28.8061 16.0381C28.6887 15.9987 28.5603 16.0077 28.4497 16.0637C28.3391 16.1193 28.2557 16.217 28.2175 16.335C27.6396 18.1148 26.7 19.7561 25.4578 21.1556C24.2155 22.555 22.697 23.6826 20.9981 24.4675C21.4619 23.5031 21.7491 22.1492 20.9981 21.2915C20.5854 20.8277 19.7232 20.415 17.9612 21.0735C13.0604 22.9002 9.92129 32.2849 9.79155 32.6649C9.71263 32.9081 9.84524 33.1695 10.0884 33.249C10.136 33.2558 10.1845 33.2558 10.232 33.249C10.4413 33.2594 10.6311 33.1284 10.6958 32.9292C10.7282 32.8363 13.8256 23.5724 18.3092 21.8991C19.2969 21.5281 20.0155 21.5188 20.326 21.8668C20.6368 22.2144 20.6041 23.1928 20.1452 24.0738C19.9511 24.4748 19.6669 24.8251 19.3153 25.0984C19.0776 25.1773 18.8363 25.2436 18.5918 25.2976C18.3357 25.3092 18.1374 25.5259 18.1491 25.7821C18.1607 26.0382 18.3774 26.2365 18.6336 26.2249C19.0116 26.2633 19.3913 26.1754 19.7138 25.9745C21.9018 25.2617 23.8908 24.0441 25.5212 22.4204C27.1513 20.7966 28.3766 18.812 29.0982 16.6273C29.138 16.5105 29.1296 16.3825 29.0746 16.2722C29.0199 16.1616 28.9232 16.0772 28.8061 16.0381Z" fill="#785436"/>
<path d="M16.5242 20.2797C16.6361 20.2244 16.7208 20.1261 16.7593 20.0074C16.7978 19.8887 16.7868 19.7594 16.7286 19.6488C16.6707 19.5385 16.5704 19.456 16.4508 19.4201C16.3311 19.3845 16.2021 19.3984 16.0931 19.4592C11.7534 21.7775 7.99753 25.4219 4.92804 30.3502C4.83522 30.4987 4.77506 30.6005 4.73786 30.6516C4.60946 30.7862 4.57421 30.9847 4.64796 31.1555C4.7217 31.3263 4.8902 31.4362 5.07649 31.4353C5.17513 31.4343 5.27087 31.4016 5.34978 31.3425C5.44714 31.2729 5.48886 31.2034 5.71622 30.8418C8.69754 26.0568 12.3322 22.5003 16.5242 20.2797Z" fill="#785436"/>
<path d="M21.9026 20.0993C21.9456 20.1048 21.9893 20.1048 22.0323 20.0993C22.2315 20.0993 22.5886 19.9418 23.5579 18.9586C24.1976 18.3095 27.3646 14.9433 26.7245 12.4675C26.6605 12.2192 26.4072 12.0697 26.1589 12.1338C25.9105 12.1978 25.761 12.4511 25.8251 12.6994C26.4047 14.9159 22.5796 18.7733 21.9211 19.1582C21.7102 19.2064 21.5605 19.394 21.5605 19.6103C21.5605 19.8267 21.7102 20.0143 21.9211 20.0625L21.9026 20.0993Z" fill="#785436"/>
<path d="M39.2161 9.0551C38.717 7.16147 37.7064 5.4418 36.295 4.08478C33.1885 0.987383 29.0342 0.0601518 27.0077 2.04916C25.3709 3.44021 22.7327 5.93924 19.5474 9.00401C18.7023 7.55765 17.6027 6.27597 16.3019 5.22065C15.7909 4.79794 15.1457 4.57187 14.4826 4.58287C13.8193 4.59386 13.1822 4.84161 12.6854 5.28114C10.8309 6.92704 10.316 8.79574 11.1786 10.5529C11.9622 12.1525 11.9017 14.6377 11.6191 16.7752C9.39816 18.9589 7.10769 21.2216 4.83561 23.4658L1.70137 26.5629C1.23758 27.0267 0.736962 27.954 1.15899 29.5258C2.08622 33.0264 6.97316 37.8948 10.4694 38.8362C10.8413 38.938 11.2243 38.9924 11.6097 38.9982C12.285 39.0241 12.9419 38.7728 13.4274 38.3028C15.8753 35.9196 37.1807 15.1804 38.3812 13.344C39.3133 12.3423 39.6239 10.8216 39.2161 9.0551ZM14.4659 35.9753C14.8553 34.2412 15.7085 31.3388 17.2849 29.5305C17.454 29.3371 17.4343 29.0434 17.2409 28.8743C17.0475 28.7055 16.7538 28.7252 16.585 28.9183C14.2667 31.5519 13.4413 36.1885 13.2977 37.1157L12.7595 37.6491C12.2958 38.1128 11.6189 38.1963 10.6916 37.946C7.50168 37.0927 2.89293 32.484 2.03939 29.2938C1.78906 28.3666 1.89093 27.6708 2.33143 27.2303L5.46567 24.1378L11.3313 18.3375C11.1851 19.2026 10.9664 20.0542 10.6776 20.8828C10.5379 21.0675 10.5557 21.3265 10.7194 21.4902C10.9001 21.67 11.1922 21.67 11.373 21.4902C11.8368 21.0264 13.5939 14.1598 12.1333 10.5106C13.1673 10.3855 14.9477 9.66229 16.1858 6.38407C17.9106 7.9326 20.1639 10.6219 19.4313 13.6821C19.3737 13.9383 19.5345 14.1925 19.7906 14.2504C20.0468 14.3079 20.301 14.1469 20.3586 13.8907C20.6568 12.5511 20.5203 11.151 19.9692 9.89416C21.4158 8.50311 22.7513 7.20942 23.9427 6.09201C23.6319 7.64054 23.0155 10.1351 22.051 11.4566C21.9688 11.5549 21.9313 11.6827 21.9468 11.8098C21.9624 11.9369 22.0296 12.0517 22.1331 12.1274C22.2363 12.2031 22.366 12.2328 22.4918 12.2092C22.6176 12.1859 22.7282 12.1115 22.7974 12.0038C24.2441 10.0193 24.9394 5.92056 25.074 5.04897L25.9411 4.23298C25.8434 4.96326 25.8829 5.70517 26.0569 6.42127C26.5575 8.31746 27.5715 10.039 28.9871 11.3965C30.3436 12.8091 32.0635 13.8199 33.9578 14.3173C34.4374 14.434 34.929 14.4948 35.4228 14.4984C35.6712 14.4971 35.9193 14.477 36.1648 14.4379C32.4693 18.3235 22.3249 28.3159 14.4659 35.9753ZM15.4258 5.7681C14.2017 9.26879 12.4213 9.6071 11.7676 9.6071C11.429 8.39687 11.9299 7.18209 13.2699 5.98122C13.5616 5.72442 13.9265 5.5653 14.3132 5.52713C14.7 5.48897 15.0894 5.57307 15.4258 5.7681ZM37.6441 12.7508C36.8698 13.5066 35.6363 13.7569 34.1618 13.4183C32.4353 12.9519 30.87 12.0198 29.6365 10.7246C28.349 9.48841 27.4236 7.9234 26.9615 6.19926C26.6228 4.72475 26.8596 3.4867 27.629 2.71248C28.2416 2.15619 29.0518 1.86895 29.8777 1.91524C31.6258 1.91524 33.8141 2.92593 35.6363 4.7481C36.9274 5.9816 37.853 7.5476 38.3116 9.2734C38.6547 10.7246 38.4184 11.9765 37.6441 12.7508Z" stroke="#785436" stroke-width="0.4" mask="url(#path-1-outside-1_300_723)"/>
<path d="M37.1015 8.86964C36.6503 7.57984 35.9023 6.41391 34.9177 5.46631C32.6366 3.1852 29.85 2.37828 28.5703 3.67652C27.2905 4.97475 28.0602 7.7384 30.3785 10.0194C31.3255 11.0049 32.4915 11.753 33.7819 12.2032C34.1991 12.3426 34.6354 12.416 35.0755 12.4212C35.6849 12.447 36.2786 12.2245 36.7214 11.8044C37.3334 11.1553 37.4957 10.1122 37.1015 8.86964ZM36.0491 11.1555C35.6597 11.5404 34.9271 11.6193 34.0416 11.327C32.8935 10.9175 31.8565 10.2461 31.0137 9.36569C28.9875 7.32552 28.4452 5.11371 29.2287 4.33038C29.5066 4.08587 29.8704 3.96265 30.2394 3.98723C31.2873 3.98723 32.8174 4.67354 34.2593 6.12022C35.1393 6.96076 35.8098 7.99605 36.216 9.14294C36.4941 10.0333 36.434 10.7614 36.0491 11.1507L36.0491 11.1555Z" stroke="#785436" stroke-width="0.4" mask="url(#path-1-outside-1_300_723)"/>
<path d="M35.015 8.48463C34.6712 7.8213 34.222 7.21844 33.6845 6.69939C33.1667 6.1638 32.5654 5.71586 31.904 5.37333C30.9768 4.93283 30.513 5.12753 30.272 5.37333C30.0311 5.61913 29.8409 6.09197 30.272 7.00532C30.6171 7.6651 31.0644 8.26638 31.5981 8.78609C32.4603 9.64832 33.5548 10.3718 34.3475 10.3718C34.5962 10.3815 34.8381 10.2874 35.015 10.1121C35.2515 9.87566 35.4461 9.39342 35.015 8.48463ZM34.352 9.44457C34.1062 9.47238 33.2808 9.13861 32.2656 8.12306C31.25 7.10749 30.9256 6.2686 30.9441 6.03669C31.1899 6.03669 32.0153 6.34265 33.0305 7.35819C34.046 8.37344 34.3565 9.1985 34.3426 9.44424L34.352 9.44457Z" stroke="#785436" stroke-width="0.4" mask="url(#path-1-outside-1_300_723)"/>
<path d="M28.8061 16.0381C28.6887 15.9987 28.5603 16.0077 28.4497 16.0637C28.3391 16.1193 28.2557 16.217 28.2175 16.335C27.6396 18.1148 26.7 19.7561 25.4578 21.1556C24.2155 22.555 22.697 23.6826 20.9981 24.4675C21.4619 23.5031 21.7491 22.1492 20.9981 21.2915C20.5854 20.8277 19.7232 20.415 17.9612 21.0735C13.0604 22.9002 9.92129 32.2849 9.79155 32.6649C9.71263 32.9081 9.84524 33.1695 10.0884 33.249C10.136 33.2558 10.1845 33.2558 10.232 33.249C10.4413 33.2594 10.6311 33.1284 10.6958 32.9292C10.7282 32.8363 13.8256 23.5724 18.3092 21.8991C19.2969 21.5281 20.0155 21.5188 20.326 21.8668C20.6368 22.2144 20.6041 23.1928 20.1452 24.0738C19.9511 24.4748 19.6669 24.8251 19.3153 25.0984C19.0776 25.1773 18.8363 25.2436 18.5918 25.2976C18.3357 25.3092 18.1374 25.5259 18.1491 25.7821C18.1607 26.0382 18.3774 26.2365 18.6336 26.2249C19.0116 26.2633 19.3913 26.1754 19.7138 25.9745C21.9018 25.2617 23.8908 24.0441 25.5212 22.4204C27.1513 20.7966 28.3766 18.812 29.0982 16.6273C29.138 16.5105 29.1296 16.3825 29.0746 16.2722C29.0199 16.1616 28.9232 16.0772 28.8061 16.0381Z" stroke="#785436" stroke-width="0.4" mask="url(#path-1-outside-1_300_723)"/>
<path d="M16.5242 20.2797C16.6361 20.2244 16.7208 20.1261 16.7593 20.0074C16.7978 19.8887 16.7868 19.7594 16.7286 19.6488C16.6707 19.5385 16.5704 19.456 16.4508 19.4201C16.3311 19.3845 16.2021 19.3984 16.0931 19.4592C11.7534 21.7775 7.99753 25.4219 4.92804 30.3502C4.83522 30.4987 4.77506 30.6005 4.73786 30.6516C4.60946 30.7862 4.57421 30.9847 4.64796 31.1555C4.7217 31.3263 4.8902 31.4362 5.07649 31.4353C5.17513 31.4343 5.27087 31.4016 5.34978 31.3425C5.44714 31.2729 5.48886 31.2034 5.71622 30.8418C8.69754 26.0568 12.3322 22.5003 16.5242 20.2797Z" stroke="#785436" stroke-width="0.4" mask="url(#path-1-outside-1_300_723)"/>
<path d="M21.9026 20.0993C21.9456 20.1048 21.9893 20.1048 22.0323 20.0993C22.2315 20.0993 22.5886 19.9418 23.5579 18.9586C24.1976 18.3095 27.3646 14.9433 26.7245 12.4675C26.6605 12.2192 26.4072 12.0697 26.1589 12.1338C25.9105 12.1978 25.761 12.4511 25.8251 12.6994C26.4047 14.9159 22.5796 18.7733 21.9211 19.1582C21.7102 19.2064 21.5605 19.394 21.5605 19.6103C21.5605 19.8267 21.7102 20.0143 21.9211 20.0625L21.9026 20.0993Z" stroke="#785436" stroke-width="0.4" mask="url(#path-1-outside-1_300_723)"/>
</svg>
