<svg width="85" height="128" viewBox="0 0 85 128" fill="none" xmlns="http://www.w3.org/2000/svg">
<path d="M31.2243 1.31625C15.7723 5.63372 4.18332 18.3589 1.11564 34.379C0.547548 37.3331 0.774783 37.9012 2.36543 37.7875C3.38799 37.7875 4.29693 38.4692 4.29693 39.3782C4.29693 40.2871 3.38799 40.9688 2.36543 40.9688C0.547548 40.7416 0.320312 42.3323 0.320312 58.466C0.320312 73.2363 0.661166 76.4176 2.1382 78.2355C3.95608 80.0533 3.95608 80.2806 2.1382 80.9623C1.11564 81.4167 0.320312 82.8938 0.320312 84.8253V88.0066L7.59185 87.4385C16.7949 86.6432 28.1567 89.9381 36.1099 95.619L41.7908 99.5956L42.1316 95.7326C43.6087 79.258 27.5886 66.9873 12.0229 72.5546C5.77396 74.8269 1.11564 70.6231 6.56929 67.7826C8.95526 66.5328 9.97782 66.4192 11.6821 67.5554C12.9319 68.3507 15.3179 68.9188 17.0221 68.9188C20.0898 68.9188 20.0898 68.9188 17.7038 67.2145C14.5225 64.9422 8.27355 55.7391 8.27355 53.2396C8.27355 52.217 8.84164 50.5127 9.40973 49.6038C10.3187 48.1268 10.8868 48.2404 13.0455 50.3991C15.3179 52.6715 15.4315 53.4668 14.2953 56.4208C12.4774 61.3064 15.7723 64.9422 26.2252 69.7141C30.8835 71.7592 36.1099 75.0542 37.9278 76.9857L41.1091 80.3942L39.4048 74.3725C38.4959 71.0775 34.1784 60.9656 29.8609 51.8761C25.6571 42.7867 21.7941 33.8109 21.3396 31.993C20.9987 30.0615 19.8626 27.7892 18.84 26.653C16.6813 24.267 17.363 18.927 19.9762 17.3363C22.8166 15.6321 25.7707 19.4951 24.7481 23.4717C24.4073 25.0624 23.7256 27.7892 23.3847 29.7207L22.703 33.1292L25.6571 29.9479C28.8384 26.653 30.429 26.1985 31.5652 28.13C33.9512 31.8794 27.5886 38.3556 25.089 34.7199C23.2711 32.1067 25.3162 38.1284 29.0656 46.4225C32.2469 53.8076 34.4056 56.1936 34.4056 52.4442C34.4056 50.5127 41.2227 42.4459 42.1316 43.3548C42.4725 43.6957 41.3363 45.3999 39.632 47.2178C35.0873 51.9898 34.6329 57.3298 38.155 65.283C39.7457 68.8052 41.4499 73.8044 41.9044 76.304L42.6997 80.8487L45.1993 72.8954C46.5627 68.4643 50.0849 60.1702 53.0389 54.2621C58.9471 42.2186 59.6288 36.5377 55.993 31.4249C53.2662 27.6756 47.2444 24.6079 42.4725 24.6079C40.541 24.6079 38.9503 24.0398 38.9503 23.4717C38.9503 21.7674 44.1768 22.1083 48.8351 24.0398C53.8343 26.0849 53.8343 26.0849 53.0389 24.0398C52.5845 23.1309 52.6981 20.9721 53.2662 19.1542C54.0615 16.4274 54.1751 16.6546 54.8568 21.7674C55.3113 24.8351 56.9019 29.4934 58.379 31.8794L60.9922 36.3105L62.0147 33.1292C62.6964 31.0841 62.5828 28.5845 61.6739 25.7441C59.2879 18.4725 64.5143 12.9053 67.582 19.6087C68.7182 22.1083 68.6046 23.1309 67.0139 26.0849C65.8777 27.9028 63.9462 32.5611 62.6964 36.4241C61.333 40.2871 58.0381 47.8995 55.3113 53.3532C50.0849 63.6924 49.4032 65.7375 51.6755 63.4651C53.607 61.5336 57.6973 61.7609 59.5151 63.9196C60.7649 65.5103 60.6513 65.9647 58.8334 67.3282C55.993 69.3733 53.8343 69.3733 51.3347 67.1009C49.6304 65.5103 49.2896 65.7375 47.5853 70.7367C44.8585 78.9172 45.1993 80.167 49.5168 76.0767C51.4483 74.1452 56.5611 71.0775 60.6513 69.146C69.5135 65.1694 73.9446 60.1702 71.8995 56.4208C70.8769 54.4893 70.9905 53.3532 72.4676 51.1944C74.6263 47.8995 75.9897 47.7859 77.5804 50.8536C78.6029 52.7851 78.1485 54.1485 74.7399 59.2613C72.5812 62.6698 69.6271 66.192 68.1501 67.2145C65.7641 68.9188 65.7641 68.9188 69.2863 68.9188C71.3314 68.9188 73.2629 68.3507 73.6037 67.7826C74.6263 66.0784 79.3983 66.4192 80.9889 68.3507C82.1251 69.7141 82.1251 70.3958 80.9889 71.7592C79.3983 73.6908 74.6263 74.0316 73.6037 72.3273C72.4676 70.3958 61.4466 71.0775 56.4475 73.3499C50.5393 76.0767 45.7674 82.2121 44.9721 88.2338L44.2904 92.7785H84.511L83.8293 30.7432L80.1936 23.3581C73.2629 9.38311 60.7649 0.975396 45.4265 0.0664538C40.2001 -0.160782 35.0873 0.180072 31.2243 1.31625ZM43.8359 5.86096C43.9495 6.42905 43.1542 7.11075 42.1316 7.33799C40.8818 7.56522 40.0865 6.99714 40.0865 5.86096C40.0865 3.92946 43.495 3.81584 43.8359 5.86096ZM24.7481 9.83758C24.7481 12.3372 21.4532 11.8827 20.9987 9.49673C20.6579 7.90608 21.1124 7.45161 22.703 7.79246C23.8392 8.0197 24.7481 8.92864 24.7481 9.83758ZM64.8552 10.6329C64.2871 13.4733 61.6739 13.8142 61.6739 11.0874C61.6739 9.72396 62.3556 8.7014 63.4918 8.7014C64.5143 8.7014 65.0824 9.49673 64.8552 10.6329ZM48.6078 13.7006C50.5393 16.541 49.8576 20.0632 47.4717 20.0632C45.3129 20.0632 42.3589 16.8819 42.3589 14.4959C42.3589 10.1784 45.9946 9.72396 48.6078 13.7006ZM35.3146 18.5861C34.8601 21.0857 32.815 20.8585 32.3605 18.4725C32.1333 17.3363 32.7014 16.6546 33.8375 16.6546C34.9737 16.6546 35.5418 17.45 35.3146 18.5861ZM15.2042 29.1526C17.4766 30.4024 18.1583 35.288 16.2268 36.5377C13.9544 37.9012 10.5459 34.8335 10.5459 31.4249C10.5459 27.7892 11.5685 27.3347 15.2042 29.1526ZM51.1074 29.9479C51.9028 32.2203 47.3581 35.856 44.7448 35.1743C42.018 34.4926 41.7908 33.4701 43.6087 30.1752C44.8585 27.6756 50.3121 27.5619 51.1074 29.9479ZM76.2169 30.2888C76.6714 32.6747 74.0582 35.7424 71.3314 36.1969C68.6046 36.6514 67.582 32.2203 69.7407 29.6071C71.445 27.4483 75.7625 28.0164 76.2169 30.2888ZM36.4507 37.3331C38.3822 39.2646 38.155 43.3548 35.9963 45.1727C34.4056 46.4225 33.9512 46.3089 32.5877 44.491C30.6562 41.8778 30.6562 41.0825 32.1333 38.1284C33.4967 35.6288 34.5192 35.4016 36.4507 37.3331ZM53.7206 41.6505C56.2202 44.1501 56.5611 45.8544 54.9704 48.354C54.0615 49.7174 53.4934 49.7174 50.9938 48.0131C48.0398 46.0816 47.4717 44.491 48.7215 41.1961C49.6304 38.8101 50.9938 38.9237 53.7206 41.6505ZM80.9889 42.2186C80.9889 43.1276 80.3072 43.9229 79.3982 43.9229C77.4667 43.9229 76.2169 42.3322 77.2395 41.1961C78.6029 39.8327 80.9889 40.5144 80.9889 42.2186ZM69.059 45.0591C69.3999 45.5135 68.7182 47.1042 67.582 48.4676C65.9914 50.5127 64.7416 50.8536 62.4692 50.2855C58.8334 49.3765 58.6062 48.1268 61.5603 45.1727C63.719 43.014 67.8092 43.014 69.059 45.0591ZM25.3162 45.6272C27.2477 48.0131 25.8843 50.74 22.703 50.74C19.4081 50.74 16.7949 48.0131 17.8174 45.6272C18.6128 43.4684 23.4983 43.4684 25.3162 45.6272ZM45.5402 53.2396C47.4717 55.1711 47.2444 59.2613 45.0857 61.0792C43.495 62.329 43.0406 62.2154 41.6772 60.3975C40.7682 59.2613 40.0865 57.4434 40.0865 56.4208C40.0865 54.603 42.1316 51.8761 43.495 51.8761C43.8359 51.8761 44.7448 52.4442 45.5402 53.2396ZM66.7867 54.3757C70.1952 55.9664 70.3088 56.8753 67.2411 59.0341C62.6964 62.2154 56.6747 57.7843 61.1058 54.603C63.719 52.6715 63.1509 52.6715 66.7867 54.3757ZM25.9979 55.8528C26.9069 58.0115 24.5209 60.9656 21.9077 60.9656C18.9536 60.9656 15.8859 57.2162 17.5902 55.5119C19.5217 53.5804 25.3162 53.8076 25.9979 55.8528ZM34.5192 63.9196C35.769 65.5103 35.6554 65.9647 33.8375 67.3282C32.7014 68.2371 31.2243 68.9188 30.6562 68.9188C28.6111 68.9188 25.3162 66.5328 25.3162 64.9422C25.3162 61.8745 32.1333 61.0792 34.5192 63.9196ZM25.089 74.5997C25.5434 76.9857 23.0439 79.8261 19.9762 80.8487C17.7038 81.5304 17.363 81.1895 17.363 78.1218C17.363 73.1227 24.18 70.055 25.089 74.5997ZM68.491 74.5997C72.6948 78.8035 70.1952 83.0074 65.196 80.2806C63.6054 79.4852 62.8101 77.8946 62.8101 75.7359C62.8101 71.6456 65.0824 71.1912 68.491 74.5997ZM81.6706 76.9857C82.8068 78.9172 80.1936 81.0759 78.6029 79.4853C77.2395 78.1218 78.1485 75.7359 79.8527 75.7359C80.4208 75.7359 81.2161 76.3039 81.6706 76.9857ZM57.0156 78.8035L59.7424 80.6214L57.2428 82.6665C55.1977 84.3708 54.1751 84.4844 51.9028 83.4619C48.7215 81.9848 48.3806 79.7125 51.2211 78.1218C53.8343 76.5312 53.9479 76.5312 57.0156 78.8035ZM36.4507 79.3716C38.6095 81.5304 35.9963 84.8253 32.0197 84.8253C27.8158 84.8253 26.2252 81.7576 29.2928 79.5989C31.906 77.6674 34.6329 77.5537 36.4507 79.3716ZM35.3146 89.0291C34.8601 91.5287 32.815 91.3015 32.3605 88.9155C32.1333 87.7793 32.7014 87.0976 33.8375 87.0976C34.9737 87.0976 35.5418 87.893 35.3146 89.0291ZM67.1275 89.0291C66.6731 91.5287 64.6279 91.3015 64.1735 88.9155C63.9462 87.7793 64.5143 87.0976 65.6505 87.0976C66.7867 87.0976 67.3548 87.893 67.1275 89.0291Z" fill="#4E2705"/>
<path d="M44.8584 15.064C44.972 16.0865 45.8809 17.2227 46.6763 17.5635C47.6988 17.9044 48.1533 17.3363 47.8124 15.9729C47.6988 14.9503 46.7899 13.8142 45.9946 13.4733C44.972 13.1325 44.5175 13.7005 44.8584 15.064Z" fill="#4E2705"/>
<path d="M11.682 31.9933C11.682 33.6976 14.6361 35.6291 15.7723 34.6065C15.9995 34.2656 15.9995 33.1295 15.545 32.1069C14.6361 29.8345 11.682 29.7209 11.682 31.9933Z" fill="#4E2705"/>
<path d="M45.9946 30.5161C45.1993 31.3115 44.6312 32.334 44.6312 32.7885C44.6312 34.1519 47.8125 33.9247 48.7215 32.4476C49.8576 30.5161 47.5853 28.9255 45.9946 30.5161Z" fill="#4E2705"/>
<path d="M72.1268 30.1752C71.2179 30.7432 70.7634 31.993 70.9906 32.902C71.2179 34.1518 71.7859 34.4926 72.8085 33.8109C73.7175 33.2428 74.1719 31.993 73.9447 31.0841C73.7175 29.8343 73.1494 29.4934 72.1268 30.1752Z" fill="#4E2705"/>
<path d="M34.0648 38.924C32.9286 40.1738 33.1558 43.9232 34.292 43.9232C34.9737 43.9232 35.769 43.4687 36.1099 42.787C37.0188 41.4236 35.0873 37.9014 34.0648 38.924Z" fill="#4E2705"/>
<path d="M50.5393 44.1504C50.7665 45.5138 51.5618 46.7636 52.3572 47.1045C54.4023 47.7862 54.0614 43.1278 51.9027 42.3325C50.6529 41.8781 50.1984 42.3325 50.5393 44.1504Z" fill="#4E2705"/>
<path d="M62.4693 45.8545C60.8786 47.3315 61.7876 48.5813 64.1736 48.2404C67.2412 47.786 68.2638 45.0591 65.4234 45.0591C64.1736 45.0591 62.8101 45.4 62.4693 45.8545Z" fill="#4E2705"/>
<path d="M20.0898 46.309C19.1808 47.8996 22.1349 49.8311 23.4983 48.4677C24.5209 47.4452 23.4983 45.0592 21.9077 45.0592C21.3396 45.0592 20.5443 45.6273 20.0898 46.309Z" fill="#4E2705"/>
<path d="M42.3588 56.3074C42.3588 57.5572 42.8133 58.807 43.3814 59.1478C44.6312 59.9431 45.9946 56.6482 45.0856 55.1712C44.0631 53.3533 42.3588 54.035 42.3588 56.3074Z" fill="#4E2705"/>
<path d="M62.242 56.421C61.3331 57.7844 64.5144 59.1478 66.2186 58.1252C66.9003 57.7844 67.1276 56.8754 66.7867 56.3073C65.8778 54.9439 63.1509 54.9439 62.242 56.421Z" fill="#4E2705"/>
<path d="M19.6353 56.4208C18.2719 57.3297 18.2719 57.557 19.9761 58.2387C20.9987 58.5795 22.8166 58.5795 23.8391 58.2387C25.5434 57.557 25.5434 57.3297 24.18 56.4208C23.2711 55.7391 22.2485 55.2846 21.9076 55.2846C21.5668 55.2846 20.5442 55.7391 19.6353 56.4208Z" fill="#4E2705"/>
<path d="M28.3839 63.9198C27.1341 65.1696 28.7248 66.6466 31.1107 66.6466C32.4741 66.6466 33.2695 66.0785 33.0422 65.1696C32.4741 63.5789 29.5201 62.7836 28.3839 63.9198Z" fill="#4E2705"/>
<path d="M19.1808 76.4178C18.7263 77.4404 18.7263 78.5766 18.9535 78.9174C20.0897 79.94 23.0438 78.0085 23.0438 76.3042C23.0438 74.0318 20.0897 74.1455 19.1808 76.4178Z" fill="#4E2705"/>
<path d="M63.9463 75.6223C63.9463 76.8721 67.2412 79.5989 67.9229 78.9172C69.0591 77.8947 67.1276 74.5998 65.537 74.5998C64.628 74.5998 63.9463 75.0542 63.9463 75.6223Z" fill="#4E2705"/>
<path d="M51.6755 80.5078C52.2436 82.2121 55.8793 82.553 56.3338 80.8487C56.4474 80.167 55.3113 79.4853 53.8342 79.3717C52.0163 79.0308 51.3346 79.4853 51.6755 80.5078Z" fill="#4E2705"/>
<path d="M29.861 81.3031C29.861 83.0074 31.6789 83.8027 33.724 83.0074C36.5644 81.9848 35.8827 80.2806 32.7014 80.2806C31.1108 80.2806 29.861 80.7351 29.861 81.3031Z" fill="#4E2705"/>
<path d="M63.6054 18.5861C62.4693 19.6087 62.6965 24.3806 63.8327 25.0623C65.7642 26.3121 67.5821 22.6763 66.2187 20.1767C64.8552 17.5635 64.628 17.4499 63.6054 18.5861Z" fill="#4E2705"/>
<path d="M19.2945 20.6313C18.3856 22.9036 19.6354 25.9713 21.226 25.4032C21.9077 25.176 22.4758 23.8126 22.4758 22.3356C22.4758 19.2679 20.2035 18.0181 19.2945 20.6313Z" fill="#4E2705"/>
<path d="M27.2476 29.9482C25.7706 31.3116 26.4523 33.6976 28.1566 33.6976C29.0655 33.6976 29.8608 32.675 29.8608 31.4252C29.8608 29.1529 28.6111 28.4712 27.2476 29.9482Z" fill="#4E2705"/>
<path d="M9.86421 52.3307C9.18251 54.2623 10.0915 56.421 11.7957 56.421C13.1591 56.421 13.1591 52.2171 11.6821 51.3082C11.0004 50.9673 10.2051 51.4218 9.86421 52.3307Z" fill="#4E2705"/>
<path d="M73.8309 51.5355C73.3764 51.8764 73.0356 53.2398 73.0356 54.3759C73.0356 57.33 75.7624 56.3074 76.2169 53.2398C76.5577 50.8538 75.3079 49.9449 73.8309 51.5355Z" fill="#4E2705"/>
<path d="M54.0615 64.0334C51.5619 64.9423 52.4709 66.6466 55.4249 66.6466C57.0156 66.6466 58.2654 66.1921 58.2654 65.624C58.2654 64.3742 55.8794 63.4653 54.0615 64.0334Z" fill="#4E2705"/>
<path d="M75.1945 69.0327C73.8311 69.9416 73.8311 70.1689 75.1945 71.0778C76.8987 72.214 79.8528 71.5323 79.8528 70.0552C79.8528 68.5782 76.8987 67.8965 75.1945 69.0327Z" fill="#4E2705"/>
<path d="M6.68298 69.9413C5.88765 71.1911 9.18257 72.5545 10.6596 71.6456C11.2277 71.3047 11.6822 70.623 11.6822 69.9413C11.6822 68.5779 7.4783 68.5779 6.68298 69.9413Z" fill="#4E2705"/>
<path d="M1.2292 89.9382C0.888346 90.2791 0.888346 91.8697 1.2292 93.3467C1.68367 96.0736 2.02452 96.1872 10.4322 96.1872C17.1357 96.1872 20.317 96.8689 24.8617 98.914C35.4281 103.8 42.5861 112.094 45.881 123.115C46.6763 125.841 47.358 128 47.5852 128C47.6989 128 49.1759 127.546 50.7665 126.978C53.3797 125.955 53.4934 125.614 52.3572 121.524C50.5393 114.821 47.1308 108.912 42.018 103.345C36.1098 96.8689 30.7698 93.4604 23.0438 91.188C17.3629 89.4837 2.59261 88.6884 1.2292 89.9382Z" fill="#4E2705"/>
<path d="M44.6312 101.868H63.3782C73.7174 101.868 82.1251 101.527 82.1251 100.959C82.1251 100.505 82.4659 99.0278 82.8068 97.5507L83.4885 95.0512H44.6312V101.868Z" fill="#4E2705"/>
<path d="M3.95608 98.2323C2.81991 99.0276 2.70629 99.823 3.84247 102.209C5.09226 104.936 5.77397 105.277 11.3412 105.277C22.4758 105.277 31.338 111.298 35.6554 121.751C37.9278 127.205 38.6095 128 41.4499 128C45.1993 128 45.4266 126.296 42.5861 119.252C37.5869 107.094 25.8843 98.6868 12.591 97.6642C8.61441 97.437 4.75141 97.6642 3.95608 98.2323Z" fill="#4E2705"/>
<path d="M45.7673 103.8C45.7673 104.368 46.5627 105.618 47.358 106.64C48.6078 108.458 50.8801 108.685 63.6053 108.685C78.262 108.685 78.3756 108.685 79.6254 105.845L80.9888 103.004H63.3781C53.7206 103.004 45.7673 103.345 45.7673 103.8Z" fill="#4E2705"/>
<path d="M6.56932 107.663C8.72805 111.412 11.2276 113.343 15.4315 114.48C19.8626 115.616 24.8618 119.592 27.1341 123.683C27.7022 124.819 29.9746 126.069 32.0197 126.41C35.6555 127.205 35.7691 127.091 34.9738 124.478C33.3831 119.138 28.7248 113.343 23.7256 110.389C17.8175 106.867 4.97867 104.936 6.56932 107.663Z" fill="#4E2705"/>
<path d="M50.8803 110.844C50.5394 111.071 50.8803 112.207 51.562 113.344C52.4709 115.161 54.0616 115.502 62.6965 115.502C70.877 115.502 73.0357 115.161 74.5128 113.457C75.6489 112.321 76.4443 111.185 76.4443 110.844C76.4443 110.276 51.4484 110.276 50.8803 110.844Z" fill="#4E2705"/>
<path d="M15.0906 117.775C16.6813 119.024 19.2945 120.842 20.9987 121.751C23.7256 123.228 24.0664 123.228 23.4983 121.865C22.703 119.82 18.9536 117.207 15.0906 116.184L12.2502 115.389L15.0906 117.775Z" fill="#4E2705"/>
<path d="M53.7207 120.047C53.7207 121.865 54.516 122.319 57.4701 122.433C62.9238 122.66 64.1735 122.319 67.1276 119.933L69.968 117.775H61.7876C54.516 117.775 53.7207 118.002 53.7207 120.047Z" fill="#4E2705"/>
</svg>
