<svg width="39" height="38" viewBox="0 0 39 38" fill="none" xmlns="http://www.w3.org/2000/svg">
<path d="M38.0277 6.26845C38.0277 5.49867 37.7269 4.77403 37.1814 4.22882L33.7713 0.818406C32.6801 -0.272802 30.7817 -0.272802 29.6918 0.818406L26.9256 3.5846C26.1424 3.39543 25.2755 3.61837 24.6929 4.20319C24.2529 4.64291 24.0169 5.22018 24.0052 5.81396C23.4142 5.83126 22.8302 6.06591 22.3986 6.49727C21.8082 7.08823 21.587 7.92862 21.7859 8.72469L1.62028 28.8896C1.51453 28.9953 1.44394 29.1306 1.41744 29.2777L0.0114479 37.1398C-0.0306833 37.3756 0.0449297 37.6164 0.214289 37.7857C0.352682 37.9244 0.539067 38 0.731308 38C0.774277 38 0.816965 37.9961 0.859936 37.9886L8.72204 36.5821C8.86908 36.5556 9.00468 36.485 9.11043 36.3792L29.2717 16.2179C29.4634 16.2673 29.6599 16.293 29.8568 16.293C30.486 16.2852 31.0717 16.0413 31.5072 15.6069C31.9416 15.1724 32.1765 14.5899 32.1938 14.0022C32.811 13.9777 33.3808 13.7338 33.801 13.3122C34.3936 12.7196 34.6154 11.8516 34.419 11.0706L37.1813 8.30832C37.7267 7.76285 38.0277 7.0383 38.0277 6.26845ZM24.7757 12.1926L8.53003 28.4389C8.4028 27.9247 8.13857 27.4378 7.73761 27.0365C7.34419 26.6437 6.86175 26.3725 6.33583 26.2422L22.5807 9.998L24.7757 12.1926ZM2.33935 32.4282L5.57119 35.6597L1.63564 36.3637L2.33935 32.4282ZM8.23803 35.1829L7.32568 35.3461L2.65463 30.6756C2.65408 30.675 2.65352 30.6745 2.65296 30.6739L2.81619 29.7616L4.47882 28.0992C4.48914 28.0903 4.49919 28.0808 4.50896 28.0711C5.09544 27.4843 6.11723 27.486 6.70373 28.0711C7.30864 28.676 7.30864 29.6603 6.70373 30.2655C6.56087 30.4084 6.48916 30.5953 6.48916 30.7826C6.48916 30.9695 6.56087 31.1567 6.70373 31.2993C6.98944 31.5853 7.45208 31.5853 7.73779 31.2993C8.34354 30.6944 9.32764 30.6944 9.93171 31.2993C10.2252 31.5925 10.3868 31.9823 10.3868 32.3967C10.3868 32.7803 10.2484 33.1422 9.99505 33.4268L8.23803 35.1829ZM11.7592 31.6617C11.6286 31.1377 11.3577 30.6567 10.9654 30.2649C10.5642 29.8637 10.0784 29.5991 9.56452 29.4717L25.8094 13.2268L28.0016 15.419L11.7592 31.6617ZM30.4727 14.5725C30.3092 14.7357 30.084 14.8275 29.8477 14.8303C29.709 14.8303 29.5628 14.7921 29.4135 14.7145C29.3971 14.7064 29.3809 14.6972 29.3647 14.6871C29.3404 14.6718 29.3162 14.6545 29.2919 14.6347C29.2905 14.6336 29.2891 14.6325 29.288 14.6313C29.2732 14.6191 29.2581 14.606 29.2434 14.5917C29.2389 14.5875 29.2347 14.5834 29.2302 14.5792C29.2263 14.5753 29.2221 14.5716 29.2182 14.5675L23.4368 8.7862C23.422 8.77169 23.408 8.75606 23.3944 8.74044C23.393 8.73904 23.3919 8.73737 23.3905 8.73597C23.3801 8.72398 23.3704 8.71114 23.3606 8.69859C23.3506 8.68547 23.3408 8.6718 23.3313 8.65757L23.3302 8.6559C23.3115 8.62772 23.2928 8.59758 23.2747 8.56494C23.0994 8.21673 23.1614 7.80294 23.432 7.53287C23.6017 7.36323 23.8254 7.26948 24.0626 7.26948C24.2105 7.26948 24.3452 7.30296 24.463 7.36575C24.5581 7.41792 24.631 7.4715 24.6923 7.53232L30.4722 13.3124C30.5394 13.3802 30.588 13.4441 30.6293 13.5259C30.8112 13.8677 30.747 14.298 30.4727 14.5725ZM32.7665 12.2787C32.603 12.4419 32.3731 12.5357 32.1515 12.5415C32.0017 12.5387 31.8415 12.4983 31.731 12.4411C31.6367 12.3884 31.5639 12.3353 31.5067 12.2787L25.7257 6.49724C25.6644 6.43613 25.6122 6.36415 25.5687 6.28658C25.3893 5.94172 25.4537 5.51066 25.7271 5.23773C25.8959 5.06865 26.1194 4.97545 26.3563 4.97545C26.5048 4.97545 26.6401 5.00866 26.7578 5.07172C26.8519 5.12334 26.9244 5.17691 26.9863 5.23829L32.7673 11.0195C32.8329 11.0854 32.8809 11.1487 32.923 11.2319C33.1052 11.574 33.0407 12.0041 32.7665 12.2787ZM36.1464 7.2748L33.6185 9.80243L28.1973 4.38117L30.7255 1.85297C31.2634 1.31447 32.1973 1.31391 32.7366 1.85297L36.1467 5.26367C36.416 5.53319 36.5647 5.88978 36.5647 6.26895C36.5644 6.64785 36.4157 7.00501 36.1464 7.2748Z" fill="#785436"/>
</svg>
