<svg width="51" height="50" viewBox="0 0 51 50" fill="none" xmlns="http://www.w3.org/2000/svg">
<path d="M25.0424 22.466C23.5406 22.466 22.3189 23.6879 22.3189 25.1896C22.3189 26.6913 23.5408 27.9131 25.0424 27.9131C26.5443 27.9131 27.7661 26.6912 27.7661 25.1896C27.7661 23.6879 26.5444 22.466 25.0424 22.466ZM25.0424 26.4296C24.3587 26.4296 23.8024 25.8733 23.8024 25.1896C23.8024 24.5059 24.3588 23.9495 25.0424 23.9495C25.7261 23.9495 26.2826 24.5059 26.2826 25.1896C26.2826 25.8733 25.7262 26.4296 25.0424 26.4296Z" fill="#DDB892"/>
<path d="M25.0425 18.8086C21.524 18.8086 18.6615 21.6711 18.6615 25.1897C18.6615 28.7083 21.524 31.5708 25.0425 31.5708C28.5611 31.5708 31.4236 28.7083 31.4236 25.1897C31.4236 21.6711 28.5611 18.8086 25.0425 18.8086ZM25.0425 30.0872C22.3419 30.0872 20.145 27.8902 20.145 25.1896C20.145 22.489 22.342 20.292 25.0425 20.292C27.743 20.292 29.9401 22.4891 29.9401 25.1896C29.9401 27.8901 27.743 30.0872 25.0425 30.0872Z" fill="#DDB892"/>
<path d="M25.0425 15.2104C19.5399 15.2104 15.0631 19.6871 15.0631 25.1897C15.0631 30.6922 19.5399 35.1689 25.0425 35.1689C30.545 35.1689 35.0218 30.6921 35.0218 25.1897C35.0218 19.687 30.5451 15.2104 25.0425 15.2104ZM25.0425 33.6854C20.358 33.6854 16.5467 29.8743 16.5467 25.1898C16.5467 20.5052 20.358 16.6941 25.0425 16.6941C29.7269 16.6941 33.5382 20.5053 33.5382 25.1898C33.5382 29.8743 29.727 33.6854 25.0425 33.6854Z" fill="#DDB892"/>
<path d="M25.0425 11.6403C17.5714 11.6403 11.4932 17.7185 11.4932 25.1896C11.4932 32.6607 17.5714 38.7389 25.0425 38.7389C32.5137 38.7389 38.5918 32.6607 38.5918 25.1896C38.5918 17.7185 32.5137 11.6403 25.0425 11.6403ZM25.0425 37.2555C18.3894 37.2555 12.9767 31.8427 12.9767 25.1896C12.9767 18.5365 18.3894 13.1238 25.0425 13.1238C31.6957 13.1238 37.1083 18.5365 37.1083 25.1896C37.1083 31.8427 31.6956 37.2555 25.0425 37.2555Z" fill="#DDB892"/>
<path d="M25.0425 8.01253C15.571 8.01253 7.86528 15.7181 7.86528 25.1898C7.86528 34.6615 15.5709 42.367 25.0425 42.367C34.5141 42.367 42.2197 34.6614 42.2197 25.1897C42.2197 15.718 34.5141 8.01253 25.0425 8.01253ZM25.0425 40.8834C16.3889 40.8834 9.34887 33.8432 9.34887 25.1897C9.34887 16.5362 16.3889 9.49612 25.0425 9.49612C33.696 9.49612 40.7361 16.5363 40.7361 25.1898C40.7361 33.8433 33.6961 40.8834 25.0425 40.8834Z" fill="#DDB892"/>
<path d="M25.0425 4.84844C13.8264 4.84844 4.70136 13.9735 4.70136 25.1897C4.70136 36.4057 13.8264 45.5308 25.0425 45.5308C36.2586 45.5308 45.3837 36.4058 45.3837 25.1897C45.3838 13.9735 36.2586 4.84844 25.0425 4.84844ZM25.0425 44.0472C14.6443 44.0472 6.18496 35.5878 6.18496 25.1897C6.18496 14.7916 14.6444 6.33194 25.0425 6.33194C35.4406 6.33194 43.9001 14.7915 43.9001 25.1896C43.9001 35.5877 35.4407 44.0472 25.0425 44.0472Z" fill="#DDB892"/>
<path d="M49.5355 26.2526C49.3594 25.8787 49.1404 25.4133 49.1404 25.1898C49.1404 23.7735 49.0165 22.3538 48.7721 20.9702C48.7096 20.6161 48.7791 20.313 48.8596 19.9621C48.9702 19.48 49.1079 18.88 48.8683 18.143C48.7596 17.809 48.6504 17.4523 48.5348 17.0744C48.1183 15.7134 47.6461 14.171 46.9804 13.0156C46.6467 12.4364 46.0085 12.0097 45.3912 11.5971C44.977 11.3201 44.5485 11.0338 44.3694 10.7938C44.1841 10.5454 43.9718 9.92336 43.7843 9.37453C43.4889 8.50929 43.2099 7.69201 42.7576 7.21496C42.014 6.43068 41.2105 5.68966 40.3695 5.01241C39.6087 4.39972 38.7709 4.35782 38.0317 4.32071C37.4895 4.29356 37.0212 4.27003 36.6085 4.04386C35.4202 3.39249 34.1688 2.83887 32.8895 2.39844C32.5246 2.27286 32.0381 1.92784 31.5676 1.59424C30.8595 1.09219 30.1271 0.57295 29.3646 0.427442C27.8779 0.143848 26.3499 0 24.823 0C23.6007 0 22.5476 0.492677 21.5294 0.969143C20.8857 1.27032 20.2777 1.55479 19.6698 1.69307C19.2248 1.79434 18.6551 1.76328 18.0522 1.73047C17.1951 1.68379 16.3089 1.63526 15.527 1.95147C14.4127 2.40196 13.3225 2.9417 12.2863 3.55577C11.6136 3.9544 11.2003 4.62667 10.8006 5.27687C10.5242 5.72648 10.2631 6.15109 9.96948 6.38683C9.55424 6.72013 8.99145 6.9508 8.39555 7.19494C7.53207 7.54884 6.639 7.91476 5.99515 8.66467C5.14603 9.65363 4.3722 10.7185 3.69486 11.8295C3.13421 12.7494 2.94485 13.9446 2.76185 15.1003C2.64378 15.8455 2.53226 16.5494 2.33353 17.1078C1.95286 18.1773 1.64593 19.2844 1.42112 20.3981C1.25061 21.2431 1.12434 22.1081 1.04573 22.9689C0.97864 23.7023 0.944753 24.4495 0.944753 25.1897C0.944753 25.7312 0.765066 26.3791 0.574636 27.0651C0.306276 28.0324 0.0288338 29.0328 0.200416 29.967C0.362916 30.8522 0.577761 31.7375 0.838992 32.598C1.09817 33.4517 1.40862 34.3001 1.76194 35.1193C2.06429 35.8207 2.71888 36.2699 3.35198 36.7044C3.764 36.9872 4.18997 37.2795 4.35316 37.5519C4.73109 38.1831 5.1432 38.8048 5.57826 39.3995C6.06996 40.0721 6.60287 40.7266 7.16205 41.3453C7.39066 41.5982 7.65316 42.0796 7.90697 42.5451C8.28285 43.2347 8.67162 43.9475 9.16987 44.3792C10.0075 45.105 10.9028 45.7787 11.8308 46.3816C12.45 46.784 13.0998 46.7814 13.6213 46.779C13.994 46.7782 14.3157 46.7762 14.5819 46.9047C15.0067 47.1096 15.486 47.5355 15.9933 47.9865C16.7317 48.6428 17.4953 49.3212 18.369 49.5723C19.1667 49.8016 19.8695 49.8438 20.5491 49.8848C20.9138 49.9067 21.2912 49.9294 21.6927 49.9809C21.7956 49.994 21.8984 50 22.0012 50C22.5942 49.9999 23.186 49.7991 23.7611 49.6039C24.2195 49.4483 24.6935 49.2874 25.0425 49.2874C25.6282 49.2874 26.2684 49.4477 26.9465 49.6174C27.9203 49.8611 28.9273 50.1136 29.9223 49.9165C30.9594 49.7118 31.9711 49.3052 32.9497 48.912C33.2563 48.7889 33.5459 48.6725 33.8314 48.5643C34.5026 48.31 35.0193 47.7618 35.4753 47.2782C35.8029 46.9307 36.1123 46.6025 36.4104 46.4428C37.5308 45.8424 38.6127 45.1467 39.6263 44.3751C39.8936 44.1715 40.3827 44.0282 40.8558 43.8897C41.5677 43.6813 42.3038 43.4656 42.8239 42.9506C43.7694 42.014 44.6432 40.9927 45.4206 39.915C45.8287 39.3494 45.8848 38.6191 45.9341 37.975C45.9673 37.5414 46.0018 37.0931 46.1365 36.8496C46.7255 35.7864 47.2371 34.67 47.6572 33.5313C47.776 33.2093 48.0976 32.893 48.4379 32.5579C48.9313 32.0723 49.4904 31.5219 49.6612 30.7242C49.843 29.875 49.9803 29.005 50.0692 28.1385C50.1323 27.5209 49.8288 26.876 49.5355 26.2526ZM48.5933 27.9875C48.5099 28.8006 48.3812 29.617 48.2106 30.4136C48.1328 30.7766 47.7756 31.1283 47.3973 31.5006C46.9763 31.9149 46.499 32.3846 46.2655 33.0176C45.8714 34.0859 45.3914 35.1333 44.8388 36.1308C44.5472 36.6573 44.5002 37.2695 44.4548 37.8616C44.4187 38.3327 44.3813 38.8198 44.2174 39.047C43.4875 40.0587 42.6673 41.0174 41.7797 41.8967C41.5264 42.1475 40.9734 42.3096 40.4386 42.4661C39.8361 42.6426 39.2132 42.825 38.7274 43.1947C37.7761 43.9188 36.7607 44.5719 35.7095 45.1352C35.1985 45.4091 34.7904 45.842 34.3957 46.2605C34.0327 46.6456 33.6573 47.0436 33.3056 47.1769C33.0062 47.2904 32.6963 47.4149 32.3965 47.5354C31.4815 47.903 30.5353 48.2832 29.6348 48.461C28.9653 48.5928 28.1596 48.3916 27.3066 48.1782C26.5713 47.9941 25.811 47.8039 25.0425 47.8039C24.4486 47.8039 23.8567 48.0048 23.2843 48.1991C22.7692 48.374 22.2368 48.5551 21.8811 48.5093C21.43 48.4516 21.0275 48.4272 20.6382 48.4038C19.9841 48.3645 19.4191 48.3305 18.7786 48.1464C18.2288 47.9884 17.5933 47.4236 16.9788 46.8774C16.4177 46.3789 15.8376 45.8633 15.2265 45.5685C14.7005 45.3146 14.1746 45.2951 13.7352 45.2951C13.6944 45.2951 13.6543 45.2953 13.6151 45.2955C13.1631 45.2963 12.8748 45.2907 12.639 45.1376C11.7679 44.5716 10.9275 43.9391 10.1413 43.2579C9.84584 43.0018 9.50776 42.3819 9.20951 41.8348C8.90073 41.2684 8.60912 40.7335 8.26254 40.3502C7.73754 39.7694 7.23734 39.155 6.77572 38.5236C6.36742 37.9652 5.98051 37.3819 5.62601 36.7896C5.29642 36.2392 4.7347 35.8537 4.19144 35.4809C3.73197 35.1656 3.25687 34.8396 3.12415 34.5317C2.7928 33.7632 2.50159 32.9674 2.25853 32.1667C2.01341 31.3595 1.81194 30.5292 1.6595 29.6988C1.54964 29.1002 1.78079 28.267 2.00413 27.4614C2.21263 26.7099 2.42825 25.9329 2.42825 25.1894C2.42825 24.494 2.46019 23.7923 2.52308 23.1037C2.597 22.2957 2.71546 21.4841 2.87542 20.6913C3.08616 19.6465 3.37406 18.6082 3.73109 17.6051C3.97601 16.9171 4.10355 16.1115 4.22699 15.3325C4.38753 14.319 4.55345 13.271 4.96156 12.6016C5.5972 11.5587 6.32357 10.5593 7.12064 9.63107C7.53188 9.15207 8.22455 8.86828 8.95795 8.56769C9.62534 8.29416 10.3153 8.01134 10.8979 7.54367C11.3921 7.14708 11.7338 6.59122 12.0643 6.05382C12.3696 5.55724 12.6853 5.04376 13.0426 4.83194C14.0148 4.25587 15.0377 3.74932 16.083 3.32676C16.5582 3.13467 17.2766 3.17364 17.9713 3.21173C18.6497 3.24874 19.3514 3.28721 19.9991 3.13956C20.7621 2.96583 21.4717 2.63389 22.158 2.3128C23.0698 1.88633 23.9307 1.4835 24.8232 1.4835C26.257 1.4835 27.6915 1.61846 29.087 1.88487C29.5327 1.96983 30.1581 2.41329 30.7098 2.8046C31.2658 3.19874 31.8407 3.60635 32.407 3.80137C33.6071 4.21446 34.7809 4.7339 35.8958 5.34493C36.607 5.73468 37.3246 5.77071 37.9578 5.80245C38.6372 5.83644 39.0723 5.87238 39.4394 6.16798C40.2289 6.80372 40.9832 7.49943 41.6813 8.23566C41.9108 8.47765 42.1823 9.27307 42.3806 9.85383C42.625 10.5695 42.8557 11.2454 43.1804 11.6808C43.512 12.1253 44.0483 12.4838 44.5668 12.8304C45.0202 13.1334 45.5342 13.477 45.695 13.756C46.2769 14.7658 46.7229 16.2228 47.1162 17.5083C47.2338 17.8925 47.3448 18.2553 47.4575 18.6016C47.5702 18.9481 47.5046 19.2342 47.4137 19.63C47.3169 20.0521 47.1963 20.5774 47.3111 21.2279C47.5405 22.5266 47.657 23.8594 47.657 25.1895C47.657 25.7447 47.9295 26.3239 48.1932 26.8841C48.361 27.2409 48.6146 27.7797 48.5933 27.9875Z" fill="#DDB892"/>
</svg>
