<svg width="98" height="128" viewBox="0 0 98 128" fill="none" xmlns="http://www.w3.org/2000/svg">
<path d="M60.5903 74.5581C60.5903 80.4404 55.6514 85.2089 49.5591 85.2089C43.4667 85.2089 38.5278 80.4404 38.5278 74.5581C38.5278 68.6758 43.4667 63.9072 49.5591 63.9072C55.6514 63.9072 60.5903 68.6758 60.5903 74.5581Z" fill="#F1AF76"/>
<path d="M24.6384 0.393549C17.9356 1.82017 10.7729 7.81197 9.65576 12.8844C9.0972 15.4523 9.42576 19.7639 10.28 21.3807L11.0029 22.7439L10.1157 22.9024C5.84439 23.7901 3.34729 25.8825 1.86875 29.7819C-0.102646 34.886 1.24447 41.4485 4.72727 43.8896C5.3844 44.3651 5.94296 44.7772 6.00867 44.7772C6.04153 44.8089 5.41726 46.1722 4.6287 47.8207C1.70446 53.9076 0.48877 58.4094 0.48877 63.0697C0.48877 66.9057 1.01448 69.0298 2.62445 71.4074C5.28583 75.4337 9.98432 77.5895 17.5413 78.2235C19.6113 78.4137 21.3527 78.5088 21.4184 78.4454C21.4841 78.382 21.1884 77.748 20.7941 77.0505L20.0713 75.7824L17.5742 75.5922C14.19 75.3069 11.8571 74.6094 9.36005 72.9926C4.3987 69.8223 2.39445 64.7182 3.93871 59.2019C4.33299 57.807 4.36585 57.1096 4.07014 55.7146C3.643 53.654 3.873 50.7056 4.6287 49.3424C4.92441 48.8035 5.74582 47.7256 6.50152 46.933L7.81579 45.5381L6.10725 43.953C3.70872 41.7338 2.78873 39.7365 2.78873 36.598C2.78873 31.4304 6.17296 25.502 10.1486 23.8218C10.7072 23.5999 11.43 23.1877 11.7586 22.9341C12.35 22.4903 12.35 22.4269 11.6929 20.6832C9.98432 16.3083 11.4957 9.36539 14.7814 6.16343C17.3113 3.75403 21.1556 2.2006 25.4926 1.91528C32.2939 1.43974 37.8467 4.95873 40.4424 11.3627C40.9352 12.5674 41.4281 13.5501 41.5595 13.5501C41.7238 13.5501 41.9209 13.2014 42.0195 12.7893C42.2823 11.8065 44.9766 8.92156 46.2908 8.2241C48.4265 7.11451 60.2877 7.74856 65.8076 9.30199C70.4404 10.6018 73.4304 12.6625 73.4304 14.5329C73.4632 17.2911 73.7589 19.637 74.2189 20.4296C74.4818 20.9052 75.566 22.3001 76.6503 23.5365C78.9503 26.1995 79.3446 26.8335 79.3446 28.1017C79.3446 29.7819 78.3917 30.0672 73.5289 30.0355C70.2433 29.9721 68.6662 30.1306 66.3662 30.6379C58.4478 32.4766 54.2093 33.2058 51.745 33.2058H49.1165V35.8688C49.1165 38.2782 49.0179 38.722 47.9337 40.7827C46.3894 43.7628 42.7752 47.3451 39.9495 48.7401C37.1238 50.1033 33.2468 51.0544 31.374 50.8324L29.8626 50.6422L29.9611 53.8759C30.0268 55.6829 30.2568 57.7119 30.4868 58.4094C31.0782 60.2798 30.9468 65.0669 30.2897 67.0008L29.6983 68.6493L31.3082 70.6783C33.1811 73.056 35.8753 78.0333 37.4196 81.9327C38.1424 83.7081 38.7667 84.8177 39.1938 85.0079C39.5881 85.1981 40.8366 87.2905 42.4138 90.3656C44.7794 95.0259 45.1409 95.5649 46.7837 96.8013C50.7593 99.813 52.4679 100.352 62.0949 101.525C65.7091 101.969 70.079 102.635 71.7875 102.983C78.6874 104.442 80.6588 104.664 83.3531 104.283C84.7659 104.093 86.6059 103.617 87.493 103.269C89.8258 102.286 90.2858 101.335 90.5158 97.0232C90.6472 94.0114 90.7786 93.4091 91.3043 93.0286C91.8629 92.6165 91.7643 92.5848 90.1544 92.3946C88.2815 92.1727 85.3244 90.8729 82.8602 89.1292C81.1188 87.8928 80.9874 87.5124 82.0716 86.4028C82.4659 85.9907 83.8788 84.4689 85.2259 83.0423C87.1316 81.0134 88.1501 80.2208 89.7601 79.4599C91.4358 78.6991 91.83 78.382 91.6329 77.9699C91.5343 77.6529 91.3043 76.7335 91.1401 75.8775C90.8115 74.0388 90.0229 73.0243 89.5301 73.7851C89.2672 74.1973 89.103 74.1973 88.183 73.69C86.3759 72.7073 84.4702 73.2779 84.4373 74.7679C84.4373 75.5922 83.2873 76.3214 81.9731 76.3214C79.2788 76.3214 77.6689 72.1366 79.5417 70.0125C80.6588 68.7127 81.2174 69.0932 80.166 70.4247C79.1803 71.6928 79.1474 72.4536 80.0017 74.1022C80.7245 75.4971 81.5131 75.8458 82.7616 75.402C83.3859 75.1484 83.6159 74.8313 83.6159 74.2607C83.6159 73.5949 83.9116 73.3096 85.1602 72.7707C86.6387 72.1366 86.7373 72.1366 87.7887 72.6756C88.8729 73.2462 88.9058 73.2462 89.6287 72.5804C90.4829 71.8196 91.1729 71.6611 91.1729 72.2634C91.2058 72.4853 91.5015 72.3268 91.8629 71.883C92.4215 71.2489 92.52 70.8051 92.3886 69.6638C92.1915 68.047 91.1729 67.0325 88.3801 65.6693C85.9159 64.4646 84.6673 63.4501 83.8788 61.9601C83.2216 60.7554 83.1559 60.153 83.1231 55.8732C83.1231 51.2129 83.3531 49.596 83.9116 50.1984C84.0759 50.3569 84.043 51.3714 83.8459 52.4493C83.6159 53.7808 83.6159 55.4927 83.813 57.8387C84.1088 60.8822 84.273 61.4528 85.0616 62.4673C86.113 63.7671 86.7373 63.7671 86.2116 62.4356C85.653 61.0407 84.6016 56.2853 84.6016 55.0806C84.6016 54.4465 85.0616 52.1957 85.5873 50.0716C86.6716 45.7917 86.8358 42.7166 86.0801 40.6876C85.6201 39.4512 85.6859 38.7537 86.2444 39.0708C86.4087 39.1659 86.7701 40.3072 87.0659 41.6387C87.6901 44.3017 87.5916 45.3479 86.3759 49.9448C85.9159 51.6884 85.5873 53.7808 85.5873 55.0806C85.5873 57.5851 87.033 63.7354 87.7887 64.4646C88.4458 65.0986 89.0044 65.0352 88.7087 64.3378C87.493 61.2943 87.1973 55.9683 88.0187 51.8469C88.2815 50.5788 88.9387 48.1694 89.4972 46.4892C90.0558 44.8089 90.5158 42.8751 90.5158 42.2093C90.5158 39.7365 90.7129 39.5146 92.75 39.578C94.3929 39.6414 94.6557 39.5463 95.3457 38.722C95.74 38.2148 96.0686 37.6441 96.0686 37.4856C96.0357 37.2954 94.0643 35.3298 91.6329 33.1107C88.5115 30.2257 86.7373 28.8308 85.4559 28.2602C83.3859 27.3408 81.6117 25.4069 78.556 20.6832C75.6318 16.2132 75.3032 15.0719 75.5003 10.4433C75.5989 8.31921 75.5661 6.57556 75.4346 6.57556C75.1389 6.57556 73.7589 8.60453 73.7589 9.01667C73.7589 9.23858 73.6275 9.74583 73.4632 10.1897L73.1347 10.9505L69.5533 9.55561C64.3291 7.52664 59.7292 6.57556 54.8664 6.57556C50.8579 6.57556 46.3237 7.17791 43.8266 8.00218C41.9538 8.66794 41.3952 8.60453 40.9681 7.71686C40.2124 6.13173 36.3682 2.58103 34.2653 1.56655C30.9468 -0.0502874 28.2197 -0.367314 24.6384 0.393549ZM62.5877 38.1197C63.1134 38.722 62.7848 39.5463 61.9963 39.5463C61.0434 39.5463 60.4192 38.722 60.9449 38.1197C61.4706 37.5173 62.062 37.5173 62.5877 38.1197ZM66.8591 38.1197C67.4505 38.7854 67.0233 39.5463 66.0376 39.5463C65.5776 39.5463 65.1177 39.3244 65.0191 39.0708C64.7891 38.5318 65.4134 37.6441 66.0376 37.6441C66.2676 37.6441 66.6291 37.8661 66.8591 38.1197ZM58.4478 38.722C58.7435 39.1342 58.6778 39.3561 58.2178 39.7048C57.0678 40.4974 55.9178 39.3878 56.9035 38.4367C57.4949 37.8661 57.9549 37.9295 58.4478 38.722ZM71.459 38.7537C72.0175 39.4195 71.6233 40.1804 70.6704 40.1804C69.7833 40.1804 69.2904 39.3561 69.849 38.722C70.3418 38.1514 70.9333 38.1514 71.459 38.7537ZM75.2046 39.7048C75.4675 40.4023 75.0732 41.1314 74.4161 41.1314C73.6604 41.1314 73.0361 40.3706 73.2989 39.7365C73.5618 39.1025 74.9418 39.0708 75.2046 39.7048ZM54.6693 41.2582C55.2278 41.8923 54.735 42.7166 53.8479 42.7166C52.895 42.7166 52.5007 41.9557 53.0593 41.29C53.585 40.6876 54.1764 40.6876 54.6693 41.2582ZM73.9561 42.6849C76.3546 43.7311 77.1432 45.7283 75.5332 46.7428C74.7775 47.2183 74.4161 47.2183 72.3461 46.9013C69.2904 46.4258 64.0334 46.1088 65.3805 46.4892C65.9391 46.6477 67.6148 46.9964 69.0933 47.25C70.6047 47.5354 72.2147 47.9792 72.6747 48.2645C73.7261 48.9303 75.4018 51.4982 75.4018 52.4493C75.4018 53.5906 74.6461 53.6223 72.9047 52.6078C70.539 51.2129 68.3376 50.5788 65.3477 50.3886C63.0477 50.2618 62.292 50.3569 60.0906 51.0861C58.6449 51.5299 57.3306 52.0371 57.1007 52.164C56.9035 52.2908 59.4992 52.3859 62.8506 52.3859C69.5862 52.3859 71.4261 52.7346 73.2004 54.288C74.1532 55.1757 74.2846 55.7146 73.7261 56.2536C73.4304 56.5389 73.4304 56.8876 73.7261 57.6485C74.5804 60.0262 74.2846 60.2164 69.2247 60.8188C66.5633 61.1358 65.3805 61.1358 63.672 60.8188C60.1235 60.1847 55.3593 57.9972 54.8993 56.7608C54.5378 55.8732 54.9978 55.9366 56.1478 56.9193C57.2649 57.8704 59.992 59.2019 60.7477 59.2019C60.9449 59.1702 60.682 58.8215 60.1235 58.4094C58.842 57.3949 59.1706 56.8242 61.7991 55.5561C63.6063 54.7002 64.0005 54.6368 67.1876 54.6685C71.3604 54.7002 72.1818 54.7953 72.5432 55.2074C72.7075 55.4293 72.7732 55.3976 72.7075 55.1123C72.4447 54.1612 70.2104 53.4638 66.6291 53.115C60.0249 52.5127 55.195 53.2735 52.7307 55.3025C51.975 55.9366 51.3179 56.3487 51.2193 56.2536C50.7922 55.8415 51.515 54.8587 52.7964 54.0344C53.585 53.5589 54.8664 52.7346 55.6878 52.2274C58.5135 50.3886 60.3863 49.8814 64.5591 49.8814C68.5347 49.8497 70.9333 50.4203 73.1347 51.9103C74.0546 52.5761 74.7446 52.7346 74.7446 52.2908C74.7446 51.4982 72.5433 48.9303 71.4918 48.5182C70.3419 48.0426 65.7419 47.2817 61.8649 46.933C59.7292 46.7428 59.2035 46.9964 55.9178 49.9131C53.3879 52.1322 51.3836 52.2274 52.5336 50.0716C54.3407 46.6794 58.9406 45.3162 67.2533 45.6649C69.6519 45.76 72.1818 46.0136 72.8389 46.2356C73.7918 46.5209 74.2846 46.5526 74.9089 46.2673C75.9603 45.7917 75.9603 45.2211 74.9089 44.2066C73.5947 42.9702 71.3276 42.5898 66.5634 42.8117C58.8421 43.1921 56.0492 44.3017 52.9607 48.2645C51.8765 49.6594 50.9236 50.8641 50.8579 50.9276C50.7922 51.0227 50.6279 50.9276 50.4636 50.769C50.0365 50.3569 53.9136 45.6332 55.5235 44.587C58.1192 42.8751 61.7991 42.1776 68.1733 42.1142C71.8533 42.1142 72.839 42.2093 73.9561 42.6849ZM51.5807 44.7455C51.5807 45.6649 50.5622 46.1405 49.9379 45.5381C49.1822 44.8089 49.6422 43.9213 50.7265 44.0481C51.3179 44.1115 51.5807 44.3334 51.5807 44.7455ZM48.7551 48.3596C49.1494 49.0571 48.6565 49.6911 47.7365 49.6911C47.0465 49.6911 46.6523 48.9937 46.948 48.2645C47.2108 47.5988 48.3608 47.6622 48.7551 48.3596ZM52.0407 66.3667C54.0779 66.9374 55.9178 67.8885 57.2978 69.0932C57.8564 69.6004 58.3821 69.9808 58.4478 69.9808C58.5135 69.9808 58.6449 69.2517 58.7763 68.364C58.9406 67.3178 59.1378 66.8106 59.4006 66.9057C59.9263 67.0642 60.1235 75.0216 59.6306 76.9237C59.1049 78.921 57.2978 81.4572 54.505 84.1202C51.7779 86.7515 50.5622 87.5441 50.825 86.593C50.9236 86.2443 51.1208 85.737 51.2522 85.42C51.4493 84.9762 51.3179 84.8811 50.4965 84.8811C49.3465 84.8811 47.8351 83.7715 46.8494 82.2498C45.8966 80.728 42.5123 70.71 42.4795 69.3151C42.4795 68.6176 42.6766 67.8251 42.9066 67.5397C44.2866 65.9546 48.6237 65.3839 52.0407 66.3667ZM64.0991 68.7127C63.8363 70.0125 61.6349 74.4192 61.2406 74.4192C61.0763 74.4192 60.9449 74.229 60.9449 73.9754C60.9449 73.373 62.522 69.3468 63.1134 68.4591C63.8034 67.4446 64.362 67.5714 64.0991 68.7127ZM67.6148 71.2172C66.8919 72.3268 63.442 75.3703 62.9491 75.3703C62.2591 75.3703 62.5877 74.863 64.7562 72.5804C66.0705 71.1855 67.1876 70.2979 67.5819 70.2979C68.239 70.2979 68.239 70.2979 67.6148 71.2172ZM70.4733 74.1973C70.4733 74.6728 69.8161 75.0216 66.7276 76.1945C63.2777 77.5261 62.522 77.0188 65.6434 75.4971C68.8633 73.912 70.4733 73.4998 70.4733 74.1973ZM71.3275 78.2552C71.7547 78.9527 70.6047 79.2063 67.6148 79.1112C64.5262 78.9844 63.7048 78.7308 64.5591 78.2235C65.2819 77.7797 71.0318 77.8114 71.3275 78.2552ZM68.239 81.4572C69.5204 82.0278 70.4733 82.6302 70.4733 82.8838C70.4733 83.2325 70.2433 83.2959 69.5862 83.1374C68.009 82.7887 64.7562 81.2987 64.0662 80.6646C63.4091 80.0623 63.4091 80.0623 64.6905 80.2842C65.4134 80.3793 66.9905 80.9182 68.239 81.4572ZM65.8734 83.93C68.239 86.1809 68.6005 86.7832 67.6148 86.7832C67.0233 86.7832 62.5877 82.5351 62.5877 81.9961C62.5877 81.2353 63.7705 81.9327 65.8734 83.93ZM57.6592 83.1057C57.6592 83.8349 56.4107 87.3856 55.7864 88.4001C55.4578 88.9073 55.0635 89.2877 54.8664 89.1926C54.3078 89.0024 54.6364 87.7343 55.9178 85.103C57.0349 82.8204 57.6592 82.0912 57.6592 83.1057ZM62.752 84.9445C64.0334 87.5441 64.5262 89.3194 63.9348 89.3194C63.5077 89.3194 62.3906 87.2905 61.5691 84.9128C60.8463 82.9155 60.8134 82.6619 61.2734 82.6619C61.4706 82.6619 62.1277 83.7081 62.752 84.9445ZM59.7949 83.9934C60.1235 85.6736 59.8278 90.0486 59.4006 90.1754C58.8421 90.3656 58.5463 87.9879 58.8092 85.3249C59.0392 82.8521 59.4663 82.2815 59.7949 83.9934ZM86.9344 95.7234C87.3287 96.4525 87.8215 97.5938 88.0844 98.323L88.5444 99.6228L87.8873 98.8302C86.9016 97.6255 85.2587 94.5187 85.4887 94.2967C85.8173 93.9797 86.2116 94.3602 86.9344 95.7234ZM86.3759 98.3547C87.0658 98.9887 87.5587 99.5911 87.4273 99.6862C87.033 100.067 82.8602 96.7061 83.1559 96.2306C83.3531 95.9136 84.5359 96.7062 86.3759 98.3547ZM84.6673 99.496C86.7373 100.257 87.5258 100.891 86.0801 100.574C83.9773 100.098 81.6445 99.3375 81.6445 99.0838C81.6445 98.64 82.8602 98.7985 84.6673 99.496Z" fill="#4E2705"/>
<path d="M55.9835 47.7573C54.0778 48.8986 52.3364 50.991 53.3221 50.9593C53.7164 50.9276 58.1849 46.8696 57.7906 46.8379C57.6264 46.8379 56.8049 47.25 55.9835 47.7573Z" fill="#4E2705"/>
<path d="M62.0291 56.2219C61.0763 56.6657 60.2877 57.1413 60.2877 57.2998C60.2877 57.4583 61.0434 58.1558 61.9634 58.8532C63.3763 59.9311 63.902 60.153 65.1177 60.153H66.5962L65.7419 59.1702C64.8219 58.1241 64.5919 56.4438 65.2819 55.7781C66.0048 55.0806 63.8362 55.3659 62.0291 56.2219Z" fill="#4E2705"/>
<path d="M66.0705 56.0951C65.7748 56.4755 65.5448 56.9827 65.5448 57.2364C65.5448 58.0606 66.6291 59.1702 67.7462 59.5507C68.7976 59.8677 68.9947 59.836 69.389 59.3287C70.1776 58.3143 70.309 57.2364 69.6847 56.9193C69.389 56.7608 69.159 56.3487 69.159 56.0317C69.159 55.0806 66.7605 55.144 66.0705 56.0951Z" fill="#4E2705"/>
<path d="M71.2947 56.4121C71.229 56.634 71.1304 57.49 71.0319 58.3143C70.9004 59.7092 70.9333 59.836 71.5904 59.836C71.9847 59.836 72.5761 59.6458 72.8718 59.4239C73.3975 59.0751 73.3975 58.9483 72.9047 57.5217C72.4118 56.0951 71.5904 55.5561 71.2947 56.4121Z" fill="#4E2705"/>
<path d="M22.0098 3.34192C17.5413 4.64172 15.1428 6.38537 13.5328 9.52393C12.3171 11.9333 11.89 14.0891 12.0543 17.1326C12.1857 20.1443 13.2043 22.6488 14.3871 22.8707C14.7814 22.9341 16.3585 23.1878 17.9028 23.378C19.447 23.5682 21.5827 24.0754 22.6998 24.5193C25.1312 25.4387 25.0326 25.4387 26.4455 24.5193C28.5154 23.1878 32.2939 22.0782 35.3167 21.9197C37.4853 21.8245 38.2081 21.666 38.5367 21.2539C39.2267 20.3662 39.391 19.2249 38.931 18.9396C37.2881 17.9568 26.544 17.9885 22.6341 18.9396C17.0813 20.3345 15.0114 20.1126 15.4057 18.2422C15.6357 17.0692 17.0813 14.9134 17.9028 14.5012C18.8227 14.0257 18.7242 13.6136 17.6728 13.4868C16.4242 13.3599 16.2271 11.9016 17.2785 10.8237C19.0856 8.95328 25.8869 6.57558 29.3368 6.57558C33.5425 6.57558 35.2182 7.78028 38.4381 13.0746C40.5081 16.4351 41.2309 16.6887 40.2781 13.7087C39.4238 11.014 38.7995 9.80925 37.5181 8.03391C36.0396 6.06834 34.5282 4.86364 32.1296 3.81745C29.6325 2.67616 25.0326 2.48594 22.0098 3.34192Z" fill="#4E2705"/>
<path d="M77.3732 5.75132C76.8146 6.41707 76.2889 10.5067 76.4532 12.9161C76.6503 15.2938 77.5374 17.3228 80.0674 21.0637C82.2031 24.2657 84.4373 26.7702 85.3573 27.0555C86.7044 27.4676 88.7087 29.021 92.29 32.4449C95.1486 35.2031 95.9371 35.7737 96.0357 35.2982C96.2 34.4739 95.51 31.2085 94.7543 29.2113C94.2286 27.8798 93.9329 27.531 93.0786 27.3091C91.6658 26.897 90.6801 25.5338 90.7129 23.9803C90.7786 21.888 92.2243 20.8735 93.5386 22.0148C93.8672 22.3001 94.2286 22.4269 94.3929 22.3001C94.5243 22.1733 94.6229 20.6833 94.59 19.003C94.5571 15.1987 93.7686 13.0112 91.6001 10.6969C88.4787 7.33645 78.8846 4.00767 77.3732 5.75132Z" fill="#4E2705"/>
<path d="M24.4412 8.2875C21.5498 9.23858 18.8885 10.5701 17.9685 11.5529C16.7856 12.821 17.6399 13.0746 20.9584 12.4088C22.437 12.1235 25.1969 11.8699 27.1026 11.8699C31.0454 11.8382 33.2139 12.3771 35.021 13.8355C36.1053 14.7231 36.1053 14.7865 35.5467 15.3572C34.791 16.0863 32.3268 16.0229 28.6797 15.1353C25.1969 14.2476 20.4327 14.1525 18.987 14.9134C17.9685 15.4206 16.2599 17.7666 16.2599 18.6226C16.2599 19.1615 19.3813 18.8762 22.9955 17.9885C26.9055 17.0374 36.8281 17.1325 39.2924 18.1153C40.4752 18.6226 40.0481 17.3228 37.8796 13.8672C35.3496 9.80923 34.4296 8.73134 32.8525 8.00218C31.2425 7.27302 27.1026 7.39983 24.4412 8.2875Z" fill="#4E2705"/>
<path d="M47.5065 8.76305C46.028 9.14348 43.7937 11.331 42.7095 13.4867C41.9866 14.9134 41.8552 15.5157 42.0195 16.6253C42.1838 17.83 42.118 18.0519 41.4938 18.2738C40.8695 18.4958 40.9352 18.5909 42.2823 19.3517C45.568 21.1905 48.3936 25.724 48.7551 29.7185C48.8865 30.9232 49.0836 32.0328 49.2479 32.1596C50.0365 32.9205 56.5092 32.0645 65.2162 30.0038C67.8776 29.3698 69.9804 29.0527 71.1304 29.1161C74.9418 29.2747 77.8331 29.0844 78.326 28.6089C78.9831 27.9748 78.6217 27.3091 75.8289 23.9803C74.5803 22.4903 73.3975 20.8735 73.2004 20.3345C73.0032 19.8273 72.7404 18.147 72.6747 16.6253C72.4775 13.3916 72.2475 12.9795 69.4547 11.648C65.7091 9.80924 60.6163 8.85816 53.5521 8.63624C50.8579 8.57283 48.1308 8.60454 47.5065 8.76305Z" fill="#4E2705"/>
<path d="M23.9812 12.821C21.747 13.0746 21.8455 13.5502 24.1784 13.5502C25.3283 13.5502 27.3326 13.8355 28.5811 14.1525C29.8625 14.5013 31.7354 14.85 32.7868 14.9768C35.251 15.2621 35.2839 14.7232 32.8525 13.677C31.0125 12.8527 27.0369 12.4723 23.9812 12.821Z" fill="#4E2705"/>
<path d="M39.8181 20.7784C39.1938 22.1416 39.1281 22.7439 39.5552 22.7439C40.2452 22.7439 42.0523 24.9314 43.0709 26.9604C44.9437 30.733 45.3709 35.9956 43.9909 38.7855C43.2352 40.3389 37.6824 45.7917 35.5139 47.1232C33.7068 48.2328 32.7539 48.3596 32.4582 47.5988C32.1625 46.8379 32.7868 45.3796 34.791 42.2093C37.091 38.4684 38.3724 35.3933 38.5367 33.0156C38.6681 31.3036 38.5695 30.9866 37.9124 30.3843C37.2224 29.7819 36.2367 29.5283 34.9882 29.7185C34.2653 29.8136 33.8053 30.6062 32.6882 33.6813C30.3882 40.0219 29.2383 42.0508 27.5626 42.78C26.8069 43.1287 26.6426 43.0653 26.1169 42.3996L25.5255 41.607L25.2955 42.4947C25.0983 43.2238 25.2626 43.5726 26.4126 44.7773C27.1354 45.5381 28.154 46.9647 28.6469 47.9158C29.5668 49.7229 29.994 50.0082 32.0311 50.0082C33.6082 50.0082 37.6167 48.8986 39.6867 47.8841C41.9209 46.8062 45.7323 43.0653 47.0794 40.6242C48.0651 38.7855 48.1308 38.5001 48.1308 35.3933C48.0979 28.6723 47.1122 25.185 44.4837 22.3001C43.4323 21.1588 41.2309 19.5737 40.6395 19.5737C40.5081 19.5737 40.1138 20.1126 39.8181 20.7784Z" fill="#4E2705"/>
<path d="M92.0272 22.9024C91.6329 23.9169 91.83 25.185 92.4872 25.7557C93.3414 26.4848 93.5714 26.2312 93.6043 24.6144C93.6371 23.6316 93.4728 23.1878 92.9471 22.8707C92.3229 22.4586 92.2243 22.4586 92.0272 22.9024Z" fill="#4E2705"/>
<path d="M33.3454 22.9658C31.0454 23.3463 26.1169 25.3118 26.1169 25.8508C26.1169 26.0093 26.5769 26.4531 27.1355 26.8336C28.0883 27.531 28.2854 27.5627 29.8626 27.214C30.7825 27.0238 32.2939 26.5165 33.2139 26.1044C35.0867 25.2484 37.3867 23.4731 37.091 23.0292C36.9267 22.7439 34.9225 22.7122 33.3454 22.9658Z" fill="#4E2705"/>
<path d="M37.2553 24.5193C36.0067 25.7557 32.2939 27.6895 30.5197 28.0065C29.8954 28.1017 29.4025 28.2602 29.4025 28.3236C29.4025 28.387 29.6983 28.8942 30.0597 29.4649C31.3739 31.5572 30.8154 33.9032 27.9569 38.405C26.8397 40.1804 26.3798 42.0825 27.0697 42.0825C27.6283 42.0825 29.3697 39.7682 30.0268 38.1514C30.3883 37.2637 31.144 35.2347 31.7025 33.6496C32.2611 32.0645 33.0168 30.3208 33.3782 29.7502C33.9368 28.8625 34.1339 28.7674 35.6453 28.7674C36.9596 28.7674 37.4853 28.9259 38.3067 29.6551C40.7052 31.7158 39.6209 36.2175 35.021 43.6359C33.4439 46.1722 33.0496 47.1549 33.6082 47.1549C34.8896 47.1549 42.0523 40.4657 43.1366 38.2465C44.3852 35.742 43.9252 30.4476 42.1838 27.0872C41.4281 25.6288 39.3581 23.378 38.7667 23.378C38.5695 23.378 37.8795 23.8852 37.2553 24.5193Z" fill="#4E2705"/>
<path d="M10.51 24.7729C8.4072 25.724 6.60009 27.6261 5.22012 30.4794C3.28158 34.4422 3.15015 38.405 4.9244 41.3217C5.68011 42.5581 7.58579 44.3017 8.17721 44.3017C8.30863 44.3017 8.83434 43.7945 9.3929 43.1921C10.8386 41.6387 12.2186 40.7193 13.5657 40.5291C15.1428 40.2755 15.2414 39.6731 13.73 39.1976C11.7586 38.5952 10.05 37.3271 9.1629 35.9005C8.11149 34.1252 8.07864 31.3987 9.13005 29.4015C10.1486 27.3725 10.8386 27.1506 14.8799 27.4042C16.7199 27.4993 18.2313 27.4993 18.2313 27.4042C18.2313 27.3091 17.607 26.897 16.8513 26.4531C16.0628 26.0093 15.0114 25.2801 14.4528 24.8363C13.2371 23.8218 12.6128 23.8218 10.51 24.7729Z" fill="#4E2705"/>
<path d="M15.7999 24.2656C15.3399 24.9948 20.6956 27.4676 22.7327 27.4993C23.6526 27.4993 24.4412 26.2946 23.7841 25.8825C22.2398 24.9314 16.1614 23.695 15.7999 24.2656Z" fill="#4E2705"/>
<path d="M24.8026 27.3091C24.8026 27.6261 25.0983 27.8163 25.4926 27.8163C26.2812 27.8163 26.1826 27.0872 25.3612 26.9287C25.0326 26.8653 24.8026 27.0238 24.8026 27.3091Z" fill="#4E2705"/>
<path d="M10.9043 28.4821C9.39291 29.3698 8.80149 33.8081 9.95147 35.4884C10.7729 36.6614 13.5328 38.5952 14.4528 38.5952C14.5842 38.5952 14.5514 37.8344 14.4528 36.8833C14.1571 34.6641 14.5842 33.8398 16.0956 33.8398C17.4099 33.8398 18.2313 34.7275 18.2313 36.1541C18.2313 37.2637 17.3113 38.8489 16.5228 39.1025C16.1942 39.1976 15.9314 39.5146 15.9314 39.8316C15.9314 40.2755 16.2928 40.4657 17.5085 40.5925C18.3628 40.6876 19.5127 40.8778 20.0384 40.9729L21.0241 41.1948V36.7882C21.0241 33.4277 21.1556 32.0962 21.5827 30.9866C21.9113 30.194 22.0098 29.4332 21.8784 29.3064C21.0241 28.4821 11.9886 27.8163 10.9043 28.4821Z" fill="#4E2705"/>
<path d="M23.6527 28.7674C23.5541 28.9259 23.9155 29.3381 24.4741 29.7185C26.2155 30.9232 26.544 31.9694 26.3798 35.6469C26.2812 37.4539 26.314 38.9123 26.4126 38.9123C26.6426 38.9123 27.5297 37.5173 28.8111 35.1396C30.0597 32.8254 30.0597 30.7964 28.8769 29.5283C28.0883 28.7357 27.7269 28.6406 25.8869 28.5772C24.7369 28.5455 23.7512 28.6406 23.6527 28.7674Z" fill="#4E2705"/>
<path d="M22.5027 31.2085C21.6484 34.252 21.4513 36.4077 21.8127 38.8489C22.1084 40.8461 22.3384 41.4168 23.0284 42.0191C23.5212 42.4312 24.0141 42.6532 24.1455 42.4947C24.8026 41.7972 25.1969 39.6414 25.3612 36.0273L25.5583 32.0328L24.5726 31.0183C24.0141 30.4794 23.4227 30.0355 23.2255 30.0355C23.0284 30.0355 22.6998 30.5745 22.5027 31.2085Z" fill="#4E2705"/>
<path d="M15.7014 34.6958C15.2414 34.8543 15.1428 36.3444 15.4714 37.549C15.8985 39.1025 17.2456 37.9612 17.2456 36.0907C17.2456 35.1079 16.4899 34.4422 15.7014 34.6958Z" fill="#4E2705"/>
<path d="M11.3643 42.5898C10.6086 43.2238 10.05 43.7945 10.1157 43.8896C10.28 44.0481 13.96 41.8289 13.96 41.607C13.96 41.068 12.5471 41.6387 11.3643 42.5898Z" fill="#4E2705"/>
<path d="M14.9785 41.8923C14.7814 42.1142 13.5657 43.0019 12.3171 43.7945C11.0357 44.6187 10.0172 45.4113 10.0172 45.5381C10.0172 45.6649 10.8057 46.1722 11.7914 46.616C13.3357 47.3452 13.6643 47.4086 14.5842 47.0598C15.4385 46.7428 15.7671 46.7745 16.7528 47.2817C17.837 47.8524 17.9685 47.8524 19.2827 47.3452C20.0713 47.0598 21.1884 46.3941 21.7798 45.8551L22.8641 44.8723L22.1084 43.5725C21.4841 42.463 21.0898 42.1776 19.8741 41.8606C17.8042 41.3534 15.4385 41.3534 14.9785 41.8923Z" fill="#4E2705"/>
<path d="M24.1455 44.9358C24.1455 45.7283 27.464 49.0571 27.6612 48.5182C27.8254 48.0743 26.8398 46.5843 25.5255 45.1577C24.5398 44.1432 24.1455 44.0798 24.1455 44.9358Z" fill="#4E2705"/>
<path d="M22.7327 46.3307C22.5355 46.8062 18.6256 48.7401 17.8371 48.7401C17.6071 48.7401 17.2128 49.0254 17.0156 49.3741C16.4571 50.1984 14.2557 50.7373 12.4814 50.452C11.0357 50.2618 11.0029 50.2618 8.96578 52.2591C7.8158 53.3687 6.56724 54.9538 6.14011 55.7781C5.45012 57.1413 5.41726 57.3632 5.8444 58.346C7.48723 62.0552 12.1857 64.2744 18.6256 64.2744C22.3713 64.2744 24.5726 63.5135 26.4455 61.5479C27.8583 60.0579 28.7454 58.4411 28.7454 57.2998C28.7454 56.4755 26.7083 54.3197 25.5255 53.8442C24.6712 53.4955 24.4741 53.5589 23.5212 54.4149C21.517 56.2219 14.9457 57.5217 13.5328 56.3804C12.7114 55.7464 12.81 54.0661 13.73 53.2736C14.65 52.4493 15.3071 52.2274 17.7056 51.9103C21.7798 51.3397 25.9526 52.4176 28.0883 54.6051C29.2711 55.8098 29.534 55.6196 29.2711 53.5906C28.9097 50.7056 28.7783 50.3886 27.2669 49.5644C26.4783 49.1205 25.2626 48.106 24.5398 47.3135C23.127 45.76 22.9955 45.6649 22.7327 46.3307Z" fill="#4E2705"/>
<path d="M9.03148 46.7745C9.03148 47.0915 9.49147 47.7573 10.0172 48.2645C10.8057 48.9937 11.1343 49.1205 11.5614 48.8669C12.5143 48.2962 12.35 47.9792 10.6743 47.0915C9.19576 46.299 9.03148 46.2673 9.03148 46.7745Z" fill="#4E2705"/>
<path d="M6.63295 48.1377C6.00868 48.8352 5.31869 50.0399 5.12155 50.8007C4.72727 52.3859 4.6287 55.3976 5.02297 55.3976C5.1544 55.3976 5.6144 54.7953 6.07439 54.0978C6.53438 53.3687 7.58579 52.164 8.47292 51.4031C9.32719 50.6105 10.0172 49.8814 10.0172 49.7229C10.0172 49.596 9.65575 49.1522 9.19576 48.7401C8.73577 48.3279 8.37435 47.8207 8.37435 47.5988C8.37435 46.7111 7.71722 46.9013 6.63295 48.1377Z" fill="#4E2705"/>
<path d="M13.1385 48.8669C12.7771 49.1205 12.58 49.4375 12.7114 49.5326C13.04 49.8497 15.9314 49.4058 15.9314 49.0254C15.9314 48.8669 15.7342 48.7401 15.5371 48.7401C15.3071 48.7401 14.8142 48.645 14.4528 48.5498C14.0914 48.4547 13.5 48.6133 13.1385 48.8669Z" fill="#4E2705"/>
<path d="M16.4242 52.9882C14.9785 53.4004 13.6314 54.3831 13.6314 55.1123C13.6314 55.7146 15.1099 56.0951 16.7199 55.9049C19.9399 55.5561 23.9484 53.8125 23.2255 53.115C22.6998 52.6078 18.1985 52.5127 16.4242 52.9882Z" fill="#4E2705"/>
<path d="M28.6797 60.153C27.4969 62.0869 25.9526 63.4501 23.9812 64.3378C22.5355 64.9718 21.8455 65.0669 18.2313 65.0352C14.6828 65.0352 13.7957 64.9084 11.7257 64.211C8.96576 63.2599 7.35579 62.182 6.10724 60.4383C5.64724 59.7726 5.1544 59.2336 5.05583 59.2019C4.69441 59.2019 4.13584 62.7526 4.30013 63.7988C4.85869 67.2227 6.43581 69.854 9.09719 71.7562C11.5286 73.4681 14.0257 74.3875 17.0813 74.6411L19.447 74.8313L19.6113 71.8196C19.7099 69.2834 19.8741 68.6176 20.6298 67.3495C21.1884 66.4301 21.8455 65.7961 22.3384 65.6693C23.5869 65.3522 25.4598 65.8278 27.2012 66.8423C28.0554 67.3495 28.8111 67.7617 28.9097 67.7617C28.9754 67.7617 29.2711 67.0325 29.5668 66.1131C30.0597 64.4646 30.1911 60.9456 29.764 59.519C29.5668 58.7898 29.5011 58.8215 28.6797 60.153Z" fill="#4E2705"/>
<path d="M21.9113 66.9057C20.8927 67.9202 20.2027 70.2662 20.2027 72.5805C20.2027 74.4509 20.3013 74.5777 21.6813 74.4192C23.4555 74.229 27.004 71.5343 28.0554 69.6004C28.614 68.5225 28.3511 68.1738 26.314 67.1593C23.9812 66.0497 22.7984 65.9863 21.9113 66.9057Z" fill="#4E2705"/>
<path d="M92.8157 67.6665C92.8157 67.7299 92.98 68.4274 93.1772 69.1883C93.5057 70.4564 93.4729 70.71 92.6843 72.0732C91.1401 74.7362 91.6986 78.0016 93.8343 78.7625C94.9843 79.2063 95.7728 80.7914 95.7728 82.6936C95.7728 83.8032 95.5757 84.1836 94.59 85.0713C93.9657 85.6736 93.6372 86.1492 93.9 86.1492C94.7543 86.1492 95.8385 87.6709 96.0028 89.0658C96.1343 90.2705 96.0357 90.6193 95.2471 91.5069C94.7214 92.1093 93.7029 92.8384 92.9472 93.1555L91.6 93.7578L91.4029 96.8647C91.0415 102.571 89.9572 103.776 83.9445 105.139C82.6959 105.424 83.0245 105.456 86.1459 105.361C89.103 105.266 90.0886 105.107 91.3372 104.537C93.6043 103.459 93.9329 102.825 93.67 99.6545C93.5386 98.1962 93.5715 96.6745 93.7686 96.2623C93.9329 95.8185 94.8857 94.487 95.9043 93.314C96.9228 92.1093 97.8428 90.7778 97.9414 90.3656C98.0728 89.9535 97.9085 88.7488 97.58 87.7026C97.12 86.0541 97.0871 85.4517 97.4157 83.5813C97.9414 80.5378 97.7114 79.5867 95.97 77.9382C93.67 75.7507 93.5386 75.1484 94.7543 72.6439C95.9043 70.2662 96.0357 69.0298 95.2143 68.3323C94.6557 67.8885 92.8157 67.3812 92.8157 67.6665Z" fill="#4E2705"/>
<path d="M28.1212 71.0587C27.5955 71.7879 27.2669 72.5487 27.3983 72.7073C27.5626 72.8658 28.0554 74.0071 28.5483 75.2118C29.3368 77.3041 29.5011 77.4627 31.0454 78.1601C32.9511 79.0161 33.7068 80.1257 34.0025 82.5034C34.1668 84.0568 34.1668 84.0568 35.7439 84.5006C36.631 84.7543 37.4196 84.8494 37.5181 84.7543C37.7481 84.564 35.6125 79.4916 33.9039 76.1628C32.5239 73.4681 29.8954 69.6638 29.4026 69.6638C29.2383 69.6638 28.6469 70.2979 28.1212 71.0587Z" fill="#4E2705"/>
<path d="M26.1169 73.5315C26.1169 74.1022 27.8583 76.8286 27.9897 76.4482C28.154 75.9409 26.8726 73.1511 26.4455 73.1511C26.2812 73.1511 26.1169 73.3096 26.1169 73.5315Z" fill="#4E2705"/>
<path d="M23.6527 74.6094C22.7655 75.0216 21.747 75.3703 21.4513 75.3703C20.6627 75.3703 20.6956 75.6556 21.6813 77.0188C22.2398 77.8431 23.4227 78.6357 25.9855 79.9672C27.8912 80.9499 29.534 81.7108 29.5997 81.6157C29.994 81.2353 28.5811 78.065 27.7269 77.3358C27.1683 76.9237 26.4126 75.9409 26.0183 75.2118L25.2955 73.8803L23.6527 74.6094Z" fill="#4E2705"/>
<path d="M29.8625 79.238C29.994 79.6501 30.1911 80.5061 30.2897 81.1719C30.454 82.1546 30.684 82.4717 31.7354 83.0106C33.3125 83.7715 33.3453 83.7715 33.3453 82.8204C33.3453 81.4572 32.4582 79.8403 31.3082 79.1746C29.9283 78.3503 29.5997 78.382 29.8625 79.238Z" fill="#4E2705"/>
<path d="M90.9758 79.7452C90.0558 80.0623 88.9058 80.6329 88.3801 81.0133C87.3616 81.8059 83.6159 85.8638 83.6159 86.1809C83.6159 86.3077 84.2402 86.276 85.0287 86.0858C85.7844 85.9273 87.9201 85.6736 89.7929 85.5151C94.4257 85.1664 95.51 84.3421 94.9843 81.6157C94.5571 79.4282 93.4729 78.921 90.9758 79.7452Z" fill="#4E2705"/>
<path d="M88.5444 86.3077C88.2815 86.3711 86.9344 86.593 85.5544 86.7832C82.3345 87.2905 81.8745 87.5441 82.9259 88.2733C87.263 91.3801 92.52 92.775 94.13 91.2216C94.82 90.5559 95.05 88.305 94.5243 87.5124C93.9657 86.6881 90.3515 85.959 88.5444 86.3077Z" fill="#4E2705"/>
<path d="M45.5023 99.0839C45.5023 101.588 44.6152 108.404 43.9909 110.719C43.6952 111.765 42.3809 114.682 41.0666 117.218C39.7524 119.754 38.6024 122.132 38.471 122.512C38.2738 123.114 38.5367 123.305 40.8038 124.351C44.0894 125.841 47.638 126.982 50.9236 127.553C54.0121 128.092 62.3577 128.155 66.1033 127.68C70.1118 127.141 78.786 125.746 79.0817 125.587C79.2131 125.492 78.9831 124.731 78.5231 123.875C77.0774 121.149 76.6503 118.518 76.4203 111.353L76.2232 104.695L73.2989 103.998C71.689 103.617 68.4362 103.078 66.0705 102.793C53.2893 101.303 50.6936 100.637 46.8494 97.8158C46.4223 97.4987 45.9294 97.2451 45.798 97.2451C45.6337 97.2451 45.5023 98.0694 45.5023 99.0839ZM73.1018 106.058C72.6089 107.295 72.4447 108.943 72.2804 114.555L72.0504 121.498L73.0361 123.4C73.5946 124.414 73.9889 125.334 73.9232 125.397C73.6275 125.682 73.0361 125.017 72.1818 123.463C71.2947 121.846 71.2947 121.72 71.3932 116.901C71.5247 110.529 71.8861 106.883 72.5432 105.393C73.3318 103.617 73.8246 104.251 73.1018 106.058Z" fill="#4E2705"/>
</svg>
