<svg width="40" height="40" viewBox="0 0 40 40" fill="none" xmlns="http://www.w3.org/2000/svg">
<mask id="path-1-outside-1_300_727" maskUnits="userSpaceOnUse" x="0" y="0" width="40" height="40" fill="black">
<rect fill="white" width="40" height="40"/>
<path d="M39.029 24.9793L29.4064 27.0194L32.6011 18.7827L32.7167 18.8213C32.7553 18.86 32.8323 18.86 32.8706 18.86C33.0245 18.86 33.1785 18.783 33.2171 18.6291L33.9099 16.9741C34.5642 16.9355 34.8723 17.128 35.3727 17.7053L35.4882 17.8209L38.0286 18.8603C38.0672 18.8989 38.1442 18.8989 38.1825 18.8989C38.3365 18.8989 38.4904 18.8219 38.529 18.668L39.4141 16.5126C39.4911 16.3201 39.4141 16.0892 39.1832 16.0123L36.7195 14.8569C36.6809 14.8569 36.6425 14.8182 36.6039 14.8182H36.3344C35.6801 14.8182 35.5262 14.7413 35.0642 14.2793L34.8717 14.0867C34.8331 14.0481 34.7947 14.0481 34.7561 14.0098L31.6383 12.7012C31.0224 12.4317 30.3681 12.2392 29.6752 12.0853L27.4043 11.5463C27.2117 11.5077 27.0195 11.5849 26.9423 11.7772L26.7497 12.2776C26.6728 12.4701 26.7497 12.701 26.9806 12.7779L28.1353 13.2783C29.0591 13.6631 30.3292 14.9333 30.791 15.3953L30.0598 17.1659L24.903 28.7133L1.30799 33.6016C1.11545 33.6402 1.00015 33.7941 1.00015 33.9864V37.4506C1.00015 37.4892 1.00015 37.4892 1.03876 37.5275C1.03876 37.5662 1.07737 37.5662 1.07737 37.6045C1.07737 37.6431 1.11598 37.6431 1.11598 37.6815L1.15459 37.7201L2.77126 38.9133C2.92518 39.0289 3.0791 39.0289 3.23328 38.9133L4.61908 37.9126L6.00489 38.9133C6.1588 39.0289 6.31273 39.0289 6.4669 38.9133L7.89103 37.9126L9.27683 38.9133C9.43075 39.0289 9.58467 39.0289 9.73885 38.9133L11.163 37.9126L12.5871 38.9133C12.741 39.0289 12.8949 39.0289 13.0491 38.9133L14.4732 37.9126L15.8974 38.9133C16.0513 39.0289 16.2052 39.0289 16.3594 38.9133L17.7835 37.9126L19.2076 38.9133C19.3615 39.0289 19.5155 39.0289 19.6696 38.9133L21.0554 37.9126L22.4796 38.9133C22.6335 39.0289 22.7874 39.0289 22.9416 38.9133L24.3657 37.9126L25.7898 38.9133C25.9437 39.0289 26.0977 39.0289 26.2518 38.9133L27.676 37.9126L29.1001 38.9133C29.177 38.9519 29.254 38.9903 29.331 38.9903C29.4465 38.9903 29.5235 38.9517 29.6005 38.8747L31.2555 37.1042C31.3324 37.0272 31.371 36.9502 31.371 36.8347V35.6414L39.106 35.6417C39.3369 35.6417 39.4908 35.4491 39.4908 35.2569L39.4911 25.3646C39.4911 25.2491 39.4525 25.1338 39.3372 25.0568C39.26 24.9796 39.1446 24.9412 39.0291 24.9796L39.029 24.9793ZM36.2576 16.9735L36.758 15.7419L38.5672 16.4732L37.9896 17.9359L36.1807 17.1661L36.2576 16.9735ZM34.4484 15.665L34.6793 15.0876C35.1027 15.4724 35.4105 15.588 35.9878 15.6266L35.5258 16.7043C35.141 16.3579 34.756 16.2039 34.2173 16.1653L34.4484 15.665ZM28.5594 12.6628L29.4832 12.8553C30.0991 13.0092 30.7147 13.2017 31.3307 13.4326L34.102 14.5873L33.9865 14.8568L32.6779 17.9359L32.524 17.8589L30.869 17.1661L31.5619 15.5111C31.6388 15.3572 31.6005 15.2032 31.4849 15.0877C31.408 15.0107 29.8297 13.2784 28.5594 12.6628L28.5594 12.6628ZM30.5611 17.8972L31.8696 18.4362L28.4824 27.1732L28.0204 27.2888C27.8278 27.3274 27.7125 27.4813 27.7125 27.6736V28.097L25.865 28.4818L30.5611 17.8972ZM30.4455 36.6035L29.1369 37.9893L27.7898 37.0269C27.6359 36.9113 27.482 36.9113 27.3278 37.0269L25.9036 38.0276L24.4795 37.0269C24.3256 36.9113 24.1717 36.9113 24.0175 37.0269L22.5934 38.0276L21.1693 37.0269C21.0153 36.9113 20.8614 36.9113 20.7072 37.0269L19.3214 38.0276L17.8973 37.0269C17.7434 36.9113 17.5895 36.9113 17.4353 37.0269L16.0112 38.0276L14.5871 37.0269C14.4331 36.9113 14.2792 36.9113 14.125 37.0269L12.7009 38.0276L11.2768 37.0269C11.1229 36.9113 10.969 36.9113 10.8148 37.0269L9.39065 38.0276L8.00485 37.0269C7.85093 36.9113 7.69701 36.9113 7.54283 37.0269L6.11871 38.0276L4.7329 37.0269C4.57899 36.9113 4.42507 36.9113 4.27089 37.0269L2.88508 38.0276L1.76982 37.1425V34.3325L27.6742 28.9438V32.4463C27.6742 32.5619 27.7128 32.6389 27.7897 32.7158L30.4071 35.3332L30.4069 36.6034L30.4455 36.6035ZM38.7208 34.7945H31.0223L28.5205 32.2927V27.9817L38.7206 25.826L38.7208 34.7945Z"/>
<path d="M31.4849 31.1383L31.4463 32.7933C31.4463 32.9088 31.4849 32.9858 31.5618 33.0627C31.6388 33.1397 31.7544 33.1783 31.8313 33.1783H36.7582C36.9891 33.1783 37.143 32.9858 37.143 32.7935L37.1428 28.2516C37.1428 28.1361 37.1041 28.0207 36.9888 27.9438C36.9119 27.8668 36.758 27.8282 36.6424 27.8668L30.3683 29.1754C30.2143 29.214 30.0988 29.291 30.0604 29.4449C30.0218 29.5988 30.0604 29.7144 30.176 29.8297L31.4849 31.1383ZM36.3346 28.752V32.4471H32.2161L32.2547 31.023C32.2547 30.9074 32.2161 30.7921 32.1392 30.7151L31.2154 29.83L36.3346 28.752Z"/>
<path d="M3.50204 31.4463C4.15632 31.4463 4.77227 31.2154 5.27259 30.715L6.7737 29.2139C6.92761 29.06 6.92761 28.8292 6.7737 28.675L6.08083 27.9821L11.4309 22.632C12.4316 23.5944 13.8174 24.2101 15.3185 24.2101C18.4749 24.2101 21.0151 21.6697 21.0151 18.5136L21.0153 13.009L26.1732 7.9284L26.8661 8.62127C26.943 8.69822 27.0586 8.73683 27.1355 8.73683C27.2511 8.73683 27.3281 8.69822 27.405 8.62127L28.9061 7.12016C29.3682 6.65815 29.6374 6.00388 29.6374 5.34961C29.6374 4.69532 29.3679 4.04105 28.9061 3.57905C28.1363 2.77082 26.943 2.65525 25.9809 3.11703L25.9806 1.38479C25.9806 1.15392 25.7881 1 25.5959 1H5.15712C4.92624 1 4.77233 1.19253 4.77233 1.38479V5.31073C4.77233 5.54161 4.96486 5.69553 5.15712 5.69553H7.08163L9.50647 11.7385C9.54508 11.8155 9.58343 11.8924 9.66038 11.9311V18.4744C9.66038 19.2442 9.8143 19.9755 10.0838 20.6298L4.42589 26.3268L3.7716 25.6725C3.61769 25.5186 3.38681 25.5186 3.23263 25.6725L1.73153 27.1736C1.26951 27.6356 1 28.2516 1 28.9442C1 29.637 1.26949 30.2527 1.73126 30.7147C2.23188 31.1767 2.84754 31.4463 3.50208 31.4463L3.50204 31.4463ZM20.2842 18.4752C20.2842 21.1695 18.0902 23.4021 15.3572 23.4021C14.0487 23.4021 12.8937 22.9017 12.0086 22.0549L13.9331 20.1304C14.3565 20.323 14.8569 20.4769 15.3572 20.4769C17.2048 20.4769 18.7059 18.9758 18.7059 17.1282C18.7059 16.6279 18.5903 16.1275 18.3594 15.7041L20.2455 13.818V18.4752L20.2842 18.4752ZM14.549 19.5143L17.7823 16.2809C17.8593 16.5504 17.9363 16.8199 17.9363 17.0892C17.9363 18.5133 16.7816 19.6296 15.3958 19.6296C15.0494 19.6682 14.7799 19.6298 14.549 19.5143ZM25.9034 4.11802C26.5577 3.46374 27.674 3.46374 28.3282 4.11802C28.6361 4.42586 28.8286 4.88787 28.8286 5.3496C28.8286 5.81162 28.6361 6.23474 28.3282 6.58118L27.0967 7.81275L26.5577 7.27378C26.5577 7.19682 26.5191 7.15821 26.4807 7.11987L25.3644 6.00359C25.3258 5.96497 25.2489 5.92663 25.2105 5.92663L24.7102 5.42627L25.9034 4.11802ZM5.54185 4.92626V1.77016H25.1722V3.69468L23.979 4.88794H5.54219L5.54185 4.92626ZM24.4789 6.23508L22.7084 8.00564L23.6322 5.6961H23.94L24.4789 6.23508ZM7.92769 5.69611H22.785L21.2839 9.42977L19.5134 11.2003H10.1217L7.92769 5.69611ZM15.3567 13.7791C13.5092 13.7791 12.0081 15.2802 12.0081 17.1278C12.0081 17.5898 12.1236 18.0516 12.2775 18.4363L10.6995 20.0144C10.5455 19.514 10.43 19.0137 10.43 18.4747L10.4297 12.0086H18.705L16.6649 14.0872C16.2801 13.8947 15.8184 13.7791 15.3564 13.7791L15.3567 13.7791ZM16.0496 14.6645L12.8932 17.8209C12.8162 17.59 12.7776 17.3589 12.7776 17.128C12.7776 15.7039 13.9323 14.5876 15.318 14.5876C15.5875 14.5876 15.8187 14.6259 16.0496 14.6645ZM25.0567 6.81239L25.5957 7.35136L5.54218 27.4049L5.00321 26.8659L25.0567 6.81239ZM2.27005 27.7129L3.50163 26.4813L5.92647 28.9061L4.69489 30.1377C4.0406 30.792 2.92433 30.792 2.27005 30.1377C1.96222 29.8299 1.76969 29.3678 1.76969 28.9061C1.76969 28.4827 1.96222 28.0593 2.27005 27.7129Z"/>
</mask>
<path d="M39.029 24.9793L29.4064 27.0194L32.6011 18.7827L32.7167 18.8213C32.7553 18.86 32.8323 18.86 32.8706 18.86C33.0245 18.86 33.1785 18.783 33.2171 18.6291L33.9099 16.9741C34.5642 16.9355 34.8723 17.128 35.3727 17.7053L35.4882 17.8209L38.0286 18.8603C38.0672 18.8989 38.1442 18.8989 38.1825 18.8989C38.3365 18.8989 38.4904 18.8219 38.529 18.668L39.4141 16.5126C39.4911 16.3201 39.4141 16.0892 39.1832 16.0123L36.7195 14.8569C36.6809 14.8569 36.6425 14.8182 36.6039 14.8182H36.3344C35.6801 14.8182 35.5262 14.7413 35.0642 14.2793L34.8717 14.0867C34.8331 14.0481 34.7947 14.0481 34.7561 14.0098L31.6383 12.7012C31.0224 12.4317 30.3681 12.2392 29.6752 12.0853L27.4043 11.5463C27.2117 11.5077 27.0195 11.5849 26.9423 11.7772L26.7497 12.2776C26.6728 12.4701 26.7497 12.701 26.9806 12.7779L28.1353 13.2783C29.0591 13.6631 30.3292 14.9333 30.791 15.3953L30.0598 17.1659L24.903 28.7133L1.30799 33.6016C1.11545 33.6402 1.00015 33.7941 1.00015 33.9864V37.4506C1.00015 37.4892 1.00015 37.4892 1.03876 37.5275C1.03876 37.5662 1.07737 37.5662 1.07737 37.6045C1.07737 37.6431 1.11598 37.6431 1.11598 37.6815L1.15459 37.7201L2.77126 38.9133C2.92518 39.0289 3.0791 39.0289 3.23328 38.9133L4.61908 37.9126L6.00489 38.9133C6.1588 39.0289 6.31273 39.0289 6.4669 38.9133L7.89103 37.9126L9.27683 38.9133C9.43075 39.0289 9.58467 39.0289 9.73885 38.9133L11.163 37.9126L12.5871 38.9133C12.741 39.0289 12.8949 39.0289 13.0491 38.9133L14.4732 37.9126L15.8974 38.9133C16.0513 39.0289 16.2052 39.0289 16.3594 38.9133L17.7835 37.9126L19.2076 38.9133C19.3615 39.0289 19.5155 39.0289 19.6696 38.9133L21.0554 37.9126L22.4796 38.9133C22.6335 39.0289 22.7874 39.0289 22.9416 38.9133L24.3657 37.9126L25.7898 38.9133C25.9437 39.0289 26.0977 39.0289 26.2518 38.9133L27.676 37.9126L29.1001 38.9133C29.177 38.9519 29.254 38.9903 29.331 38.9903C29.4465 38.9903 29.5235 38.9517 29.6005 38.8747L31.2555 37.1042C31.3324 37.0272 31.371 36.9502 31.371 36.8347V35.6414L39.106 35.6417C39.3369 35.6417 39.4908 35.4491 39.4908 35.2569L39.4911 25.3646C39.4911 25.2491 39.4525 25.1338 39.3372 25.0568C39.26 24.9796 39.1446 24.9412 39.0291 24.9796L39.029 24.9793ZM36.2576 16.9735L36.758 15.7419L38.5672 16.4732L37.9896 17.9359L36.1807 17.1661L36.2576 16.9735ZM34.4484 15.665L34.6793 15.0876C35.1027 15.4724 35.4105 15.588 35.9878 15.6266L35.5258 16.7043C35.141 16.3579 34.756 16.2039 34.2173 16.1653L34.4484 15.665ZM28.5594 12.6628L29.4832 12.8553C30.0991 13.0092 30.7147 13.2017 31.3307 13.4326L34.102 14.5873L33.9865 14.8568L32.6779 17.9359L32.524 17.8589L30.869 17.1661L31.5619 15.5111C31.6388 15.3572 31.6005 15.2032 31.4849 15.0877C31.408 15.0107 29.8297 13.2784 28.5594 12.6628L28.5594 12.6628ZM30.5611 17.8972L31.8696 18.4362L28.4824 27.1732L28.0204 27.2888C27.8278 27.3274 27.7125 27.4813 27.7125 27.6736V28.097L25.865 28.4818L30.5611 17.8972ZM30.4455 36.6035L29.1369 37.9893L27.7898 37.0269C27.6359 36.9113 27.482 36.9113 27.3278 37.0269L25.9036 38.0276L24.4795 37.0269C24.3256 36.9113 24.1717 36.9113 24.0175 37.0269L22.5934 38.0276L21.1693 37.0269C21.0153 36.9113 20.8614 36.9113 20.7072 37.0269L19.3214 38.0276L17.8973 37.0269C17.7434 36.9113 17.5895 36.9113 17.4353 37.0269L16.0112 38.0276L14.5871 37.0269C14.4331 36.9113 14.2792 36.9113 14.125 37.0269L12.7009 38.0276L11.2768 37.0269C11.1229 36.9113 10.969 36.9113 10.8148 37.0269L9.39065 38.0276L8.00485 37.0269C7.85093 36.9113 7.69701 36.9113 7.54283 37.0269L6.11871 38.0276L4.7329 37.0269C4.57899 36.9113 4.42507 36.9113 4.27089 37.0269L2.88508 38.0276L1.76982 37.1425V34.3325L27.6742 28.9438V32.4463C27.6742 32.5619 27.7128 32.6389 27.7897 32.7158L30.4071 35.3332L30.4069 36.6034L30.4455 36.6035ZM38.7208 34.7945H31.0223L28.5205 32.2927V27.9817L38.7206 25.826L38.7208 34.7945Z" fill="#785436"/>
<path d="M31.4849 31.1383L31.4463 32.7933C31.4463 32.9088 31.4849 32.9858 31.5618 33.0627C31.6388 33.1397 31.7544 33.1783 31.8313 33.1783H36.7582C36.9891 33.1783 37.143 32.9858 37.143 32.7935L37.1428 28.2516C37.1428 28.1361 37.1041 28.0207 36.9888 27.9438C36.9119 27.8668 36.758 27.8282 36.6424 27.8668L30.3683 29.1754C30.2143 29.214 30.0988 29.291 30.0604 29.4449C30.0218 29.5988 30.0604 29.7144 30.176 29.8297L31.4849 31.1383ZM36.3346 28.752V32.4471H32.2161L32.2547 31.023C32.2547 30.9074 32.2161 30.7921 32.1392 30.7151L31.2154 29.83L36.3346 28.752Z" fill="#785436"/>
<path d="M3.50204 31.4463C4.15632 31.4463 4.77227 31.2154 5.27259 30.715L6.7737 29.2139C6.92761 29.06 6.92761 28.8292 6.7737 28.675L6.08083 27.9821L11.4309 22.632C12.4316 23.5944 13.8174 24.2101 15.3185 24.2101C18.4749 24.2101 21.0151 21.6697 21.0151 18.5136L21.0153 13.009L26.1732 7.9284L26.8661 8.62127C26.943 8.69822 27.0586 8.73683 27.1355 8.73683C27.2511 8.73683 27.3281 8.69822 27.405 8.62127L28.9061 7.12016C29.3682 6.65815 29.6374 6.00388 29.6374 5.34961C29.6374 4.69532 29.3679 4.04105 28.9061 3.57905C28.1363 2.77082 26.943 2.65525 25.9809 3.11703L25.9806 1.38479C25.9806 1.15392 25.7881 1 25.5959 1H5.15712C4.92624 1 4.77233 1.19253 4.77233 1.38479V5.31073C4.77233 5.54161 4.96486 5.69553 5.15712 5.69553H7.08163L9.50647 11.7385C9.54508 11.8155 9.58343 11.8924 9.66038 11.9311V18.4744C9.66038 19.2442 9.8143 19.9755 10.0838 20.6298L4.42589 26.3268L3.7716 25.6725C3.61769 25.5186 3.38681 25.5186 3.23263 25.6725L1.73153 27.1736C1.26951 27.6356 1 28.2516 1 28.9442C1 29.637 1.26949 30.2527 1.73126 30.7147C2.23188 31.1767 2.84754 31.4463 3.50208 31.4463L3.50204 31.4463ZM20.2842 18.4752C20.2842 21.1695 18.0902 23.4021 15.3572 23.4021C14.0487 23.4021 12.8937 22.9017 12.0086 22.0549L13.9331 20.1304C14.3565 20.323 14.8569 20.4769 15.3572 20.4769C17.2048 20.4769 18.7059 18.9758 18.7059 17.1282C18.7059 16.6279 18.5903 16.1275 18.3594 15.7041L20.2455 13.818V18.4752L20.2842 18.4752ZM14.549 19.5143L17.7823 16.2809C17.8593 16.5504 17.9363 16.8199 17.9363 17.0892C17.9363 18.5133 16.7816 19.6296 15.3958 19.6296C15.0494 19.6682 14.7799 19.6298 14.549 19.5143ZM25.9034 4.11802C26.5577 3.46374 27.674 3.46374 28.3282 4.11802C28.6361 4.42586 28.8286 4.88787 28.8286 5.3496C28.8286 5.81162 28.6361 6.23474 28.3282 6.58118L27.0967 7.81275L26.5577 7.27378C26.5577 7.19682 26.5191 7.15821 26.4807 7.11987L25.3644 6.00359C25.3258 5.96497 25.2489 5.92663 25.2105 5.92663L24.7102 5.42627L25.9034 4.11802ZM5.54185 4.92626V1.77016H25.1722V3.69468L23.979 4.88794H5.54219L5.54185 4.92626ZM24.4789 6.23508L22.7084 8.00564L23.6322 5.6961H23.94L24.4789 6.23508ZM7.92769 5.69611H22.785L21.2839 9.42977L19.5134 11.2003H10.1217L7.92769 5.69611ZM15.3567 13.7791C13.5092 13.7791 12.0081 15.2802 12.0081 17.1278C12.0081 17.5898 12.1236 18.0516 12.2775 18.4363L10.6995 20.0144C10.5455 19.514 10.43 19.0137 10.43 18.4747L10.4297 12.0086H18.705L16.6649 14.0872C16.2801 13.8947 15.8184 13.7791 15.3564 13.7791L15.3567 13.7791ZM16.0496 14.6645L12.8932 17.8209C12.8162 17.59 12.7776 17.3589 12.7776 17.128C12.7776 15.7039 13.9323 14.5876 15.318 14.5876C15.5875 14.5876 15.8187 14.6259 16.0496 14.6645ZM25.0567 6.81239L25.5957 7.35136L5.54218 27.4049L5.00321 26.8659L25.0567 6.81239ZM2.27005 27.7129L3.50163 26.4813L5.92647 28.9061L4.69489 30.1377C4.0406 30.792 2.92433 30.792 2.27005 30.1377C1.96222 29.8299 1.76969 29.3678 1.76969 28.9061C1.76969 28.4827 1.96222 28.0593 2.27005 27.7129Z" fill="#785436"/>
<path d="M39.029 24.9793L29.4064 27.0194L32.6011 18.7827L32.7167 18.8213C32.7553 18.86 32.8323 18.86 32.8706 18.86C33.0245 18.86 33.1785 18.783 33.2171 18.6291L33.9099 16.9741C34.5642 16.9355 34.8723 17.128 35.3727 17.7053L35.4882 17.8209L38.0286 18.8603C38.0672 18.8989 38.1442 18.8989 38.1825 18.8989C38.3365 18.8989 38.4904 18.8219 38.529 18.668L39.4141 16.5126C39.4911 16.3201 39.4141 16.0892 39.1832 16.0123L36.7195 14.8569C36.6809 14.8569 36.6425 14.8182 36.6039 14.8182H36.3344C35.6801 14.8182 35.5262 14.7413 35.0642 14.2793L34.8717 14.0867C34.8331 14.0481 34.7947 14.0481 34.7561 14.0098L31.6383 12.7012C31.0224 12.4317 30.3681 12.2392 29.6752 12.0853L27.4043 11.5463C27.2117 11.5077 27.0195 11.5849 26.9423 11.7772L26.7497 12.2776C26.6728 12.4701 26.7497 12.701 26.9806 12.7779L28.1353 13.2783C29.0591 13.6631 30.3292 14.9333 30.791 15.3953L30.0598 17.1659L24.903 28.7133L1.30799 33.6016C1.11545 33.6402 1.00015 33.7941 1.00015 33.9864V37.4506C1.00015 37.4892 1.00015 37.4892 1.03876 37.5275C1.03876 37.5662 1.07737 37.5662 1.07737 37.6045C1.07737 37.6431 1.11598 37.6431 1.11598 37.6815L1.15459 37.7201L2.77126 38.9133C2.92518 39.0289 3.0791 39.0289 3.23328 38.9133L4.61908 37.9126L6.00489 38.9133C6.1588 39.0289 6.31273 39.0289 6.4669 38.9133L7.89103 37.9126L9.27683 38.9133C9.43075 39.0289 9.58467 39.0289 9.73885 38.9133L11.163 37.9126L12.5871 38.9133C12.741 39.0289 12.8949 39.0289 13.0491 38.9133L14.4732 37.9126L15.8974 38.9133C16.0513 39.0289 16.2052 39.0289 16.3594 38.9133L17.7835 37.9126L19.2076 38.9133C19.3615 39.0289 19.5155 39.0289 19.6696 38.9133L21.0554 37.9126L22.4796 38.9133C22.6335 39.0289 22.7874 39.0289 22.9416 38.9133L24.3657 37.9126L25.7898 38.9133C25.9437 39.0289 26.0977 39.0289 26.2518 38.9133L27.676 37.9126L29.1001 38.9133C29.177 38.9519 29.254 38.9903 29.331 38.9903C29.4465 38.9903 29.5235 38.9517 29.6005 38.8747L31.2555 37.1042C31.3324 37.0272 31.371 36.9502 31.371 36.8347V35.6414L39.106 35.6417C39.3369 35.6417 39.4908 35.4491 39.4908 35.2569L39.4911 25.3646C39.4911 25.2491 39.4525 25.1338 39.3372 25.0568C39.26 24.9796 39.1446 24.9412 39.0291 24.9796L39.029 24.9793ZM36.2576 16.9735L36.758 15.7419L38.5672 16.4732L37.9896 17.9359L36.1807 17.1661L36.2576 16.9735ZM34.4484 15.665L34.6793 15.0876C35.1027 15.4724 35.4105 15.588 35.9878 15.6266L35.5258 16.7043C35.141 16.3579 34.756 16.2039 34.2173 16.1653L34.4484 15.665ZM28.5594 12.6628L29.4832 12.8553C30.0991 13.0092 30.7147 13.2017 31.3307 13.4326L34.102 14.5873L33.9865 14.8568L32.6779 17.9359L32.524 17.8589L30.869 17.1661L31.5619 15.5111C31.6388 15.3572 31.6005 15.2032 31.4849 15.0877C31.408 15.0107 29.8297 13.2784 28.5594 12.6628L28.5594 12.6628ZM30.5611 17.8972L31.8696 18.4362L28.4824 27.1732L28.0204 27.2888C27.8278 27.3274 27.7125 27.4813 27.7125 27.6736V28.097L25.865 28.4818L30.5611 17.8972ZM30.4455 36.6035L29.1369 37.9893L27.7898 37.0269C27.6359 36.9113 27.482 36.9113 27.3278 37.0269L25.9036 38.0276L24.4795 37.0269C24.3256 36.9113 24.1717 36.9113 24.0175 37.0269L22.5934 38.0276L21.1693 37.0269C21.0153 36.9113 20.8614 36.9113 20.7072 37.0269L19.3214 38.0276L17.8973 37.0269C17.7434 36.9113 17.5895 36.9113 17.4353 37.0269L16.0112 38.0276L14.5871 37.0269C14.4331 36.9113 14.2792 36.9113 14.125 37.0269L12.7009 38.0276L11.2768 37.0269C11.1229 36.9113 10.969 36.9113 10.8148 37.0269L9.39065 38.0276L8.00485 37.0269C7.85093 36.9113 7.69701 36.9113 7.54283 37.0269L6.11871 38.0276L4.7329 37.0269C4.57899 36.9113 4.42507 36.9113 4.27089 37.0269L2.88508 38.0276L1.76982 37.1425V34.3325L27.6742 28.9438V32.4463C27.6742 32.5619 27.7128 32.6389 27.7897 32.7158L30.4071 35.3332L30.4069 36.6034L30.4455 36.6035ZM38.7208 34.7945H31.0223L28.5205 32.2927V27.9817L38.7206 25.826L38.7208 34.7945Z" stroke="#785436" stroke-width="0.4" mask="url(#path-1-outside-1_300_727)"/>
<path d="M31.4849 31.1383L31.4463 32.7933C31.4463 32.9088 31.4849 32.9858 31.5618 33.0627C31.6388 33.1397 31.7544 33.1783 31.8313 33.1783H36.7582C36.9891 33.1783 37.143 32.9858 37.143 32.7935L37.1428 28.2516C37.1428 28.1361 37.1041 28.0207 36.9888 27.9438C36.9119 27.8668 36.758 27.8282 36.6424 27.8668L30.3683 29.1754C30.2143 29.214 30.0988 29.291 30.0604 29.4449C30.0218 29.5988 30.0604 29.7144 30.176 29.8297L31.4849 31.1383ZM36.3346 28.752V32.4471H32.2161L32.2547 31.023C32.2547 30.9074 32.2161 30.7921 32.1392 30.7151L31.2154 29.83L36.3346 28.752Z" stroke="#785436" stroke-width="0.4" mask="url(#path-1-outside-1_300_727)"/>
<path d="M3.50204 31.4463C4.15632 31.4463 4.77227 31.2154 5.27259 30.715L6.7737 29.2139C6.92761 29.06 6.92761 28.8292 6.7737 28.675L6.08083 27.9821L11.4309 22.632C12.4316 23.5944 13.8174 24.2101 15.3185 24.2101C18.4749 24.2101 21.0151 21.6697 21.0151 18.5136L21.0153 13.009L26.1732 7.9284L26.8661 8.62127C26.943 8.69822 27.0586 8.73683 27.1355 8.73683C27.2511 8.73683 27.3281 8.69822 27.405 8.62127L28.9061 7.12016C29.3682 6.65815 29.6374 6.00388 29.6374 5.34961C29.6374 4.69532 29.3679 4.04105 28.9061 3.57905C28.1363 2.77082 26.943 2.65525 25.9809 3.11703L25.9806 1.38479C25.9806 1.15392 25.7881 1 25.5959 1H5.15712C4.92624 1 4.77233 1.19253 4.77233 1.38479V5.31073C4.77233 5.54161 4.96486 5.69553 5.15712 5.69553H7.08163L9.50647 11.7385C9.54508 11.8155 9.58343 11.8924 9.66038 11.9311V18.4744C9.66038 19.2442 9.8143 19.9755 10.0838 20.6298L4.42589 26.3268L3.7716 25.6725C3.61769 25.5186 3.38681 25.5186 3.23263 25.6725L1.73153 27.1736C1.26951 27.6356 1 28.2516 1 28.9442C1 29.637 1.26949 30.2527 1.73126 30.7147C2.23188 31.1767 2.84754 31.4463 3.50208 31.4463L3.50204 31.4463ZM20.2842 18.4752C20.2842 21.1695 18.0902 23.4021 15.3572 23.4021C14.0487 23.4021 12.8937 22.9017 12.0086 22.0549L13.9331 20.1304C14.3565 20.323 14.8569 20.4769 15.3572 20.4769C17.2048 20.4769 18.7059 18.9758 18.7059 17.1282C18.7059 16.6279 18.5903 16.1275 18.3594 15.7041L20.2455 13.818V18.4752L20.2842 18.4752ZM14.549 19.5143L17.7823 16.2809C17.8593 16.5504 17.9363 16.8199 17.9363 17.0892C17.9363 18.5133 16.7816 19.6296 15.3958 19.6296C15.0494 19.6682 14.7799 19.6298 14.549 19.5143ZM25.9034 4.11802C26.5577 3.46374 27.674 3.46374 28.3282 4.11802C28.6361 4.42586 28.8286 4.88787 28.8286 5.3496C28.8286 5.81162 28.6361 6.23474 28.3282 6.58118L27.0967 7.81275L26.5577 7.27378C26.5577 7.19682 26.5191 7.15821 26.4807 7.11987L25.3644 6.00359C25.3258 5.96497 25.2489 5.92663 25.2105 5.92663L24.7102 5.42627L25.9034 4.11802ZM5.54185 4.92626V1.77016H25.1722V3.69468L23.979 4.88794H5.54219L5.54185 4.92626ZM24.4789 6.23508L22.7084 8.00564L23.6322 5.6961H23.94L24.4789 6.23508ZM7.92769 5.69611H22.785L21.2839 9.42977L19.5134 11.2003H10.1217L7.92769 5.69611ZM15.3567 13.7791C13.5092 13.7791 12.0081 15.2802 12.0081 17.1278C12.0081 17.5898 12.1236 18.0516 12.2775 18.4363L10.6995 20.0144C10.5455 19.514 10.43 19.0137 10.43 18.4747L10.4297 12.0086H18.705L16.6649 14.0872C16.2801 13.8947 15.8184 13.7791 15.3564 13.7791L15.3567 13.7791ZM16.0496 14.6645L12.8932 17.8209C12.8162 17.59 12.7776 17.3589 12.7776 17.128C12.7776 15.7039 13.9323 14.5876 15.318 14.5876C15.5875 14.5876 15.8187 14.6259 16.0496 14.6645ZM25.0567 6.81239L25.5957 7.35136L5.54218 27.4049L5.00321 26.8659L25.0567 6.81239ZM2.27005 27.7129L3.50163 26.4813L5.92647 28.9061L4.69489 30.1377C4.0406 30.792 2.92433 30.792 2.27005 30.1377C1.96222 29.8299 1.76969 29.3678 1.76969 28.9061C1.76969 28.4827 1.96222 28.0593 2.27005 27.7129Z" stroke="#785436" stroke-width="0.4" mask="url(#path-1-outside-1_300_727)"/>
</svg>
