<svg width="87" height="62" viewBox="0 0 87 62" fill="none" xmlns="http://www.w3.org/2000/svg">
<path d="M51.9674 1.65993V1.09396C51.9674 0.433665 51.6017 0.103516 50.8703 0.103516L40.0451 0.174261C39.2649 0.174261 38.8748 0.457247 38.8748 1.02322L38.8017 1.3062V1.94292C38.8504 2.17874 38.9236 2.39098 39.0211 2.57963C39.1186 2.81545 39.46 3.31068 40.0451 4.06531C40.679 4.81993 41.0935 5.48023 41.2885 6.0462C41.4836 6.61217 41.4592 7.57904 41.2154 8.9468L39.581 13.7498L44.0537 13.7499L45.604 9.30053C46.2379 7.8856 47.4569 6.39993 49.2611 4.84351C51.0653 3.2871 51.9674 2.2259 51.9674 1.65993Z" fill="#4E2705"/>
<path d="M40.4843 23.9943L34.4131 41.4193C33.9743 43.2587 33.9986 44.5557 34.4863 45.3104C34.8763 46.0178 34.7057 46.5838 33.9743 47.0083C32.1213 47.8101 30.1221 48.211 27.9765 48.211C27.3426 48.211 26.855 48.1874 26.5137 48.1402H26.5868C25.2702 48.0931 24.0512 47.7393 22.9297 47.079C21.8082 46.4187 20.8329 45.5226 20.004 44.3907C19.2238 43.2116 18.6143 42.2683 18.1754 41.5608C17.7853 40.8062 17.3464 39.8629 16.8588 38.731C16.2249 37.3161 15.1278 34.1796 13.5674 29.3217C12.0558 24.4638 10.6661 19.9596 9.39825 15.8092C8.13044 11.6116 7.49653 9.44202 7.49653 9.30053C7.00891 8.12143 6.20434 7.01307 5.08282 5.97546C4.01006 4.93784 3.0592 4.08889 2.23025 3.42859C1.40129 2.76829 0.986816 2.17874 0.986816 1.65993V1.09396C0.986816 0.433665 1.32815 0.103516 2.01082 0.103516L22.3445 0.174261C23.1247 0.174261 23.5148 0.457247 23.5148 1.02322C23.6611 1.68352 23.6123 2.20232 23.3685 2.57963C23.271 2.81545 22.9053 3.2871 22.2714 3.99456C21.6862 4.70202 21.2474 5.45665 20.9548 6.25844C20.711 7.06023 20.7354 7.93277 21.028 8.87605L21.1742 9.22978C24.4413 24.6053 26.8794 33.9438 28.4885 37.2453C28.8786 37.9056 29.415 38.2358 30.0977 38.2358C30.8779 38.2358 31.3899 37.8584 31.6337 37.1038L37.5584 19.6932C39.2463 21.3377 40.2218 22.8874 40.4843 23.9943Z" fill="#4E2705"/>
<path d="M77.1277 48.66C77.1725 52.6078 75.6302 55.7428 72.5011 58.065C69.372 60.3872 65.2371 61.6644 60.0963 61.8966H60.1634H37.5666C37.3431 61.8966 37.1196 61.8037 36.8961 61.618C36.7173 61.4322 36.6279 61.2232 36.6279 60.991C36.4491 60.3407 36.4491 59.8299 36.6279 59.4583C36.6726 59.319 37.4102 58.483 38.8406 56.9503C40.2711 55.3712 40.9863 54.0708 40.9863 53.049V23.5801C40.9863 22.5119 40.2711 21.2114 38.8406 19.6788C37.4549 18.1461 36.7173 17.2637 36.6279 17.0314C36.5385 16.8921 36.4938 16.7063 36.4938 16.4741C36.4938 16.1954 36.5161 15.9632 36.5608 15.7774L36.6279 15.4988C36.6279 14.9879 36.9408 14.7325 37.5666 14.7325H58.2189C62.6443 14.7325 66.2652 15.8239 69.0814 18.0068C71.8976 20.1432 73.3281 22.8138 73.3728 26.0184C73.3728 28.4335 72.5682 30.6164 70.9589 32.5671C69.3943 34.4713 67.2039 35.8646 64.3877 36.747C68.2768 37.3508 71.3612 38.7441 73.641 40.927C75.9208 43.1099 77.083 45.6876 77.1277 48.66ZM62.7785 24.3464C61.4374 19.4233 59.2694 16.9618 56.2743 16.9618C53.8604 16.9618 52.3853 18.4944 51.8489 21.5598V25.3217C51.8489 25.3682 51.8712 25.4379 51.9159 25.5307V25.6004C52.8546 32.0097 55.0897 35.2144 58.6212 35.2144C59.0682 35.2144 59.6046 35.1215 60.2305 34.9357C61.7503 34.4248 62.7338 33.0779 63.1808 30.8951C63.6278 28.6657 63.4937 26.4829 62.7785 24.3464ZM58.8894 58.8313C61.1692 58.8313 63.069 57.8792 64.5889 55.975C66.1087 54.0708 66.6228 51.6789 66.1311 48.7993C65.7735 46.8487 65.0806 45.2928 64.0525 44.1317C63.069 42.9706 61.4821 41.972 59.2917 41.136C59.1576 41.0896 58.7106 40.927 57.9507 40.6484C57.2354 40.3697 56.699 40.1607 56.3414 40.0214C55.9838 39.8356 55.4921 39.5801 54.8662 39.255C54.2851 38.9299 53.7487 38.5584 53.257 38.1404C52.7652 37.7224 52.3182 37.2579 51.9159 36.747V41.4844C52.0053 44.6426 52.2288 47.3596 52.5864 49.6353C52.944 51.9111 53.3464 53.6295 53.7934 54.7906C54.2404 55.9053 54.8215 56.7878 55.5368 57.438C56.252 58.0882 56.8108 58.483 57.2131 58.6223C57.6601 58.7152 58.2189 58.7849 58.8894 58.8313Z" fill="#4E2705"/>
<path d="M73.1138 31.5463C80.1359 30.1911 86.3202 24.1709 86.3202 16.9502C86.3202 8.73144 79.4636 2.06869 71.0046 2.06869C63.2881 2.06869 56.9059 6.64786 55.844 13.8597H57.8757C66.0027 13.8597 70.1338 16.9055 72.0979 19.7553C73.2914 21.4867 74.1297 22.703 74.1297 27.616C74.1297 29.5811 73.1138 31.5463 73.1138 31.5463Z" fill="#F1AF76"/>
<path d="M61.9392 29.5811C61.9392 29.5811 62.9551 30.5637 61.9392 25.6508C60.9233 20.7378 58.8916 17.7901 55.844 17.7901C55.97 22.7088 57.8221 27.2484 61.9392 29.5811Z" fill="#F1AF76"/>
</svg>
