<svg width="30" height="30" viewBox="0 0 30 30" fill="none" xmlns="http://www.w3.org/2000/svg">
<path d="M15.0387 7.715C11.0625 7.715 7.83 10.9475 7.82875 14.9225C7.8275 16.545 8.30375 17.76 9.1025 19.0312L8.375 21.6912L11.1025 20.975C12.325 21.7 13.4913 22.135 15.0338 22.1362C19.0063 22.1362 22.2425 18.9025 22.2437 14.9288C22.245 10.945 19.025 7.71625 15.0387 7.715ZM19.2788 18.02C19.0988 18.5263 18.2325 18.9875 17.8162 19.05C17.4425 19.1062 16.97 19.1287 16.4513 18.9637C16.1362 18.8637 15.7325 18.73 15.2163 18.5075C13.0425 17.5688 11.6237 15.38 11.515 15.2362C11.4062 15.0913 10.63 14.0612 10.63 12.995C10.63 11.9288 11.19 11.4037 11.3888 11.1875C11.5875 10.9712 11.8212 10.9163 11.9662 10.9163L12.3812 10.9237C12.5138 10.93 12.6925 10.8737 12.8687 11.2962C13.0487 11.73 13.4825 12.7963 13.5363 12.905C13.59 13.0138 13.6263 13.14 13.5538 13.285C13.4813 13.43 13.445 13.52 13.3375 13.6462L13.0125 14.0262C12.9037 14.1337 12.7912 14.2512 12.9175 14.4688C13.0437 14.6862 13.4788 15.395 14.1225 15.97C14.95 16.7087 15.6488 16.9375 15.865 17.045C16.0813 17.1525 16.2075 17.135 16.335 16.9913C16.4613 16.8463 16.8762 16.3587 17.0212 16.1413C17.1663 15.925 17.31 15.96 17.5088 16.0325C17.7075 16.105 18.7725 16.6287 18.9888 16.7375C19.205 16.8463 19.35 16.9 19.4037 16.99C19.46 17.08 19.46 17.5138 19.2788 18.02ZM15 0C6.71625 0 0 6.71625 0 15C0 23.2838 6.71625 30 15 30C23.2838 30 30 23.2838 30 15C30 6.71625 23.2838 0 15 0ZM15.0363 23.6C13.585 23.6 12.155 23.235 10.8888 22.545L6.2925 23.75L7.5225 19.2563C6.76375 17.9412 6.36375 16.4487 6.365 14.9213C6.36625 10.14 10.2563 6.25 15.0363 6.25C17.3563 6.25125 19.5338 7.15375 21.17 8.7925C22.8075 10.4312 23.7087 12.61 23.7075 14.9275C23.7062 19.7087 19.8162 23.6 15.0363 23.6Z" fill="#785436"/>
</svg>
