<svg width="52" height="50" viewBox="0 0 52 50" fill="none" xmlns="http://www.w3.org/2000/svg">
<path d="M25.5752 40.8489H25.5615C24.9855 40.8489 24.5184 41.3159 24.5184 41.892C24.5184 42.4681 24.9855 42.9351 25.5615 42.9351H25.5752C26.1512 42.9351 26.6183 42.4681 26.6183 41.892C26.6183 41.3159 26.1512 40.8489 25.5752 40.8489Z" fill="#DDB892"/>
<path d="M25.5615 40.8489H25.5478C24.9718 40.8489 24.5047 41.3159 24.5047 41.892C24.5047 42.4681 24.9718 42.9351 25.5478 42.9351H25.5615C26.1375 42.9351 26.6046 42.4681 26.6046 41.892C26.6046 41.3159 26.1375 40.8489 25.5615 40.8489Z" fill="#DDB892"/>
<path d="M1.05681 47.9138H1.04312C0.467116 47.9138 0 48.3808 0 48.9569C0 49.533 0.467116 50 1.04312 50H1.05681C1.63281 50 2.09992 49.533 2.09992 48.9569C2.09992 48.3808 1.63281 47.9138 1.05681 47.9138Z" fill="#DDB892"/>
<path d="M50.0697 47.9137H50.056C49.48 47.9137 49.0129 48.3807 49.0129 48.9568C49.0129 49.5329 49.48 49.9999 50.056 49.9999H50.0697C50.6457 49.9999 51.1128 49.5329 51.1128 48.9568C51.1128 48.3806 50.6457 47.9137 50.0697 47.9137Z" fill="#DDB892"/>
<path d="M29.3607 20.0625C28.7178 20.0625 28.1947 20.5856 28.1947 21.2285C28.1947 21.8713 28.7178 22.3944 29.3607 22.3944C30.0035 22.3944 30.5265 21.8713 30.5266 21.2285C30.5266 20.5855 30.0035 20.0625 29.3607 20.0625Z" fill="#DDB892"/>
<path d="M21.7522 20.0625C21.1093 20.0625 20.5863 20.5856 20.5863 21.2285C20.5863 21.8713 21.1093 22.3944 21.7522 22.3944C22.395 22.3944 22.9182 21.8713 22.9182 21.2285C22.9182 20.5855 22.395 20.0625 21.7522 20.0625Z" fill="#DDB892"/>
<path d="M26.5802 24.9771H24.5415C23.9655 24.9771 23.4984 25.4441 23.4984 26.0202C23.4984 27.1575 24.4236 28.0827 25.5608 28.0827C26.698 28.0827 27.6232 27.1576 27.6233 26.0202C27.6233 25.4441 27.1562 24.9771 26.5802 24.9771Z" fill="#DDB892"/>
<path d="M7.85706 43.3687L5.42298 40.9347L6.23434 40.1232C6.64172 39.7159 6.64172 39.0553 6.23434 38.6481C5.82686 38.2407 5.16665 38.2407 4.75907 38.6481L1.66118 41.7461C1.2538 42.1534 1.2538 42.8139 1.66118 43.2212C1.86487 43.4249 2.13179 43.5267 2.39881 43.5267C2.66584 43.5267 2.93266 43.4248 3.13645 43.2212L3.94771 42.4099L6.38179 44.8438C6.58548 45.0475 6.8524 45.1493 7.11942 45.1493C7.38635 45.1493 7.65327 45.0474 7.85696 44.8438C8.26454 44.4365 8.26454 43.7759 7.85706 43.3687Z" fill="#DDB892"/>
<path d="M50.8415 12.2158L47.7436 9.11786C47.3364 8.71048 46.6761 8.71048 46.2684 9.11786C45.861 9.52524 45.861 10.1857 46.2684 10.593L47.0797 11.4045L44.6456 13.8385C44.2383 14.2458 44.2383 14.9064 44.6456 15.3136C44.8493 15.5173 45.1163 15.6191 45.3833 15.6191C45.6503 15.6191 45.9171 15.5172 46.1209 15.3136L48.555 12.8797L49.3663 13.691C49.5699 13.8947 49.8369 13.9965 50.1039 13.9965C50.3709 13.9965 50.6377 13.8946 50.8415 13.691C51.2489 13.2836 51.2489 12.6231 50.8415 12.2158Z" fill="#DDB892"/>
<path d="M48.823 27.4686H39.5326C38.9566 27.4686 38.4895 27.9357 38.4895 28.5118V34.1463C38.4895 34.7224 38.9566 35.1894 39.5326 35.1894H41.883V47.9138H40.8941V40.8607C40.8941 38.8273 39.667 36.8961 37.9102 36.164L31.1969 33.3669C30.9582 33.2675 30.804 33.0362 30.804 32.7774V31.1532L33.5307 29.5898C33.5496 29.5789 33.5683 29.5675 33.5866 29.5553C34.9519 28.6537 35.8483 27.0504 35.9846 25.2662C35.9867 25.2399 35.9876 25.2133 35.9876 25.1867V24.3207C37.3422 23.8801 38.3241 22.6054 38.3241 21.1057C38.3241 19.6061 37.3421 18.3312 35.9875 17.8907V17.1418H37.2769C38.061 17.1418 38.6988 16.504 38.6988 15.7199V13.5981C38.6988 12.9124 38.2109 12.3385 37.5642 12.2053C37.1836 9.53372 35.9286 7.06129 33.9725 5.16325C32.5708 3.80316 30.8735 2.8025 29.0241 2.23958V1.46928C29.0241 0.659117 28.3863 0 27.602 0H23.5099C22.7258 0 22.0878 0.659117 22.0878 1.46928V2.17994C20.1595 2.73007 18.3926 3.75121 16.9376 5.16325C14.9665 7.07567 13.7074 9.57099 13.3372 12.2661C12.798 12.4684 12.4133 12.989 12.4133 13.5981V15.7199C12.4133 16.504 13.0512 17.1418 13.8353 17.1418H15.1248V17.8907C13.7702 18.3313 12.7884 19.606 12.7884 21.1056C12.7884 22.6053 13.7702 23.8801 15.1248 24.3206V25.1866C15.1248 25.2131 15.1258 25.2397 15.1278 25.2661C15.2648 27.0576 16.155 28.6609 17.5091 29.5552C17.5277 29.5676 17.5467 29.5793 17.5662 29.5903L20.3085 31.158V32.7773C20.3085 33.036 20.1542 33.2673 19.9155 33.3668L13.2021 36.164C11.4452 36.8961 10.2182 38.8275 10.2182 40.8606V47.9137H4.43151C3.85551 47.9137 3.38839 48.3807 3.38839 48.9568C3.38839 49.5329 3.85551 49.9999 4.43151 49.9999H46.6814C47.2574 49.9999 47.7246 49.5329 47.7246 48.9568C47.7246 48.3807 47.2574 47.9137 46.6814 47.9137H46.4729V35.1894H48.8231C49.3991 35.1894 49.8662 34.7224 49.8662 34.1463V28.5118C49.8661 27.9357 49.399 27.4686 48.823 27.4686ZM14.5001 14.2408C14.952 14.1482 15.3003 13.7627 15.3307 13.2854C15.4913 10.7722 16.5779 8.41938 18.3909 6.6603C19.769 5.32319 21.4825 4.40883 23.3465 4.01614C23.8291 3.91444 24.1746 3.48859 24.1746 2.9955V2.08614H26.9382V3.04005C26.9382 3.52605 27.2737 3.94761 27.7474 4.0566C29.539 4.46897 31.1893 5.36934 32.5199 6.6604C34.3327 8.41938 35.4195 10.7722 35.58 13.2855C35.6149 13.8319 36.0661 14.2579 36.6128 14.2621V15.0555H14.5001V14.2408ZM18.6336 27.7972C17.8365 27.2575 17.3074 26.2705 17.2114 25.1446V23.4421C17.2114 22.866 16.7443 22.399 16.1682 22.399C15.4551 22.399 14.8749 21.8187 14.8749 21.1056C14.8749 20.3926 15.4552 19.8123 16.1682 19.8123C16.7443 19.8123 17.2114 19.3453 17.2114 18.7692V17.1417H33.9013V18.7692C33.9013 19.3453 34.3684 19.8123 34.9444 19.8123C35.6576 19.8123 36.2378 20.3926 36.2378 21.1056C36.2378 21.8187 35.6576 22.399 34.9444 22.399C34.3684 22.399 33.9013 22.866 33.9013 23.4421V25.1444C33.8066 26.2474 33.258 27.2584 32.4617 27.7975L26.8613 31.0089C26.8423 31.0199 26.8236 31.0313 26.8053 31.0434C26.0232 31.5599 25.0897 31.5599 24.3076 31.0434C24.2889 31.0312 24.27 31.0194 24.2505 31.0083L18.6336 27.7972ZM28.7199 32.8407C27.9717 33.8307 26.8151 34.4136 25.5615 34.4136C24.3017 34.4136 23.1411 33.8261 22.3933 32.8282C22.3936 32.8112 22.3952 32.7945 22.3952 32.7773V32.3506L23.1879 32.8037C23.9201 33.2792 24.7383 33.517 25.5566 33.517C26.3752 33.517 27.1936 33.279 27.926 32.8033L28.7178 32.3493V32.7773C28.7176 32.7986 28.7195 32.8195 28.7199 32.8407ZM14.5566 47.9138H12.305V40.8607C12.305 39.685 13.0359 38.4937 14.0051 38.0898L14.5566 37.8601V47.9138ZM16.6429 47.9138V36.9907L18.5727 36.1866V41.8919C18.5727 42.468 19.0398 42.935 19.6158 42.935H22.1733C22.7493 42.935 23.2164 42.468 23.2164 41.8919C23.2164 41.3158 22.7493 40.8488 22.1733 40.8488H20.6589V35.3173L20.7184 35.2924C20.9784 35.1841 21.2145 35.0386 21.4225 34.8645C22.5291 35.9066 23.9953 36.4998 25.5614 36.4998C27.1241 36.4998 28.5889 35.9081 29.6952 34.8691C29.9021 35.0414 30.1366 35.1852 30.3944 35.2925L30.4641 35.3215V40.8487H28.9497C28.3737 40.8487 27.9066 41.3157 27.9066 41.8918C27.9066 42.4679 28.3737 42.9349 28.9497 42.9349H31.5073C32.0833 42.9349 32.5504 42.4679 32.5504 41.8918V36.1907L34.4802 36.9948V47.9135H16.6429V47.9138ZM38.8079 47.9138H36.5664V37.8642L37.1078 38.0898C38.077 38.4936 38.8078 39.6849 38.8078 40.8607L38.8079 47.9138ZM44.3866 47.9138H43.9693V35.1894H44.3866V47.9138ZM47.7799 33.1032H40.5759V29.5548H47.7799V33.1032Z" fill="#DDB892"/>
<path d="M11.5615 29.2071L9.62313 26.7321L10.4449 24.1786C10.5401 23.8827 10.4984 23.5597 10.3311 23.2977L8.93814 21.1161L9.5549 19.2205C9.64771 18.9351 9.61324 18.6236 9.4601 18.3656L8.24706 16.3209L8.73895 14.2477C8.80568 13.9668 8.75293 13.6708 8.5933 13.4303L7.25648 11.4154L8.22218 9.4628C8.34755 9.20926 8.36454 8.91566 8.26943 8.64934L7.3369 6.03984L7.7279 3.6635C7.77864 3.35452 7.68804 3.03905 7.48105 2.80429L6.31606 1.48316C6.11806 1.2586 5.83296 1.12983 5.53357 1.12983H1.05681C0.480804 1.12983 0.0136882 1.59685 0.0136882 2.17295V34.1271C0.0136882 34.7033 0.480804 35.1703 1.05681 35.1703H10.7403C11.3163 35.1703 11.7834 34.7033 11.7834 34.1271V29.8504C11.7834 29.6172 11.7053 29.3908 11.5615 29.2071ZM2.09993 3.21607H5.06266L5.58891 3.81305L5.23458 5.96752C5.20591 6.14214 5.22209 6.32125 5.28153 6.48798L6.15602 8.93484L5.1202 11.0292C4.95537 11.3625 4.98044 11.7584 5.18603 12.0683L6.60486 14.2067L6.12016 16.2498C6.05773 16.513 6.09988 16.7901 6.23794 17.0229L7.42521 19.0241L6.80196 20.9396C6.70546 21.2364 6.74691 21.5607 6.91474 21.8237L8.30869 24.0069L7.80302 25.5782H2.09993V3.21607ZM9.69716 33.084H2.09993V27.6641H7.70302L9.69716 30.2103V33.084Z" fill="#DDB892"/>
<path d="M6.21166 29.6446H3.81245C3.23645 29.6446 2.76933 30.1116 2.76933 30.6877C2.76933 31.2638 3.23645 31.7308 3.81245 31.7308H6.21166C6.78767 31.7308 7.25478 31.2638 7.25478 30.6877C7.25478 30.1116 6.78767 29.6446 6.21166 29.6446Z" fill="#DDB892"/>
<path d="M24.2162 6.54721C24.1058 5.9817 23.5577 5.61228 22.9929 5.72287C21.6954 5.97561 20.5012 6.56569 19.5389 7.4292C18.2547 8.58161 17.4846 10.1299 17.3699 11.7889C17.3302 12.3637 17.764 12.8618 18.3388 12.9013C18.3632 12.903 18.3876 12.9038 18.4116 12.9038C18.9551 12.9038 19.4132 12.4829 19.4514 11.9325C19.5284 10.8179 20.0543 9.76997 20.9326 8.98179C21.6141 8.37012 22.4645 7.95116 23.392 7.77055C23.9573 7.66046 24.3265 7.11263 24.2162 6.54721Z" fill="#DDB892"/>
</svg>
