<svg width="28" height="30" viewBox="0 0 28 30" fill="none" xmlns="http://www.w3.org/2000/svg">
<path d="M27.9231 13.5879L20.2394 6.05848L14.7287 11.633L27.9231 24.7483V19.1877V13.5879Z" fill="#FFF0E0"/>
<path d="M19.2003 7.10956L14.7287 11.633L27.9231 24.7483V21.8135C27.4221 21.5093 26.4976 20.7744 26.0422 20.2995C25.9035 20.1549 25.6368 19.9616 25.2804 19.7338C24.9269 19.5078 24.4943 19.2537 24.031 18.9873C23.8262 18.8695 23.6152 18.7492 23.4027 18.6281C22.6565 18.2028 21.8903 17.766 21.2954 17.3823C20.4472 16.8352 19.7276 16.318 19.0711 15.4792C18.2721 14.4585 17.6709 12.8659 17.973 11.4878C18.0939 10.936 18.474 10.529 18.9277 10.2623C19.3809 9.99583 19.9177 9.86273 20.3757 9.86273C20.9892 9.86273 21.392 10.0944 21.8561 10.3615C21.9601 10.4213 22.0672 10.4829 22.1804 10.5441C22.7767 10.8662 23.3153 11.2987 23.815 11.763C24.2378 12.1559 24.6347 12.5842 25.0283 13.0089C25.114 13.1014 25.1996 13.1938 25.2853 13.2856C25.7658 13.8004 26.2501 14.2988 26.7872 14.7224C27.0052 14.8943 27.6914 15.2338 27.9231 15.3831V13.5879L24.9309 10.7066C23.7078 10.3947 22.497 9.95914 21.4978 9.16803C21.2395 8.96357 21.0133 8.73219 20.7945 8.50474L20.7484 8.45679C20.5444 8.24448 20.3455 8.03749 20.1256 7.85139C20.0461 7.78412 19.9679 7.71506 19.8902 7.64634C19.6649 7.44728 19.4429 7.25109 19.2003 7.10956Z" fill="#4E2705"/>
<path d="M24.608 10.3866L20.2394 6.05848L19.3632 6.94477C19.6096 7.0975 19.8381 7.2996 20.0517 7.48857C20.1258 7.55418 20.1982 7.61821 20.2689 7.67803C20.4981 7.87196 20.7047 8.08704 20.9071 8.29768L20.9546 8.34713C21.1738 8.57495 21.3905 8.79612 21.6355 8.99006C22.5012 9.67549 23.5343 10.087 24.608 10.3866Z" fill="#4E2705"/>
<path d="M26.6499 14.9007C26.9117 15.1071 27.6445 15.4604 27.9231 15.6351V16.7936C27.5725 16.5815 26.7517 16.173 26.3731 15.9932C25.8944 15.7657 25.4398 15.5404 25.0549 15.2241C24.9804 15.1628 24.9055 15.1022 24.8308 15.0418L24.8306 15.0417C24.5454 14.8111 24.2636 14.5832 24.0196 14.3311C23.9171 14.2253 23.825 14.1169 23.7304 14.0055C23.6755 13.9409 23.6197 13.8752 23.5605 13.8084C23.4552 13.6896 23.3375 13.578 23.2236 13.47C23.1709 13.42 23.1189 13.3707 23.0693 13.3218C23.0278 13.2809 22.986 13.2379 22.9433 13.194C22.8366 13.0842 22.7247 12.9691 22.5989 12.8673C22.43 12.7307 22.2368 12.6503 22.0507 12.5729L22.0122 12.5568C21.9162 12.5167 21.8217 12.4746 21.7272 12.4324C21.3913 12.2826 21.055 12.1325 20.6507 12.0744C20.6225 12.0703 20.5937 12.0661 20.5645 12.0617L20.5643 12.0617C20.3938 12.0364 20.2073 12.0087 20.0277 12.0085C19.9646 12.0084 19.9153 12.0273 19.8757 12.0488C19.8572 12.0589 19.8401 12.0699 19.8264 12.0787L19.8261 12.0789C19.8115 12.0883 19.8001 12.0956 19.7884 12.1022C19.6206 12.1961 19.5283 12.3283 19.4975 12.4828C19.4681 12.6306 19.4974 12.7865 19.5447 12.9301C19.6282 13.1833 19.8157 13.4006 20.0202 13.5879C20.1702 13.7252 20.3384 13.854 20.4919 13.9715L20.4922 13.9718C20.5476 14.0142 20.6011 14.0552 20.6511 14.0946C20.9203 14.3065 21.2023 14.5099 21.5069 14.6892C21.5428 14.7104 21.5782 14.7308 21.6129 14.7508C21.7391 14.8236 21.8576 14.8919 21.9655 14.9751C22.0418 15.034 22.1143 15.0964 22.1894 15.1612L22.2062 15.1756C22.2865 15.2448 22.3701 15.3162 22.4601 15.3831C22.5524 15.4517 22.6436 15.5162 22.7334 15.5796C22.8957 15.6941 23.0533 15.8054 23.2037 15.932C23.4591 16.147 23.6952 16.3752 23.9343 16.6063L23.9351 16.607C24.027 16.6959 24.1194 16.7851 24.2135 16.8742C24.5502 17.1932 24.9044 17.5054 25.3217 17.7671C25.6003 17.9417 25.8918 18.0994 26.1814 18.254L26.2679 18.3002C26.5291 18.4394 26.7877 18.5773 27.0373 18.7258C27.1792 18.8102 27.7812 19.1021 27.9231 19.1877V21.5046C27.4922 21.2219 26.6199 20.5772 26.2025 20.1421C26.0431 19.9759 25.7552 19.7699 25.3998 19.5427C25.0415 19.3138 24.6051 19.0574 24.1414 18.7908C23.9345 18.6718 23.7223 18.5508 23.5089 18.4292L23.5086 18.429C22.7633 18.0042 22.0047 17.5718 21.4155 17.1917C20.573 16.6484 19.8791 16.1474 19.2462 15.3389C18.4729 14.351 17.9084 12.8265 18.1911 11.5367C18.2946 11.0644 18.6223 10.7032 19.04 10.4577C19.4581 10.2119 19.9559 10.0887 20.3757 10.0887C20.9256 10.0887 21.2711 10.2867 21.7295 10.5494C21.8372 10.6111 21.951 10.6764 22.0752 10.7434C22.6484 11.0531 23.1713 11.4717 23.6638 11.9294C24.0799 12.3161 24.4699 12.7369 24.8633 13.1613L24.864 13.1621C24.95 13.2549 25.0362 13.3479 25.1228 13.4407C25.6042 13.9564 26.0984 14.4657 26.6499 14.9007Z" fill="#4E2705"/>
<path d="M27.9231 18.8788V17.1917C27.5409 16.9566 26.6899 16.3934 26.2781 16.1977C25.8011 15.9711 25.3228 15.7354 24.9141 15.3995C24.8428 15.3409 24.77 15.2821 24.6967 15.2228C24.4102 14.9913 24.1145 14.7521 23.8599 14.4893C23.7532 14.379 23.6518 14.2598 23.5534 14.144L23.5532 14.1438C23.4995 14.0806 23.4465 14.0183 23.3942 13.9593C23.2953 13.8477 23.1899 13.7478 23.0801 13.6438C23.0255 13.5921 22.9699 13.5394 22.9134 13.4836C22.8646 13.4355 22.8188 13.3884 22.774 13.3424C22.6714 13.2367 22.5743 13.1368 22.4594 13.0438C22.3163 12.9281 22.1511 12.8592 21.9577 12.7786L21.9269 12.7657C21.8205 12.7213 21.7195 12.6763 21.6212 12.6325C21.2904 12.4852 20.9902 12.3515 20.6193 12.2981C20.5891 12.2938 20.5589 12.2893 20.5288 12.2849C20.3575 12.2595 20.1894 12.2347 20.0274 12.2344C20.0119 12.2344 19.9993 12.2382 19.9813 12.2479C19.9712 12.2535 19.9607 12.2601 19.9462 12.2694L19.9442 12.2707C19.9311 12.2792 19.9145 12.2899 19.8966 12.2999C19.7818 12.3642 19.7334 12.4428 19.7165 12.5275C19.6983 12.6189 19.7144 12.7304 19.7567 12.8585C19.8217 13.0558 19.9745 13.2411 20.1702 13.4203C20.3123 13.5504 20.4682 13.6699 20.6194 13.7857C20.6767 13.8296 20.7334 13.873 20.7883 13.9162C21.0528 14.1244 21.3261 14.3213 21.6193 14.4939C21.6509 14.5126 21.6834 14.5313 21.7164 14.5503C21.8444 14.624 21.9799 14.702 22.101 14.7954C22.1823 14.8582 22.2592 14.9244 22.3334 14.9884L22.351 15.0036C22.4316 15.0729 22.5096 15.1394 22.5924 15.201C22.6752 15.2625 22.7619 15.3239 22.8498 15.386C23.0176 15.5046 23.1897 15.6263 23.3466 15.7583C23.6083 15.9785 23.8528 16.2149 24.0939 16.4479C24.1849 16.5359 24.2754 16.6233 24.3661 16.7093C24.6997 17.0251 25.0411 17.3253 25.4394 17.575C25.7107 17.7451 25.996 17.8995 26.2856 18.0541L26.3724 18.1004C26.6329 18.2393 26.8962 18.3796 27.1506 18.531C27.2552 18.5932 27.8194 18.8163 27.9231 18.8788Z" fill="#4E2705"/>
<path d="M27.9231 25.6117L20.309 17.952L14.4218 23.8563L20.309 30H27.9231V25.6117Z" fill="#FFF0E0"/>
<path d="M27.9231 25.6117L20.309 17.952L19.6641 18.5988C19.6846 18.6321 19.7037 18.6671 19.7202 18.7041C19.7455 18.7607 19.7677 18.8137 19.7889 18.8643L19.789 18.8645C19.8447 18.9973 19.8936 19.1139 19.9732 19.2371C20.2162 19.6126 20.5176 19.9954 20.8061 20.3433C21.1882 20.8041 21.6964 21.1749 22.2152 21.472C22.4075 21.5821 22.6095 21.6806 22.8164 21.7815C22.8996 21.8221 22.9835 21.863 23.068 21.9052C23.3591 22.0509 23.6512 22.2098 23.9096 22.413C24.8597 23.1602 25.6086 24.2153 26.1903 25.2644C26.5985 26.0006 26.8749 26.8123 27.1178 27.6064C27.2409 28.0089 27.4198 28.3593 27.6071 28.7261C27.6872 28.8832 27.769 29.0433 27.8485 29.2117C27.8807 29.28 27.9043 29.3485 27.9231 29.4156V25.6117Z" fill="#4E2705"/>
<path d="M18.3015 19.9653L19.491 18.7724C19.4962 18.7825 19.5012 18.7927 19.5058 18.803C19.5262 18.8487 19.5457 18.8953 19.5655 18.9425C19.6238 19.0816 19.6843 19.226 19.7765 19.3686C20.0272 19.7561 20.3357 20.1474 20.626 20.4976C21.0329 20.9882 21.5673 21.3757 22.0997 21.6805C22.2991 21.7947 22.5119 21.8985 22.7216 22.0008C22.8032 22.0406 22.8843 22.0802 22.964 22.12C23.252 22.2641 23.5266 22.4144 23.7655 22.6023C24.6806 23.3219 25.411 24.3464 25.9851 25.3819C26.3805 26.0948 26.6509 26.8861 26.893 27.6775C27.0226 28.1012 27.2165 28.4813 27.4078 28.8563L27.4079 28.8564C27.4859 29.0093 27.5635 29.1614 27.6362 29.3153C27.6806 29.4094 27.706 29.5082 27.7293 29.6166C27.7337 29.637 27.7381 29.6581 27.7426 29.6796C27.761 29.7682 27.781 29.8643 27.8112 29.9576C27.8165 29.9738 27.8248 29.9881 27.8353 30H25.6569C25.6388 29.9789 25.6135 29.9643 25.5849 29.9602C25.5757 29.9561 25.5628 29.9499 25.5476 29.9421C25.5088 29.9222 25.47 29.8994 25.4538 29.8874C25.3257 29.7922 25.22 29.6807 25.1066 29.5611C25.053 29.5046 24.9976 29.4461 24.9373 29.3868C24.6777 29.1313 24.3661 28.9426 24.068 28.7622L24.0609 28.7579C23.7564 28.5735 23.466 28.3969 23.2266 28.161C22.77 27.7108 22.273 27.3475 21.7406 27.005C21.4859 26.8412 21.2129 26.7148 20.9493 26.5928L20.9039 26.5717C20.6235 26.4418 20.3547 26.3142 20.1114 26.1458C19.6861 25.8513 19.2695 25.5553 18.9148 25.1903C18.7717 25.0429 18.6519 24.8712 18.5269 24.6901L18.5159 24.6741C18.3962 24.5006 18.2707 24.3187 18.1204 24.1596C17.8194 23.841 17.5826 23.4011 17.4435 22.9786C17.2808 22.4841 17.02 21.977 16.7447 21.5267L17.1982 21.0719C17.2389 21.087 17.2805 21.103 17.3225 21.1195C17.5115 21.1936 17.7057 21.2779 17.8622 21.3519C17.9406 21.3889 18.0087 21.4229 18.0616 21.4515C18.1175 21.4817 18.1484 21.5015 18.1587 21.5102C18.7674 22.0173 19.2704 22.6933 19.6566 23.3994C19.8088 23.6774 19.9883 23.9438 20.163 24.203C20.2352 24.3102 20.3066 24.4162 20.3749 24.5212C20.5319 24.7627 20.7308 25.0066 20.916 25.2338C20.9673 25.2967 21.0175 25.3583 21.0655 25.4183C21.6111 26.0993 22.478 26.5292 23.3276 26.5292C23.6447 26.5292 23.9324 26.5154 24.253 26.4154C24.3001 26.4007 24.3444 26.3761 24.3778 26.3365C24.412 26.2958 24.4269 26.2485 24.4296 26.2029C24.4344 26.1201 24.3989 26.0377 24.3664 25.9761C24.332 25.9108 24.2876 25.845 24.2515 25.7916L24.2508 25.7906C24.2106 25.7311 24.186 25.6939 24.1765 25.6721C24.0434 25.3649 23.8584 25.068 23.6813 24.7837C23.6099 24.669 23.5396 24.5562 23.4746 24.4458C23.4385 24.3843 23.4025 24.3217 23.3661 24.2586C23.1825 23.9397 22.9905 23.6063 22.7318 23.3275C22.6817 23.2735 22.6306 23.2176 22.5785 23.1605C22.2974 22.8529 21.9871 22.5131 21.6455 22.2707C21.4261 22.1149 21.1904 21.9923 20.9613 21.8755L20.9152 21.852C20.7002 21.7425 20.4923 21.6366 20.2978 21.5084C19.5795 21.0349 18.9187 20.5466 18.3015 19.9653Z" fill="#4E2705"/>
<path d="M24.9203 29.7101C25.0122 29.8069 25.1093 29.9091 25.2146 30H21.6792C21.6008 29.8538 21.482 29.7224 21.3636 29.6078C21.2773 29.5244 21.1858 29.445 21.1015 29.3719L21.0929 29.3644C21.0049 29.2881 20.9267 29.2199 20.8647 29.157C20.7549 29.0456 20.6339 28.9427 20.5175 28.8438L20.5173 28.8437C20.4864 28.8174 20.4558 28.7915 20.4258 28.7657C20.2803 28.6404 20.1457 28.5166 20.0357 28.3736C19.8192 28.0924 19.5706 27.8409 19.3269 27.5944C19.2313 27.4977 19.1364 27.4018 19.0446 27.3051C18.8655 27.1166 18.7026 26.9132 18.5357 26.7049L18.5101 26.6729C18.3353 26.4549 18.1554 26.2324 17.953 26.027C17.4626 25.5293 16.986 25.0222 16.5072 24.5128L16.5068 24.5124C16.3903 24.3883 16.2736 24.2642 16.1565 24.14C16.0336 24.0095 15.8912 23.8978 15.7552 23.7926L15.7308 23.7738C15.6013 23.6738 15.4786 23.579 15.3708 23.4726C15.3484 23.4505 15.3257 23.427 15.3022 23.4028C15.2357 23.3341 15.1638 23.2599 15.08 23.1962L16.5727 21.6992C16.8311 22.1271 17.0704 22.5993 17.2202 23.0545C17.3678 23.5029 17.6204 23.9759 17.9506 24.3254C18.0881 24.471 18.2045 24.6396 18.3274 24.8178L18.3341 24.8276C18.4576 25.0065 18.5881 25.1946 18.7473 25.3584C19.1201 25.7422 19.5546 26.0498 19.9788 26.3436C20.2409 26.5251 20.5272 26.6602 20.8062 26.7895L20.8476 26.8087C21.1147 26.9324 21.3741 27.0525 21.6147 27.2073C22.1397 27.545 22.622 27.8983 23.0627 28.3328C23.324 28.5903 23.6371 28.7799 23.9362 28.961L23.9404 28.9635C24.245 29.1479 24.5349 29.3239 24.7735 29.5588C24.8212 29.6058 24.87 29.6571 24.9203 29.7101Z" fill="#4E2705"/>
<path d="M14.9101 23.3666L14.4218 23.8563L20.309 30H21.3986C21.345 29.9282 21.2778 29.8553 21.2012 29.7812C21.1197 29.7023 21.0324 29.6266 20.9469 29.5525L20.94 29.5465C20.8538 29.4717 20.7681 29.3971 20.6984 29.3264C20.5966 29.2232 20.4861 29.1292 20.3709 29.0313L20.3706 29.0311C20.3386 29.0039 20.3063 28.9764 20.2736 28.9483C20.1261 28.8213 19.9759 28.6844 19.8502 28.5211C19.6433 28.2524 19.4107 28.0171 19.1711 27.7747C19.0732 27.6757 18.9742 27.5755 18.8753 27.4714C18.689 27.2754 18.5203 27.0647 18.3549 26.8583L18.3275 26.8241C18.1522 26.6054 17.9794 26.392 17.7866 26.1964C17.2941 25.6965 16.8151 25.1869 16.3361 24.6772C16.2196 24.5533 16.1031 24.4293 15.9865 24.3055C15.878 24.1905 15.7498 24.0892 15.6126 23.9832L15.5856 23.9623C15.4587 23.8643 15.3251 23.7612 15.2068 23.6443C15.1762 23.6141 15.1481 23.5853 15.1215 23.558C15.0471 23.4818 14.9841 23.4171 14.9101 23.3666Z" fill="#4E2705"/>
<path d="M18.1337 20.1336L17.3829 20.8866L17.4073 20.8961C17.6011 20.9722 17.8001 21.0585 17.9615 21.1348C18.0422 21.1729 18.1143 21.2089 18.1721 21.2401C18.2269 21.2697 18.2773 21.2994 18.308 21.325C18.9455 21.8562 19.466 22.5584 19.8625 23.283C20.009 23.5509 20.1785 23.8024 20.3505 24.0576C20.4242 24.1669 20.4984 24.277 20.5714 24.3893C20.7206 24.6188 20.9082 24.849 21.0922 25.0747C21.1448 25.1393 21.1971 25.2035 21.2481 25.2671C21.7506 25.8943 22.5514 26.2899 23.3276 26.2899C23.638 26.2899 23.8975 26.2759 24.1838 26.1866C24.1884 26.1851 24.1918 26.1838 24.1943 26.1827C24.1928 26.1676 24.1843 26.1374 24.1589 26.0891C24.1314 26.0371 24.0944 25.9818 24.0567 25.9261L24.051 25.9177C24.0184 25.8696 23.9805 25.8136 23.961 25.7686C23.8354 25.4787 23.6657 25.2063 23.4925 24.9285C23.4188 24.8101 23.3444 24.6907 23.2725 24.5686C23.2341 24.5033 23.1966 24.4382 23.1594 24.3737L23.159 24.373C22.9753 24.0545 22.7991 23.7489 22.5605 23.4918C22.5077 23.4349 22.4548 23.377 22.4015 23.3187C22.1197 23.0106 21.8296 22.6933 21.5107 22.4669C21.3069 22.3223 21.0855 22.2066 20.8557 22.0894L20.8072 22.0647C20.5947 21.9565 20.3756 21.8449 20.1697 21.7092C19.4418 21.2294 18.7665 20.7307 18.1337 20.1336Z" fill="#4E2705"/>
<path d="M19.3314 30L14.0758 24.4394L8.59175 30H19.3314Z" fill="#FFF0E0"/>
<path d="M17.5872 28.1546L16.8309 27.3544C16.3937 27.481 15.9704 27.6131 15.5693 27.8214C15.2778 27.9729 14.9255 28.1731 14.7221 28.408C14.2973 28.8986 14.0112 29.405 13.8065 30H16.5963C16.6405 29.9374 16.6868 29.8784 16.725 29.8295C16.7417 29.8082 16.7568 29.7889 16.7697 29.772C16.8428 29.6757 16.9234 29.5813 17.0016 29.4898C17.0316 29.4546 17.0613 29.4198 17.0901 29.3855C17.196 29.2594 17.2933 29.1353 17.3705 29.0019C17.5218 28.7407 17.5768 28.4641 17.5872 28.1546Z" fill="#4E2705"/>
<path d="M17.8005 28.3803C17.7724 28.639 17.7048 28.8894 17.5646 29.1314C17.4762 29.2839 17.3678 29.421 17.2599 29.5497C17.2281 29.5876 17.1966 29.6245 17.1656 29.6609C17.0891 29.7504 17.0155 29.8366 16.9467 29.9271C16.9302 29.9488 16.9125 29.9714 16.8941 29.9949C16.8928 29.9966 16.8915 29.9983 16.8901 30H19.3314L17.8005 28.3803Z" fill="#4E2705"/>
<path d="M15.2911 25.7252L16.6425 27.1551C16.2452 27.2726 15.8476 27.4043 15.4698 27.6006C15.1828 27.7497 14.7916 27.9675 14.5548 28.241C14.0878 28.7803 13.7797 29.34 13.5637 30H12.0927C12.0972 29.9857 12.0998 29.972 12.1014 29.9601C12.1057 29.9274 12.104 29.8945 12.1026 29.8723L12.102 29.8627L12.1013 29.8533C12.1002 29.8372 12.0994 29.8254 12.0994 29.8131C12.0994 29.6328 12.1246 29.4857 12.161 29.2975C12.1789 29.2046 12.2245 29.0957 12.2826 28.9768C12.3044 28.9321 12.3293 28.8838 12.3542 28.8352C12.3906 28.7644 12.4273 28.693 12.4554 28.6316C12.5029 28.5277 12.5356 28.4195 12.5652 28.3214L12.5654 28.321C12.5691 28.3086 12.5728 28.2964 12.5765 28.2843C12.6103 28.1734 12.6428 28.0754 12.6925 27.9865C12.8133 27.7703 13.0091 27.6399 13.245 27.5295C13.3325 27.4885 13.4219 27.4519 13.5137 27.4143C13.5462 27.401 13.579 27.3875 13.6121 27.3737C13.7365 27.3219 13.8633 27.2658 13.9804 27.1963C14.0136 27.1766 14.0467 27.1572 14.0796 27.1379C14.3516 26.978 14.6141 26.8237 14.8531 26.5793C14.9855 26.4439 15.1335 26.1991 15.2254 25.9482C15.2521 25.8755 15.2748 25.8002 15.2911 25.7252Z" fill="#4E2705"/>
<path d="M14.0758 24.4394L15.0893 25.5117C15.089 25.5212 15.0885 25.531 15.0877 25.5411C15.0807 25.6372 15.0538 25.7466 15.0128 25.8584C14.9301 26.0842 14.7986 26.2963 14.6955 26.4017C14.4795 26.6226 14.2438 26.7613 13.9689 26.9232C13.9365 26.9423 13.9035 26.9617 13.8699 26.9816C13.767 27.0427 13.6522 27.0939 13.5294 27.145C13.499 27.1577 13.4678 27.1705 13.4363 27.1834C13.3431 27.2216 13.2465 27.2612 13.1537 27.3046C12.904 27.4215 12.6545 27.5777 12.4966 27.8603C12.4324 27.975 12.3933 28.0965 12.3593 28.208L12.3479 28.2456C12.3176 28.3455 12.2901 28.4364 12.2502 28.5235C12.2232 28.5827 12.1925 28.6421 12.1594 28.7063C12.1343 28.7551 12.1078 28.8066 12.0803 28.8628C12.021 28.9841 11.9621 29.1189 11.9372 29.2476C11.9004 29.4381 11.8709 29.606 11.8709 29.8131C11.8709 29.8353 11.8726 29.8593 11.8738 29.877C11.8741 29.8813 11.8744 29.8853 11.8746 29.8887L11.8747 29.8907C11.8323 29.907 11.8015 29.9495 11.7991 30H10.2304C10.2346 29.9433 10.2519 29.8844 10.2784 29.8182C10.2931 29.7813 10.3096 29.7445 10.3274 29.705L10.3296 29.7002C10.3478 29.6598 10.3672 29.6164 10.3844 29.5722C10.6072 28.998 10.7464 28.3821 10.801 27.7599L14.0758 24.4394Z" fill="#4E2705"/>
<path d="M10.5422 28.0223L8.59175 30H10.0014C10.006 29.8968 10.0357 29.8032 10.0684 29.7215C10.0852 29.6793 10.1038 29.638 10.121 29.5998L10.1238 29.5935C10.1423 29.5525 10.1591 29.5149 10.1735 29.4778C10.3531 29.0151 10.4763 28.5231 10.5422 28.0223Z" fill="#4E2705"/>
<path d="M19.9451 17.5659L14.1011 12.0825L0.153466 25.6751V30H7.63376L19.9451 17.5659Z" fill="#FFF0E0"/>
<path d="M14.1011 12.0825L16.8046 14.6192C13.9283 15.4896 11.3842 17.4973 9.35691 19.6174C9.1056 19.8803 8.86026 20.1459 8.61575 20.4106C8.10443 20.9641 7.59672 21.5137 7.04563 22.0258C6.75925 22.2919 6.4845 22.5787 6.21186 22.8634C6.10821 22.9716 6.00486 23.0795 5.9013 23.1858C5.52307 23.5741 5.13854 23.9451 4.71097 24.2536C4.02016 24.7521 3.29871 25.2285 2.58014 25.703L2.57976 25.7032L2.57949 25.7034C2.35885 25.8491 2.13848 25.9946 1.91936 26.1405C1.61595 26.3426 1.29836 26.5216 0.976766 26.7029C0.916932 26.7366 0.856959 26.7704 0.796913 26.8044C0.580996 26.9268 0.364697 27.0521 0.153466 27.1869V25.6751L10.2381 15.8472C10.5423 15.8261 10.8466 15.7929 11.1524 15.7419C11.1895 15.7358 11.2277 15.7296 11.2668 15.7232L11.267 15.7232C11.4453 15.6942 11.6427 15.6621 11.8351 15.616C12.07 15.5596 12.3075 15.4802 12.5064 15.3526C12.601 15.2919 12.678 15.2069 12.7432 15.1275C12.7682 15.0971 12.7908 15.0683 12.8124 15.041C12.8512 14.9917 12.8865 14.947 12.9253 14.9052C13.0591 14.7611 13.0971 14.5875 13.0735 14.4225C13.0503 14.2607 12.9686 14.1076 12.8629 13.9878C12.7434 13.8525 12.61 13.7515 12.4666 13.6754L14.1011 12.0825Z" fill="#4E2705"/>
<path d="M12.2904 13.8471L10.4986 15.5933C10.7037 15.5737 10.9085 15.5477 11.1137 15.5135C11.1526 15.507 11.1921 15.5005 11.2321 15.4941L11.2323 15.494C11.4103 15.4651 11.5971 15.4347 11.7801 15.3908C12.004 15.3371 12.2124 15.2652 12.3794 15.158C12.4417 15.1181 12.4997 15.0569 12.5619 14.9812C12.5803 14.9588 12.5998 14.9342 12.6199 14.9087C12.6626 14.8546 12.7084 14.7966 12.7532 14.7484C12.8335 14.6619 12.8572 14.5605 12.8421 14.455C12.8265 14.3463 12.7691 14.2334 12.687 14.1404C12.5711 14.0091 12.4385 13.9153 12.2904 13.8471Z" fill="#4E2705"/>
<path d="M11.2753 22.6429C11.4646 22.5386 11.6539 22.4343 11.8423 22.3292L11.8439 22.3283L11.8444 22.328C13.1385 21.6061 14.3882 20.8483 15.2888 19.8098C15.4219 19.6563 15.5737 19.472 15.6705 19.2891C15.7699 19.1013 15.7926 18.951 15.731 18.8407C15.7126 18.8079 15.6763 18.7806 15.6092 18.7622C15.5414 18.7437 15.4566 18.7384 15.3643 18.7397C14.8317 18.7471 14.2844 18.9432 13.7491 19.1541C13.0082 19.4461 12.3128 19.8031 11.6255 20.198C11.5066 20.2662 11.3856 20.3345 11.2637 20.4033C10.5581 20.8016 9.8232 21.2165 9.30076 21.7408C9.07873 21.9636 8.90363 22.2528 8.81897 22.5387C8.73383 22.8262 8.74434 23.0939 8.86644 23.2902C8.90424 23.351 8.97719 23.3899 9.10534 23.3971C9.23374 23.4043 9.39518 23.3775 9.5715 23.3298C9.83646 23.2581 10.1094 23.1471 10.3225 23.0603C10.394 23.0312 10.4587 23.0049 10.5142 22.9837C10.7786 22.8826 11.0113 22.7787 11.2495 22.6572L11.2753 22.6429Z" fill="#4E2705"/>
<path fillRule="evenodd" clipRule="evenodd" d="M16.9911 14.8057L17.0005 14.803L18.8764 16.5631C18.791 16.6971 18.711 16.8347 18.6372 16.9763C18.4364 17.3615 18.2704 17.7606 18.1083 18.1557L18.0787 18.2278C17.9262 18.5998 17.7756 18.9672 17.5991 19.323C17.3861 19.7522 17.1635 20.1978 16.9138 20.6274L14.6185 22.9456C14.305 23.1188 13.9824 23.2816 13.6574 23.4456C13.5864 23.4814 13.5153 23.5173 13.4441 23.5533C12.8733 23.8426 12.3012 24.1427 11.7789 24.5124C11.7258 24.55 11.6723 24.588 11.6185 24.6263C11.1396 24.967 10.6334 25.3271 10.1231 25.564C9.94845 25.645 9.77268 25.765 9.60571 25.879C9.57465 25.9002 9.54389 25.9212 9.51351 25.9417C9.31327 26.0767 9.12693 26.1919 8.94574 26.2427C8.67398 26.3188 8.42043 26.4318 8.17534 26.5482C8.12392 26.5727 8.07299 26.5972 8.02235 26.6215L8.02141 26.622L8.021 26.6222L8.02059 26.6224C7.828 26.715 7.63947 26.8058 7.44309 26.8828C7.18659 26.9834 6.92114 27.0559 6.64892 27.127L6.55921 27.1504C6.31729 27.2132 6.07015 27.2775 5.82793 27.3608C5.13638 27.5986 4.42616 27.7781 3.71139 27.9588C3.27049 28.0703 2.82773 28.1822 2.3867 28.3085C2.08531 28.3948 1.77849 28.4699 1.46876 28.5457L1.36965 28.57C1.02723 28.654 0.682111 28.7403 0.34351 28.8439C0.279975 28.8634 0.216609 28.8835 0.153466 28.9043V27.4642C0.397563 27.3017 0.652888 27.153 0.912982 27.0055C0.971944 26.9721 1.0312 26.9387 1.09062 26.9052C1.4121 26.7241 1.73843 26.5401 2.04973 26.3328C2.26734 26.1879 2.48681 26.043 2.70699 25.8976C3.42639 25.4226 4.15343 24.9425 4.84855 24.4409C5.29311 24.1201 5.68905 23.7373 6.06947 23.3468C6.17611 23.2373 6.28128 23.1275 6.38595 23.0182C6.65688 22.7353 6.92446 22.456 7.20551 22.1948C7.76305 21.6767 8.28118 21.1159 8.79592 20.5587C9.03896 20.2956 9.28125 20.0334 9.52658 19.7768C11.5695 17.6403 14.1222 15.6394 16.9911 14.8057ZM10.5983 23.1999C10.868 23.0967 11.1056 22.9907 11.3468 22.8681C11.35 22.8667 11.3532 22.8651 11.3563 22.8634L11.3598 22.8615C11.5497 22.7645 11.7421 22.6571 11.9546 22.5326C12.0574 22.4825 12.3437 22.3155 12.4521 22.2513C13.5755 21.6051 14.6559 20.895 15.4661 19.9608C15.5992 19.8073 15.7671 19.6054 15.8775 19.3967C15.9854 19.1929 16.0573 18.9464 15.9354 18.7283C15.8753 18.6209 15.7721 18.5665 15.6714 18.5389C15.5714 18.5115 15.4601 18.5066 15.361 18.508C14.78 18.5161 14.1954 18.7289 13.6627 18.9388C12.9077 19.2363 12.2017 19.5992 11.5082 19.9975C11.3929 20.0638 11.2742 20.1307 11.1536 20.1987C10.4498 20.5956 9.68169 21.0287 9.13443 21.578C8.88692 21.8264 8.69087 22.1486 8.59467 22.4734C8.49897 22.7966 8.4979 23.1392 8.66746 23.4118C8.76198 23.5638 8.926 23.619 9.09209 23.6284C9.25792 23.6377 9.44799 23.6034 9.63306 23.5533C9.91366 23.4774 10.2089 23.3572 10.4231 23.27L10.4233 23.2699C10.4907 23.2425 10.55 23.2183 10.5983 23.1999Z" fill="#4E2705"/>
<path d="M0.153466 29.1489V30H4.48004C4.82496 29.5854 5.22244 29.1646 5.66286 28.8718C6.10452 28.5782 6.63628 28.4267 7.17314 28.3421C7.66138 28.2652 8.16247 28.2425 8.61248 28.222C8.65714 28.22 8.70128 28.218 8.74487 28.216C8.92163 28.2077 9.09695 28.2017 9.27137 28.1957C9.32283 28.1939 9.3742 28.1922 9.42552 28.1904L14.0753 23.4942C13.9711 23.5473 13.8669 23.5999 13.7629 23.6523L13.7618 23.6529C13.6912 23.6885 13.6208 23.724 13.5505 23.7596C12.9799 24.0488 12.4216 24.3421 11.9148 24.701C11.8628 24.7377 11.8103 24.7751 11.7571 24.813L11.7542 24.815L11.754 24.8152C11.278 25.1539 10.7535 25.5272 10.2222 25.7738C10.0667 25.846 9.90995 25.9529 9.74243 26.0671C9.71037 26.0889 9.67792 26.111 9.64502 26.1332C9.44665 26.267 9.2316 26.4034 9.00931 26.4657C8.75788 26.5361 8.51936 26.6418 8.27635 26.7572C8.22682 26.7807 8.17696 26.8047 8.12676 26.8289C7.93323 26.922 7.73446 27.0177 7.52908 27.0982C7.25834 27.2044 6.98088 27.2799 6.70849 27.351L6.61861 27.3744C6.3756 27.4376 6.13765 27.4995 5.90455 27.5796C5.20647 27.8197 4.47612 28.0046 3.7524 28.1877C3.31349 28.2988 2.87694 28.4093 2.45158 28.5311C2.14552 28.6187 1.83418 28.6949 1.52514 28.7706L1.42579 28.7949C1.08328 28.8789 0.74403 28.9638 0.412509 29.0653C0.325478 29.092 0.239096 29.1197 0.153466 29.1489Z" fill="#4E2705"/>
<path d="M7.63376 30H4.78531C5.09158 29.6452 5.42906 29.3062 5.79307 29.0642C6.19494 28.7971 6.68905 28.653 7.20984 28.5709C7.6844 28.4962 8.17244 28.474 8.62435 28.4534C8.66854 28.4514 8.71239 28.4494 8.75584 28.4474C8.899 28.4407 9.04308 28.4355 9.18777 28.4305L7.63376 30Z" fill="#4E2705"/>
<path d="M17.5041 20.0312L19.9451 17.5659L19.0495 16.7256C18.9768 16.8418 18.9084 16.9607 18.8449 17.0826C18.6496 17.4573 18.4872 17.8473 18.3248 18.243L18.2945 18.3169C18.1427 18.6871 17.9891 19.0618 17.8088 19.4252C17.7108 19.6228 17.6098 19.826 17.5041 20.0312Z" fill="#4E2705"/>
<path d="M19.8635 5.67325L14.2197 0L0.0694963 13.47L0 24.901L19.8635 5.67325Z" fill="#FFF0E0"/>
<path d="M16.0175 1.80722L14.2197 0L8.36845 5.56997C8.33118 5.71438 8.28834 5.85657 8.24551 5.99871L8.24541 5.99904C8.22889 6.05388 8.21237 6.10871 8.19617 6.16366C7.94012 7.03235 7.63068 7.79242 6.95702 8.45056C6.14246 9.24635 4.9523 10.2068 3.70299 10.6996C3.36586 10.8326 3.02265 10.932 2.68038 10.9846L0.0694963 13.47L0.0585383 15.2724C1.51522 14.5794 2.92617 13.7665 4.21922 12.8256C5.20152 12.1108 6.12524 11.3201 6.93742 10.4182C7.34377 9.96704 7.72369 9.49331 8.10567 9.01703L8.10602 9.01659L8.10619 9.01637L8.10668 9.01576C8.2257 8.86736 8.34496 8.71866 8.46524 8.57037C9.5561 7.22547 10.7351 5.95878 11.9358 4.71835C12.8923 3.73019 13.8115 2.93846 15.0429 2.29835C15.3656 2.13058 15.6908 1.96722 16.0175 1.80722Z" fill="#4E2705"/>
<path d="M2.9944 10.6857C3.20224 10.6342 3.41092 10.5659 3.61903 10.4839C4.82707 10.0073 5.99139 9.07109 6.79675 8.28429C7.42803 7.66755 7.72339 6.9532 7.97555 6.09774C7.99233 6.04081 8.00915 5.98483 8.02576 5.92958C8.03045 5.91396 8.03515 5.89833 8.03981 5.88281L2.9944 10.6857Z" fill="#4E2705"/>
<path d="M0.0407432 18.1994L0.0268489 20.4848C0.519672 20.4648 1.02597 20.3932 1.4437 20.1968C2.36483 19.7639 3.01047 19.1684 3.6122 18.5435C3.72856 18.4227 3.84359 18.3003 3.95887 18.1777L3.95902 18.1776C4.43688 17.6694 4.91894 17.1568 5.51689 16.7273C5.94074 16.423 6.39654 16.1724 6.84823 15.928L6.93214 15.8827C7.35714 15.653 7.77664 15.4262 8.17138 15.1595C8.42014 14.9914 8.66898 14.8219 8.91816 14.6521L8.91858 14.6518C9.49068 14.2621 10.0646 13.8711 10.6435 13.4936C11.4451 12.9708 12.2784 12.5852 13.1258 12.1953L16.2678 9.1539C16.144 9.23038 16.0094 9.31235 15.8616 9.40045L15.8571 9.40313L15.8524 9.40538C15.155 9.73941 14.7781 9.93198 14.2355 10.2093L14.2352 10.2094L14.2346 10.2097C13.8135 10.4249 13.2926 10.6911 12.4448 11.1138L12.4358 11.1183L12.4263 11.1211C12.0193 11.2421 11.5815 11.4335 11.1385 11.6348C11.0753 11.6635 11.012 11.6924 10.9487 11.7213C10.571 11.8938 10.1929 12.0664 9.83881 12.1959C8.01188 12.8639 6.23643 13.7419 4.58283 14.768C3.82169 15.2403 3.10942 15.7858 2.40399 16.349C2.22564 16.4914 2.04757 16.635 1.86926 16.7788C1.3439 17.2025 0.816244 17.6281 0.272723 18.0287C0.195423 18.0856 0.118095 18.1425 0.0407432 18.1994Z" fill="#4E2705"/>
<path d="M0.0254388 20.7167L0.0182505 21.8991C0.462333 22.1801 0.765152 22.4224 0.946957 22.6341C1.13393 22.8517 1.21505 23.0649 1.14013 23.2625C1.06947 23.4489 0.876111 23.5707 0.652715 23.6568C0.471842 23.7265 0.250513 23.7806 0.0065469 23.8241L0 24.901L12.6193 12.6856C11.9849 12.9846 11.3683 13.297 10.7686 13.688C10.1917 14.0642 9.62104 14.453 9.0499 14.8421C8.80012 15.0123 8.55013 15.1826 8.29962 15.3519C7.8951 15.6252 7.46614 15.857 7.04335 16.0855L6.95716 16.1321C6.50471 16.3769 6.06099 16.6212 5.65053 16.916C5.0725 17.3311 4.60927 17.8235 4.13274 18.33C4.01574 18.4544 3.89793 18.5796 3.77743 18.7048C3.16911 19.3365 2.50019 19.956 1.54105 20.4068C1.07986 20.6235 0.53353 20.6969 0.0254388 20.7167Z" fill="#4E2705"/>
<path d="M0.00797999 23.5884L0.0165848 22.173C0.385091 22.4148 0.628307 22.6173 0.77288 22.7856C0.941106 22.9815 0.954055 23.1036 0.925122 23.1799C0.891931 23.2675 0.783528 23.3583 0.57045 23.4404C0.417416 23.4994 0.226319 23.5478 0.00797999 23.5884Z" fill="#4E2705"/>
<path d="M0.0424954 17.9112L0.136792 17.8417C0.675942 17.4444 1.1979 17.0234 1.72223 16.6005C1.90128 16.4561 2.08062 16.3114 2.261 16.1674C2.96803 15.603 3.68895 15.0505 4.46208 14.5707C6.12818 13.5369 7.9177 12.6518 9.76025 11.9781C10.1051 11.852 10.4738 11.6837 10.8521 11.511L10.8522 11.5109C10.9158 11.4819 10.9798 11.4527 11.0438 11.4236C11.4828 11.2242 11.9304 11.0279 12.3515 10.9018C13.189 10.4841 13.7075 10.2192 14.1281 10.0043L14.1282 10.0042C14.6727 9.72606 15.0529 9.53176 15.7488 9.19842C16.1525 8.95763 16.4573 8.76306 16.7116 8.60045L16.7254 8.59162C16.8543 8.5092 16.971 8.43456 17.0815 8.36626L19.8635 5.67325L19.2327 5.03916C19.1268 5.10045 19.0246 5.16459 18.9224 5.23087C18.8501 5.27781 18.7774 5.32618 18.7032 5.37548C18.5102 5.50382 18.3078 5.63845 18.0793 5.77011C17.8121 5.92414 17.4576 6.06266 17.1133 6.19718L17.0955 6.20415C16.7403 6.34299 16.3973 6.47791 16.1452 6.62567C15.7705 6.84526 15.4469 7.07531 15.1023 7.32024C15.0487 7.35829 14.9947 7.39672 14.9399 7.4355C14.533 7.72341 14.0874 8.029 13.5001 8.35165C13.4251 8.39285 13.3525 8.4339 13.2812 8.47418C12.8462 8.71992 12.4617 8.93714 11.9081 8.98442L11.9006 8.98506C11.7671 8.99647 11.5816 9.01232 11.3965 9.01499C11.2109 9.01768 11.0118 9.00758 10.8622 8.95957L10.8466 8.95458C10.7609 8.92719 10.6471 8.89086 10.5594 8.82986C10.5106 8.79594 10.4639 8.75065 10.4334 8.68913C10.4022 8.62623 10.3923 8.55491 10.4043 8.47729C10.4546 8.15226 10.6225 7.86571 10.818 7.61262C10.9556 7.43442 11.1138 7.26485 11.2595 7.10855L11.2597 7.10834C11.3191 7.04473 11.3764 6.98324 11.4294 6.92435C11.8785 6.42528 12.3437 5.9102 12.8753 5.47904C13.7973 4.73127 14.8293 4.03048 15.8507 3.43188C16.2304 3.20939 16.6336 3.0114 17.0346 2.82957L16.1899 1.98052C15.8405 2.15097 15.493 2.32509 15.1485 2.50422C13.9472 3.1287 13.0477 3.90169 12.1006 4.88005C10.9017 6.11868 9.72806 7.37977 8.64349 8.71692C8.52467 8.8634 8.40627 9.01104 8.2876 9.15902C7.90475 9.63642 7.51911 10.1173 7.10791 10.5739C6.28249 11.4904 5.34589 12.2916 4.35403 13.0133C3.01839 13.9852 1.55996 14.8208 0.0569772 15.5292L0.0424954 17.9112Z" fill="#4E2705"/>
<path d="M17.2089 3.00482L19.0643 4.86981C18.9731 4.92391 18.8849 4.97956 18.7977 5.03614C18.7213 5.08578 18.6461 5.13577 18.5706 5.18598C18.3797 5.31293 18.1866 5.4413 17.965 5.56903C17.7129 5.71435 17.3717 5.8477 17.0184 5.98577L17.0122 5.98816C16.6622 6.12494 16.3005 6.26659 16.0294 6.42543C15.6453 6.65052 15.3129 6.88685 14.9687 7.13154C14.9153 7.16948 14.8617 7.20762 14.8075 7.24595C14.4032 7.53205 13.9659 7.83182 13.3899 8.14827C13.3112 8.19149 13.2363 8.23366 13.1641 8.27433L13.1638 8.27453L13.1635 8.2747C12.7282 8.51989 12.3893 8.71079 11.8886 8.75356L11.8833 8.75401C11.7488 8.7655 11.5702 8.78077 11.3932 8.78333C11.2108 8.78596 11.0438 8.77466 10.9321 8.73882L10.9315 8.73861C10.8332 8.70706 10.7488 8.68 10.6902 8.63923C10.663 8.62033 10.6476 8.6024 10.6393 8.58566C10.6317 8.5703 10.6262 8.54834 10.6317 8.51297C10.6733 8.24416 10.8144 7.99461 10.9996 7.75486C11.1304 7.58559 11.2764 7.42912 11.4191 7.27606C11.4805 7.21031 11.5413 7.14515 11.6 7.0799C12.0508 6.57884 12.5044 6.0774 13.0197 5.65946C13.9315 4.9199 14.9538 4.22561 15.9665 3.63212C16.3618 3.40046 16.7855 3.1948 17.2089 3.00482Z" fill="#4E2705"/>
</svg>
