<svg width="40" height="40" viewBox="0 0 40 40" fill="none" xmlns="http://www.w3.org/2000/svg">
<path d="M16.7 39.8C7.2 38.1 0 29.9 0 20C0 9 9 0 20 0C31 0 40 9 40 20C40 29.9 32.8 38.1 23.3 39.8L22.2 38.9H17.8L16.7 39.8Z" fill="url(#paint0_linear_691_351)"/>
<path d="M27.8 25.5998L28.7001 19.9998H23.4V16.0998C23.4 14.4998 24 13.2998 26.4 13.2998H29V8.1998C27.6 7.9998 26 7.7998 24.6 7.7998C20 7.7998 16.8 10.5998 16.8 15.5998V19.9998H11.8V25.5998H16.8V39.6998C17.9 39.8998 19 39.9998 20.1 39.9998C21.2 39.9998 22.3 39.8998 23.4 39.6998V25.5998H27.8Z" fill="white"/>
<defs>
<linearGradient id="paint0_linear_691_351" x1="20.001" y1="38.8027" x2="20.001" y2="-0.00740476" gradientUnits="userSpaceOnUse">
<stop stop-color="#4E2705"/>
<stop offset="1" stop-color="#734824"/>
</linearGradient>
</defs>
</svg>
