<svg width="73" height="80" viewBox="0 0 73 80" fill="none" xmlns="http://www.w3.org/2000/svg">
<path d="M29.6998 60.0511C30.2198 59.7622 30.7399 59.4733 31.2574 59.1823L31.2618 59.1797L31.2633 59.1789C34.8186 57.1794 38.2519 55.0805 40.7263 52.2043C41.0921 51.7792 41.5091 51.2687 41.7751 50.7621C42.048 50.2421 42.1106 49.8256 41.9411 49.5201C41.8907 49.4292 41.7909 49.3537 41.6065 49.3029C41.4204 49.2515 41.1874 49.2368 40.9337 49.2404C39.4706 49.261 37.9667 49.804 36.4961 50.3883C34.4605 51.197 32.5501 52.1858 30.6617 53.2794C30.3351 53.4685 30.0026 53.6577 29.6678 53.8482C27.7292 54.9513 25.7102 56.1003 24.2748 57.5525C23.6648 58.1697 23.1837 58.9706 22.9512 59.7624C22.7172 60.5589 22.7461 61.3001 23.0816 61.8438C23.1854 62.0122 23.3859 62.1199 23.7379 62.1398C24.0907 62.1599 24.5342 62.0857 25.0187 61.9536C25.7466 61.755 26.4964 61.4474 27.082 61.2072C27.2783 61.1266 27.4562 61.0537 27.6085 60.9949C28.3351 60.7148 28.9744 60.4271 29.6287 60.0906L29.6998 60.0511Z" fill="#FFF0E0"/>
<path fill-rule="evenodd" clip-rule="evenodd" d="M49.503 45.2181L43.257 39.0593C36.2468 41.6732 29.9934 46.7382 24.8953 52.1129C24.2213 52.8235 23.5556 53.5499 22.8879 54.2785C21.4737 55.8217 20.0502 57.3751 18.5184 58.81C17.7462 59.5333 17.0111 60.3071 16.2668 61.0905C15.9792 61.3932 15.6902 61.6973 15.3972 62.0005C14.3521 63.0822 13.2643 64.1425 12.0429 65.031C10.1331 66.4202 8.13566 67.7498 6.15919 69.0655C5.55426 69.4682 4.9513 69.8696 4.35342 70.271C3.49816 70.8451 2.6016 71.3545 1.71836 71.8563C1.55512 71.949 1.39233 72.0415 1.23033 72.1341C0.814622 72.3717 0.403347 72.6105 0 72.8572V77.125C0.822618 76.8818 1.65677 76.672 2.48519 76.4672L2.75747 76.4C3.60843 76.19 4.45138 75.982 5.27943 75.7429C6.49117 75.3932 7.70728 75.0832 8.91865 74.7745C10.8824 74.274 12.8339 73.7766 14.7339 73.118C15.3993 72.8873 16.0782 72.7094 16.7428 72.5353L16.7462 72.5344L16.9894 72.4705C17.7373 72.2736 18.4666 72.0727 19.1713 71.7941C19.7109 71.5809 20.2288 71.3296 20.7579 71.0729L20.7591 71.0723L20.7602 71.0718L20.7628 71.0705C20.9019 71.003 21.0418 70.9352 21.1831 70.8675C21.8565 70.5452 22.5531 70.2321 23.2997 70.0213C23.7975 69.8807 24.3095 69.5616 24.8596 69.1876C24.9431 69.1308 25.0276 69.0727 25.1129 69.0139C25.5716 68.6983 26.0546 68.366 26.5343 68.1415C27.9364 67.4854 29.327 66.4881 30.643 65.5445C30.7908 65.4385 30.9376 65.3331 31.0835 65.229C32.5184 64.2049 34.0904 63.3737 35.6586 62.5726C35.8535 62.473 36.0483 62.3739 36.2428 62.275L36.2444 62.2742C37.2228 61.7765 38.1934 61.2828 39.1316 60.7508L44.98 54.8292C45.753 53.5297 46.4293 52.1653 47.0738 50.8559C47.5588 49.8706 47.9726 48.8529 48.3915 47.8228L48.4728 47.6229C48.7993 46.8208 49.1315 46.0126 49.503 45.2181ZM27.8397 61.5936C28.5807 61.308 29.2335 61.0144 29.8962 60.6747C29.9012 60.6725 29.9061 60.6702 29.911 60.6677C29.9148 60.6658 29.9186 60.6638 29.9223 60.6617L29.9318 60.6565C30.4534 60.388 30.9823 60.0905 31.566 59.7455C31.8485 59.6067 32.6349 59.1443 32.9327 58.9664C36.0194 57.1768 38.9876 55.2098 41.2133 52.6226C41.5791 52.1974 42.0404 51.6381 42.3438 51.0601C42.6401 50.4956 42.8378 49.8128 42.5028 49.209C42.3377 48.9114 42.0542 48.7607 41.7775 48.6843C41.5027 48.6084 41.197 48.5949 40.9246 48.5987C39.3284 48.6212 37.7222 49.2106 36.2588 49.792C34.1846 50.616 32.2448 51.6209 30.3397 52.7242C30.0227 52.9077 29.6966 53.0931 29.3654 53.2814C27.4318 54.3806 25.3214 55.5804 23.8179 57.1016C23.1378 57.7897 22.5992 58.682 22.3349 59.5817C22.072 60.4769 22.0691 61.4256 22.5349 62.1806C22.7946 62.6015 23.2452 62.7547 23.7015 62.7805C24.1571 62.8064 24.6793 62.7113 25.1878 62.5726C25.9587 62.3624 26.7699 62.0294 27.3583 61.7879L27.359 61.7876C27.544 61.7117 27.707 61.6448 27.8397 61.5936Z" fill="#FFF0E0"/>
<path d="M37.5988 62.3028C37.2444 62.4857 36.8893 62.6663 36.5352 62.8464L36.5343 62.8468C36.3394 62.9459 36.1449 63.0449 35.9509 63.144C34.3833 63.9448 32.8492 64.7574 31.4568 65.7512C31.3114 65.855 31.1641 65.9607 31.015 66.0676C29.7074 67.0057 28.2664 68.0395 26.8067 68.7226C26.3796 68.9225 25.9488 69.2186 25.4885 69.5349C25.4005 69.5954 25.3113 69.6566 25.2209 69.7181C24.6759 70.0887 24.0851 70.4664 23.4744 70.6388C22.7836 70.8339 22.1283 71.1266 21.4606 71.4463C21.3245 71.5114 21.1876 71.5779 21.0497 71.6448C20.5179 71.9028 19.9719 72.1678 19.4076 72.3908C18.6638 72.6849 17.9015 72.894 17.1531 73.091C17.0706 73.1128 16.9883 73.1344 16.9062 73.1559C16.2385 73.3309 15.5848 73.5022 14.9444 73.7242C13.0264 74.3891 11.0199 74.9011 9.03156 75.4084C7.8257 75.7161 6.6263 76.0221 5.45768 76.3594C4.6168 76.6022 3.76144 76.8132 2.91239 77.0227L2.63944 77.0901C1.7481 77.3105 0.864818 77.533 0 77.7949V80H11.132C12.0375 78.9223 13.1454 78.0637 14.2803 77.3031C15.4937 76.4899 16.9546 76.0704 18.4296 75.836C19.771 75.6229 21.1477 75.56 22.3841 75.5034C22.5067 75.4978 22.628 75.4923 22.7478 75.4867C23.2334 75.4639 23.7151 75.4471 24.1943 75.4305L24.1966 75.4305C24.3476 75.4252 24.4985 75.42 24.6491 75.4146L37.5988 62.3028Z" fill="#FFF0E0"/>
<path d="M19.9091 80H12.2023C12.994 79.0959 13.7108 78.4575 14.638 77.8361C15.7421 77.0961 17.0996 76.6971 18.5305 76.4698C19.8342 76.2627 21.1751 76.2012 22.4167 76.1444L22.5005 76.1405C22.5936 76.1362 22.6861 76.132 22.7779 76.1277C23.1803 76.1088 23.5853 76.094 23.9921 76.0798L19.9091 80Z" fill="#FFF0E0"/>
<path d="M46.6452 53.1431C46.9972 52.4645 47.3293 51.7908 47.6501 51.1391C48.1455 50.1326 48.5674 49.095 48.9844 48.0697L49.0678 47.8646C49.3657 47.1325 49.6638 46.4073 49.9888 45.6972L52.0205 47.7005L46.6452 53.1431Z" fill="#FFF0E0"/>
<path d="M25.9444 41.2802L0 66.738V72.1074C0.302745 71.9269 0.607233 71.751 0.911445 71.5771C1.07642 71.4828 1.24119 71.3892 1.40557 71.2958C2.28912 70.7937 3.16166 70.298 3.99525 69.7383C4.59629 69.3348 5.20073 68.9325 5.80591 68.5296L5.80696 68.5289L5.80963 68.5271L5.81068 68.5264C7.78488 67.2122 9.76698 65.8928 11.6649 64.5122C12.8396 63.6577 13.8961 62.6302 14.9352 61.5548C15.2198 61.2603 15.5037 60.9615 15.7885 60.6617C16.5375 59.8734 17.2924 59.0789 18.0791 58.3419C19.5932 56.9236 20.9879 55.4014 22.3927 53.8684C23.0645 53.1352 23.7387 52.3995 24.4292 51.6715C29.4915 46.3345 35.7267 41.2548 42.754 38.5633L35.7507 31.6578L32.3898 34.9557C33.0072 35.179 33.5762 35.5251 34.0615 36.0794C34.3519 36.4109 34.5766 36.8351 34.6402 37.2831C34.7051 37.7401 34.6005 38.221 34.2329 38.6202C34.1263 38.736 34.0295 38.8599 33.9228 38.9963C33.8636 39.072 33.8014 39.1516 33.7328 39.2358C33.5536 39.4557 33.3421 39.6912 33.0822 39.8592C32.5356 40.2127 31.8832 40.4327 31.2378 40.5888C30.7092 40.7166 30.167 40.8054 29.6771 40.8857C29.5694 40.9033 29.4642 40.9205 29.3623 40.9377C28.2187 41.1299 27.0826 41.2305 25.9444 41.2802Z" fill="#FFF0E0"/>
<path d="M26.6373 40.6003C27.5123 40.5438 28.3829 40.4516 29.2558 40.3049C29.3627 40.2869 29.4713 40.2691 29.581 40.2511L29.5818 40.251C30.0708 40.1708 30.5839 40.0867 31.0867 39.9651C31.7019 39.8163 32.2743 39.6172 32.7334 39.3205C32.9045 39.2098 33.0639 39.0404 33.2347 38.8307C33.2852 38.7687 33.3387 38.7004 33.394 38.6298C33.5114 38.48 33.6372 38.3194 33.7603 38.1857C33.9808 37.9462 34.0459 37.6656 34.0043 37.3733C33.9616 37.0722 33.8038 36.7596 33.5782 36.502C33.1068 35.9637 32.5353 35.6526 31.8729 35.4628L26.6373 40.6003Z" fill="#FFF0E0"/>
<path d="M48.5033 55.0655L51.1709 52.3999C51.8203 53.353 52.5875 54.3061 53.3133 55.1666C54.423 56.482 55.8802 57.5209 57.3323 58.3381C57.8763 58.6442 58.4566 58.9225 59.0286 59.1967L59.4463 59.3975L59.6896 59.5162C60.4749 59.9025 61.2237 60.3055 61.8756 60.8091C64.3709 62.7384 66.3628 65.485 67.9291 68.2611C69.007 70.1723 69.7445 72.2937 70.4047 74.4154C70.7581 75.5513 71.287 76.5702 71.8088 77.5755L71.8213 77.5994L71.9852 77.9162L72.127 78.1919C72.2311 78.396 72.3331 78.6004 72.4318 78.806C72.5526 79.0583 72.622 79.3232 72.6856 79.6138L72.7688 80H66.0693C65.9209 79.8634 65.7787 79.719 65.6336 79.5692L65.5328 79.4652C65.3865 79.3135 65.2356 79.1569 65.0712 78.9979C64.3634 78.3127 63.5133 77.807 62.7005 77.3232L62.6809 77.3117C61.8505 76.8175 61.0586 76.3441 60.4059 75.7114C59.1603 74.5046 57.8052 73.5306 56.3531 72.6124C55.6586 72.1732 54.9139 71.8344 54.1947 71.5072L54.071 71.4508C53.3062 71.1024 52.5733 70.7605 51.9097 70.3089C50.7499 69.5194 49.6138 68.726 48.6463 67.7473C48.2562 67.3523 47.9292 66.892 47.5885 66.4064L47.5584 66.3635C47.2318 65.8983 46.8898 65.4107 46.4801 64.9842C45.6589 64.1299 45.0129 62.9507 44.6341 61.818C44.4079 61.142 44.1118 60.4572 43.7765 59.7884L46.0026 57.5642C46.1221 57.6221 46.2292 57.676 46.3195 57.724C46.4023 57.768 46.465 57.8038 46.5097 57.831C46.547 57.8539 46.5716 57.8708 46.5846 57.8813C48.2445 59.2408 49.6159 61.0533 50.6696 62.9461C51.0844 63.6916 51.574 64.4056 52.0506 65.1006C52.2476 65.3879 52.442 65.672 52.6285 65.9537C53.0566 66.6011 53.5989 67.255 54.104 67.8641C54.2441 68.0327 54.3808 68.1979 54.5121 68.3586C55.9998 70.1842 58.3642 71.3369 60.681 71.3369C61.5461 71.3369 62.3309 71.2998 63.2048 71.0317C63.3335 70.9922 63.4544 70.9263 63.5451 70.8202C63.6383 70.7112 63.6793 70.5843 63.6864 70.4621C63.6994 70.2402 63.6028 70.0192 63.5142 69.854C63.4205 69.6789 63.2993 69.5026 63.2006 69.3593L63.1989 69.3566C63.0894 69.1972 63.022 69.0974 62.9965 69.039C62.6332 68.2155 62.1289 67.4195 61.646 66.6574C61.4508 66.3497 61.2593 66.0476 61.082 65.7513L60.9122 65.4648L60.7859 65.2496C60.2855 64.3947 59.7616 63.5009 59.0562 62.7535L58.6381 62.3058C57.8717 61.4809 57.025 60.5701 56.0934 59.9201C55.4951 59.5026 54.8524 59.1739 54.2278 58.8606L54.1019 58.7976C53.5157 58.504 52.9488 58.2202 52.4182 57.8765C51.04 56.9835 49.7393 56.0708 48.5033 55.0655Z" fill="#FFF0E0"/>
<path d="M65.0248 79.8644L65.1561 80H55.7234C55.5959 79.8557 55.46 79.719 55.3245 79.5902C55.0895 79.3665 54.8399 79.1537 54.6099 78.9578L54.5865 78.9378C54.3465 78.7332 54.1333 78.5503 53.9644 78.3818C53.6646 78.0829 53.3347 77.8072 53.0173 77.5421L52.7673 77.3325C52.3705 76.9966 52.0034 76.6648 51.7032 76.2816C51.1136 75.5287 50.4363 74.8551 49.7727 74.195L49.7702 74.1924C49.5093 73.9332 49.2509 73.6761 49.0005 73.417C48.5121 72.9117 48.0676 72.3664 47.6123 71.8079L47.5425 71.7222C47.0658 71.1376 46.5754 70.5413 46.023 69.9904C44.6859 68.6562 43.386 67.2968 42.0802 65.931L41.124 64.9315C40.7886 64.5819 40.4002 64.2823 40.0293 64.0004L39.9629 63.95L39.7634 63.798L43.2969 60.2674C43.5808 60.8507 43.8304 61.4412 44.0249 62.0216C44.4271 63.2237 45.1162 64.4917 46.0168 65.4286C46.3918 65.819 46.7092 66.2711 47.0445 66.7489L47.0629 66.7749C47.3995 67.2548 47.7553 67.759 48.1893 68.1982C49.2062 69.2269 50.3911 70.0517 51.5481 70.8393C52.263 71.3258 53.0437 71.6881 53.8046 72.0347L53.9175 72.0861C54.6459 72.4177 55.3533 72.7397 56.0098 73.1547C57.4414 74.06 58.7568 75.0074 59.9585 76.1721C60.6714 76.8625 61.5252 77.3708 62.3409 77.8561L62.3522 77.863C63.183 78.3574 63.9737 78.8292 64.6243 79.4588C64.7547 79.5848 64.8877 79.7224 65.0248 79.8644Z" fill="#FFF0E0"/>
<path d="M39.3056 64.2557C39.3934 64.3233 39.4803 64.3897 39.5669 64.4552L39.6405 64.5111C39.8374 64.6606 40.0272 64.8066 40.2058 64.9562C40.3672 65.0912 40.5198 65.2292 40.6603 65.3755L41.6136 66.3718C42.9198 67.7381 44.2264 69.1044 45.5694 70.4445C46.0954 70.969 46.5666 71.5411 47.0445 72.1275L47.1269 72.2284C47.5755 72.7788 48.0334 73.3402 48.5384 73.8628C48.8048 74.1383 49.0711 74.4035 49.335 74.6654L49.3454 74.676C49.9989 75.3257 50.6332 75.9565 51.1977 76.677C51.5401 77.1148 51.9499 77.4816 52.3521 77.8222L52.6172 78.0446C52.9316 78.3072 53.2331 78.5591 53.5107 78.8359C53.6144 78.9394 53.731 79.0459 53.854 79.154C53.956 79.2439 54.0626 79.3348 54.1697 79.426L54.1885 79.4419L54.2048 79.4561C54.4126 79.6331 54.6237 79.8133 54.8236 80H49.8798L36.8211 66.738L39.3056 64.2557Z" fill="#FFF0E0"/>
<path d="M48.0467 55.5215L46.4817 57.0852L46.621 57.1573C46.7702 57.2367 46.9078 57.3164 46.9914 57.385C48.7304 58.8089 50.1495 60.6915 51.2307 62.6342C51.6304 63.3523 52.0929 64.0265 52.562 64.7107C52.7627 65.0038 52.9651 65.2988 53.1641 65.5999C53.5713 66.2153 54.0831 66.8325 54.5848 67.4378L54.8357 67.7412L55.0101 67.9534C56.3802 69.6349 58.5645 70.6952 60.681 70.6952C61.5277 70.6952 62.2356 70.6578 63.0162 70.4182L63.045 70.4078C63.0409 70.3674 63.0174 70.2864 62.948 70.157C62.92 70.1048 62.8882 70.0514 62.8544 69.9972C62.8276 69.9545 62.7996 69.9114 62.7703 69.8679L62.6541 69.6974C62.6073 69.6296 62.5563 69.5559 62.5111 69.4837C62.4701 69.4187 62.4337 69.3549 62.4087 69.2977C62.0658 68.5205 61.6029 67.7903 61.1309 67.0455L61.0142 66.8614L60.8386 66.5823L60.6789 66.3255L60.5309 66.0807C60.4259 65.9049 60.3231 65.7298 60.2211 65.5561C59.7202 64.7021 59.2397 63.8832 58.5892 63.1938C58.4453 63.0412 58.3007 62.886 58.1556 62.7299C57.3871 61.9037 56.5956 61.0532 55.7259 60.4463C55.1702 60.0586 54.5664 59.7484 53.9397 59.4342L53.8076 59.368L53.8025 59.3654C53.2247 59.0761 52.6285 58.7777 52.0686 58.4149C50.6591 57.5015 49.3216 56.5624 48.0467 55.5215Z" fill="#FFF0E0"/>
<path d="M73 68.0214V78.5066C72.7868 78.063 72.5677 77.6409 72.3523 77.2266C71.8414 76.2432 71.3539 75.3037 71.0181 74.2248C70.3554 72.0958 69.6015 69.9197 68.4885 67.946C66.9018 65.1336 64.8597 62.3048 62.2686 60.3016C61.5636 59.7569 60.7671 59.3309 59.9731 58.9405C59.7427 58.8272 59.514 58.7175 59.287 58.6088C58.7225 58.3381 58.1719 58.0741 57.6476 57.7789C56.2322 56.9826 54.8466 55.9883 53.8042 54.7531C53.0566 53.8667 52.2777 52.8961 51.6334 51.9378L54.3754 49.1979L73 68.0214Z" fill="#FFF0E0"/>
<path d="M35.1085 68.0214L37.409 70.4502L37.3601 70.5045C37.3321 70.5344 37.3049 70.5621 37.2781 70.5875C36.671 71.1654 36.0087 71.5283 35.236 71.9516L34.958 72.1045C34.6686 72.2642 34.3459 72.3981 34.0009 72.5319L33.7392 72.6323C33.5932 72.6881 33.444 72.745 33.2951 72.8042L33.0647 72.8983L32.9447 72.9494C32.2431 73.2551 31.542 73.6637 31.0979 74.4028C30.9177 74.7031 30.8077 75.0209 30.712 75.3125L30.6802 75.4107L30.679 75.4144L30.6158 75.606L30.5665 75.7476C30.551 75.7915 30.5351 75.8349 30.5184 75.8779C30.4904 75.9501 30.4607 76.021 30.4281 76.0908L30.4055 76.1379C30.3294 76.2927 30.2433 76.4481 30.1505 76.6161C30.0798 76.7435 30.0054 76.8782 29.928 77.0253C29.7612 77.3426 29.596 77.6951 29.5258 78.032C29.4225 78.5302 29.3393 78.9694 29.3393 79.5111C29.3393 79.5691 29.3443 79.632 29.3477 79.6784L29.3498 79.709L29.3502 79.714C29.231 79.7567 29.1445 79.8678 29.1378 80H25.6996L25.7197 79.9521C25.7573 79.8649 25.7987 79.7779 25.8439 79.6856L25.8577 79.656L25.8639 79.6436C25.9149 79.538 25.9697 79.4244 26.0178 79.3087C26.3887 78.4194 26.6772 77.4918 26.8825 76.5452L35.1085 68.0214Z" fill="#FFF0E0"/>
<path d="M25.9839 77.4763L23.5484 80H25.0181C25.0498 79.894 25.0892 79.7936 25.1297 79.6992C25.177 79.589 25.2292 79.4809 25.2777 79.3808L25.2857 79.3644C25.3375 79.2571 25.3848 79.1588 25.4249 79.0619C25.6402 78.5459 25.8267 78.0159 25.9839 77.4763Z" fill="#FFF0E0"/>
<path d="M42.6208 80H34.7799C35.3552 78.4436 36.1592 77.119 37.3534 75.8356C37.9249 75.2212 38.915 74.6974 39.7346 74.3013C40.0427 74.1523 40.3555 74.0183 40.6724 73.8953L44.4472 77.8805C44.3104 78.0525 44.1628 78.2218 44.009 78.3927L43.7602 78.6654C43.5403 78.9049 43.3136 79.1518 43.1079 79.4037L42.9825 79.5541C42.875 79.6818 42.7454 79.8362 42.6208 80Z" fill="#FFF0E0"/>
<path d="M43.4466 80H46.4545L44.8925 78.3508C44.7603 78.5136 44.6228 78.6701 44.486 78.8221L44.221 79.1129C44.006 79.3471 43.7991 79.5727 43.6059 79.8093L43.4579 79.9867C43.4541 79.9911 43.4504 79.9955 43.4466 80Z" fill="#FFF0E0"/>
<path d="M36.883 75.3987C35.5705 76.8095 34.7046 78.2736 34.0975 80H29.9627L29.9765 79.9517C29.9811 79.9319 29.9845 79.9131 29.987 79.8957C29.9995 79.8102 29.9945 79.7241 29.9907 79.666L29.987 79.6164L29.9857 79.6009C29.9832 79.5663 29.9815 79.5392 29.9815 79.5111C29.9815 79.2669 30.0008 79.0459 30.0334 78.8213C30.0522 78.6895 30.076 78.5564 30.1032 78.4166L30.1546 78.1624C30.2052 77.9195 30.3332 77.6345 30.4967 77.3235C30.5581 77.2066 30.628 77.0802 30.6978 76.9531C30.8002 76.7678 30.9035 76.5811 30.9821 76.4206C31.1138 76.1528 31.205 75.874 31.2873 75.6204L31.2911 75.6091L31.3224 75.5122C31.4178 75.222 31.5089 74.9655 31.6486 74.733C31.9881 74.1675 32.5383 73.8264 33.2015 73.5377C33.3303 73.4815 33.4607 73.4284 33.5928 73.3765L33.8178 73.2892L33.9566 73.2363L34.2334 73.1302C34.5829 72.9946 34.9392 72.8479 35.2686 72.6661L35.5471 72.5133C36.3118 72.0949 37.0494 71.6914 37.7213 71.0522C37.7493 71.0257 37.7774 70.9975 37.8058 70.9679L37.8522 70.918L40.1974 73.3939C39.9474 73.4959 39.6994 73.6053 39.4548 73.7236C38.6483 74.1137 37.5486 74.6833 36.883 75.3987Z" fill="#FFF0E0"/>
<path d="M50.705 16.7291L37.6774 29.9465L73 64.8128L72.9377 56.7278C72.1493 56.0744 71.3849 55.3337 70.6288 54.555C70.2301 54.1444 69.4634 53.5954 68.4389 52.9486C67.4225 52.307 66.179 51.5853 64.8472 50.8289C64.2583 50.4944 63.6519 50.153 63.0409 49.809C60.8959 48.6013 58.6931 47.361 56.9829 46.2715C54.5447 44.7181 52.4762 43.2495 50.5888 40.8678C48.2918 37.9693 46.5638 33.4473 47.432 29.534C47.7795 27.9674 48.8724 26.8117 50.1766 26.0543C51.4795 25.2977 53.0226 24.9198 54.3393 24.9198C56.1029 24.9198 57.2607 25.5777 58.5948 26.3359C58.8938 26.5058 59.2017 26.6808 59.5272 26.8545C61.2414 27.7692 62.7897 28.9972 64.2261 30.3156C65.4415 31.4312 66.5827 32.6475 67.7141 33.8534C67.9606 34.1161 68.2066 34.3783 68.4528 34.6389C69.8342 36.1008 71.2265 37.5161 72.7705 38.7189L72.7992 38.7412L72.77 34.9515L63.8097 26.2394C61.5751 25.4502 59.4404 24.4139 57.5648 22.9472C56.8224 22.3666 56.1722 21.7096 55.5432 21.0638L55.4107 20.9276C54.8243 20.3248 54.2525 19.737 53.6201 19.2086C53.3916 19.0176 53.1669 18.8215 52.9434 18.6264C52.3055 18.0696 51.3903 17.1295 50.705 16.7291Z" fill="#FFF0E0"/>
<path d="M62.6476 25.1094L52.3763 15.0099L51.1642 16.2567C51.8641 16.6887 52.8 17.6474 53.4077 18.1784C53.6208 18.3647 53.8289 18.5465 54.0322 18.7163C54.6911 19.267 55.2851 19.8777 55.8669 20.4758L56.0035 20.6163C56.6335 21.2631 57.2564 21.8912 57.9606 22.4419C59.3877 23.5578 60.9729 24.4181 62.6476 25.1094Z" fill="#FFF0E0"/>
<path d="M72.8839 49.7402L72.9312 55.8784C72.3151 55.3385 71.7044 54.7412 71.0897 54.1081C70.6314 53.6362 69.8037 53.0511 68.782 52.4061C67.7521 51.7559 66.4975 51.0281 65.1646 50.271C64.5699 49.9332 63.9597 49.5896 63.3463 49.2443L63.3459 49.2441L63.3453 49.2437C61.2028 48.0374 59.0221 46.8096 57.3282 45.7304C54.9064 44.1876 52.9116 42.7652 51.0923 40.4694C48.8692 37.6643 47.2464 33.3355 48.059 29.6729C48.3565 28.332 49.2988 27.3063 50.4993 26.6091C51.7012 25.9112 53.1325 25.5615 54.3393 25.5615C55.9199 25.5615 56.9131 26.1237 58.2311 26.8697C58.5405 27.0448 58.8677 27.2301 59.2246 27.4205C60.8724 28.2999 62.3757 29.4886 63.7916 30.7882C64.9876 31.886 66.109 33.081 67.2397 34.2861L67.2408 34.2873L67.2418 34.2884C67.4891 34.5519 67.7368 34.8159 67.9858 35.0794C69.3696 36.5438 70.7903 37.99 72.3757 39.225C72.5178 39.3358 72.6611 39.4445 72.8054 39.5515L72.8316 42.9509C72.4213 42.7349 72.0045 42.5264 71.5799 42.3272C70.2038 41.6814 68.8968 41.0415 67.7905 40.1434C67.5762 39.9694 67.3608 39.7973 67.1461 39.6258L67.1456 39.6255C66.3258 38.9706 65.5156 38.3235 64.8141 37.6078C64.5195 37.3072 64.2548 36.9995 63.9828 36.6832C63.8249 36.4996 63.6646 36.3132 63.4945 36.1236C63.1917 35.7861 62.8535 35.4694 62.526 35.1627C62.3743 35.0207 62.2249 34.8807 62.0824 34.7419C61.963 34.6256 61.8428 34.5034 61.7202 34.3789C61.4135 34.0673 61.0918 33.7404 60.7302 33.4514C60.2446 33.0633 59.6891 32.8351 59.154 32.6152L59.0435 32.5697C58.7676 32.4559 58.496 32.3362 58.2243 32.2164C57.2587 31.7909 56.2918 31.3648 55.1296 31.1998C55.0485 31.1883 54.9658 31.1762 54.8817 31.1638L54.8811 31.1638C54.3909 31.0919 53.8549 31.0132 53.3386 31.0126C53.1572 31.0123 53.0155 31.0661 52.9016 31.1272C52.8484 31.1557 52.7992 31.187 52.7601 31.212L52.7592 31.2125C52.717 31.2394 52.6844 31.2601 52.6507 31.2788C52.1684 31.5455 51.9031 31.9209 51.8146 32.3595C51.7299 32.779 51.8141 33.2218 51.9502 33.6294C52.1903 34.3485 52.7293 34.9656 53.3172 35.4973C53.7483 35.8872 54.2316 36.2529 54.673 36.5867L54.6738 36.5874C54.8331 36.7078 54.9868 36.8242 55.1307 36.936C55.9047 37.5378 56.7152 38.1153 57.5909 38.6247C57.6941 38.6847 57.7958 38.7426 57.8957 38.7995C58.2585 39.0061 58.599 39.2 58.9093 39.4365C59.1286 39.6036 59.3369 39.7808 59.5529 39.9647L59.6012 40.0058C59.8322 40.2022 60.0724 40.4049 60.3311 40.5949C60.5963 40.7897 60.8586 40.9727 61.1169 41.1528C61.5832 41.478 62.0363 41.7941 62.4688 42.1536C63.2028 42.7638 63.8817 43.4119 64.5691 44.0682L64.5713 44.0702C64.8355 44.3225 65.101 44.5759 65.3715 44.8289C66.3395 45.7346 67.3577 46.6213 68.5575 47.3642C69.3583 47.8601 70.1962 48.3079 71.0287 48.7468L71.2775 48.8779C71.8192 49.1631 72.357 49.4463 72.8839 49.7402Z" fill="#FFF0E0"/>
<path d="M72.8782 49.004L72.8372 43.6811C72.3368 43.4111 71.8277 43.1524 71.3068 42.908C69.9354 42.2644 68.5606 41.5953 67.3855 40.6414C67.1806 40.4751 66.9715 40.3081 66.7607 40.1398C65.9372 39.4822 65.0869 38.8033 64.3552 38.0568C64.0485 37.7438 63.757 37.4053 63.4741 37.0766L63.4734 37.0758L63.4731 37.0754C63.3187 36.896 63.1668 36.7196 63.0163 36.5519C62.7319 36.235 62.429 35.9515 62.1133 35.656C61.9565 35.5093 61.7965 35.3596 61.634 35.2014C61.4938 35.0647 61.3621 34.9309 61.2335 34.8002C60.9384 34.5002 60.6592 34.2164 60.329 33.9525C59.9178 33.6239 59.4429 33.4283 58.887 33.1993L58.7984 33.1628C58.4926 33.0366 58.2021 32.9089 57.9195 32.7845C56.9686 32.3662 56.1055 31.9865 55.0393 31.8352C54.9523 31.8228 54.8656 31.8101 54.7792 31.7975C54.2868 31.7255 53.8035 31.6549 53.3378 31.6543C53.2933 31.6542 53.257 31.6649 53.2054 31.6926C53.1761 31.7082 53.1461 31.7271 53.1044 31.7537L53.0987 31.7573C53.0608 31.7814 53.0133 31.8117 52.9617 31.8402C52.6318 32.0227 52.4927 32.2458 52.4441 32.4863C52.3918 32.7458 52.438 33.0626 52.5594 33.4263C52.7465 33.9865 53.1856 34.5127 53.7482 35.0215C54.1567 35.3911 54.6051 35.7302 55.0395 36.0589C55.2043 36.1836 55.3672 36.3068 55.5251 36.4296C56.2854 37.0206 57.0713 37.5799 57.914 38.0701C58.0049 38.1229 58.0984 38.1761 58.1933 38.2301C58.5611 38.4394 58.9507 38.661 59.2988 38.9262C59.5325 39.1043 59.7535 39.2924 59.9668 39.474L60.0175 39.5171C60.249 39.7141 60.4734 39.903 60.7115 40.0778C60.9493 40.2525 61.1987 40.4266 61.4514 40.6031C61.9337 40.9399 62.4285 41.2853 62.8795 41.6603C63.6318 42.2857 64.3348 42.9568 65.0279 43.6185C65.2895 43.8682 65.5496 44.1165 65.8104 44.3605C66.7692 45.2574 67.7506 46.1096 68.8958 46.8187C69.6756 47.3017 70.4957 47.7402 71.3284 48.1793L71.5778 48.3106C72.0108 48.5386 72.4464 48.768 72.8782 49.004Z" fill="#FFF0E0"/>
<path d="M40.2463 3.20856L42.6012 5.5615C40.484 6.95103 38.4879 8.44173 36.5796 10.0405C35.1198 11.2636 33.8499 12.7154 32.624 14.1219C32.4794 14.2879 32.3229 14.4611 32.1608 14.6405L32.1601 14.6413C31.7619 15.0821 31.3299 15.5604 30.9555 16.0613C30.4238 16.7729 29.971 17.5756 29.8483 18.4784C29.819 18.694 29.8507 18.8909 29.9411 19.0634C30.0295 19.2321 30.1624 19.3549 30.3003 19.4462C30.5484 19.6103 30.8677 19.7047 31.1085 19.7758L31.1523 19.7888C31.5723 19.9136 32.1282 19.9306 32.646 19.913C33.1624 19.8955 33.6788 19.8415 34.0507 19.8026L34.0718 19.8004C35.6138 19.6391 36.6747 19.0166 37.875 18.3123C38.0717 18.1968 38.2722 18.0792 38.4792 17.961C40.1003 17.0354 41.3269 16.1648 42.4465 15.3452C42.5973 15.2348 42.746 15.1255 42.8932 15.0172C43.8413 14.3201 44.7319 13.6653 45.7654 13.0367C46.4608 12.6137 46.9079 12.2453 47.8916 11.8414L47.9409 11.8211C48.1586 11.7318 48.3779 11.6417 48.5953 11.5508L50.522 13.4759L43.0937 21.0459C42.1123 21.5501 41.3162 21.9736 40.3219 22.5026L40.3213 22.5029C39.1597 23.1209 37.7271 23.8831 35.4131 25.0855C34.2449 25.4578 33.0067 26.0259 31.7929 26.6021C31.6157 26.6862 31.4391 26.7704 31.2632 26.8543C30.217 27.3533 29.1972 27.8398 28.2417 28.2079C23.1374 30.1744 18.1926 32.7233 13.6002 35.6773C11.4692 37.048 9.4878 38.6176 7.54583 40.2192C7.05036 40.6279 6.55787 41.0382 6.06614 41.4479C4.62621 42.6477 3.1928 43.8421 1.71012 44.9718C1.16689 45.3858 0.622641 45.7988 0.0776027 46.2112L0.0224863 39.2171C4.65075 37.037 9.14694 34.4311 13.2141 31.3705C15.9422 29.3176 18.5119 27.0477 20.765 24.4646C21.8875 23.1777 22.9373 21.825 23.9795 20.4821C24.3025 20.0658 24.6249 19.6505 24.9484 19.2383C27.9017 15.4762 31.1076 11.9198 34.3855 8.42425C36.2742 6.41003 38.1096 4.68325 40.2463 3.20856Z" fill="#FFF0E0"/>
<path d="M0.083907 47.0112L0.124735 52.1922C1.11876 52.0644 2.08933 51.8326 2.92648 51.422C5.47298 50.1728 7.24199 48.4883 8.88687 46.7249C9.20496 46.3839 9.51927 46.0389 9.83424 45.6931L9.83465 45.6926C11.1403 44.2593 12.4574 42.8133 14.1024 41.5915C15.2684 40.7254 16.5265 40.0066 17.7735 39.3052L18.0051 39.1749C19.1784 38.5156 20.3366 37.8648 21.4234 37.1046C22.1083 36.6256 22.7934 36.1425 23.4794 35.6587L23.4806 35.6579C25.0556 34.5473 26.6356 33.4331 28.2303 32.3561C30.4709 30.8428 32.8101 29.7186 35.1887 28.5756C35.3861 28.4807 35.5838 28.3857 35.7817 28.2903L41.5468 22.5785C41.2544 22.7335 40.9542 22.8932 40.6329 23.0641L40.632 23.0646C39.4685 23.6837 38.0289 24.4496 35.6848 25.6676L35.6601 25.6804L35.6336 25.6888C34.5048 26.046 33.2935 26.6002 32.0684 27.1817C31.8938 27.2646 31.7187 27.3481 31.5437 27.4316C30.4992 27.9299 29.4535 28.4288 28.4727 28.8067C23.4117 30.7565 18.5058 33.285 13.9478 36.2169C11.8499 37.5663 9.89225 39.1161 7.95465 40.7141C7.46508 41.1179 6.97638 41.5251 6.48699 41.9329L6.48608 41.9336C5.04323 43.1359 3.59436 44.3431 2.09956 45.4821C1.42839 45.9935 0.756418 46.5031 0.083907 47.0112Z" fill="#FFF0E0"/>
<path d="M0.129827 52.8384L0.162089 56.9323C0.828526 57.3934 1.32655 57.8132 1.67312 58.1982C2.20664 58.7907 2.44457 59.3766 2.2463 59.9279C2.0593 60.4479 1.52643 60.7958 0.907809 61.0464C0.69069 61.1343 0.452201 61.2146 0.196414 61.2881L0.214076 63.5294L34.3821 29.677C32.3869 30.6444 30.4554 31.6278 28.5899 32.8877C27.0009 33.9609 25.4297 35.0689 23.8573 36.1777C23.1697 36.6626 22.4814 37.1479 21.7917 37.6304C20.6779 38.4094 19.4937 39.0748 18.3265 39.7306L18.0885 39.8644C16.8394 40.5669 15.6147 41.2677 14.4855 42.1065C12.8953 43.2876 11.6297 44.6765 10.3276 46.1053C10.008 46.4561 9.68606 46.8093 9.35667 47.1625C7.69376 48.9451 5.86111 50.6972 3.20951 51.998C2.26965 52.4591 1.19648 52.7069 0.129827 52.8384Z" fill="#FFF0E0"/>
<path d="M0.191148 60.6199L0.168345 57.7262C0.616217 58.059 0.953637 58.3585 1.19568 58.6274C1.6757 59.1605 1.71848 59.498 1.64191 59.7109C1.55406 59.9552 1.25655 60.2126 0.666504 60.4517C0.520339 60.5109 0.361472 60.5669 0.191148 60.6199Z" fill="#FFF0E0"/>
<path d="M43.0293 5.9893L48.1728 11.1584C48.0351 11.2153 47.8961 11.2724 47.7564 11.3298L47.756 11.3299L47.739 11.3369C46.7699 11.7348 46.1791 12.0339 45.4315 12.4886C44.3721 13.1329 43.4574 13.8055 42.5104 14.5019C42.3636 14.6099 42.216 14.7185 42.0669 14.8276C40.9544 15.6419 39.7505 16.496 38.1605 17.4038C37.9434 17.5278 37.7368 17.6487 37.5376 17.7653L37.5366 17.7658L37.5358 17.7663C36.3347 18.4691 35.3995 19.0163 34.0049 19.1621L33.9901 19.1637C33.6154 19.2029 33.1178 19.2549 32.6241 19.2717C32.1154 19.289 31.6488 19.2668 31.3353 19.1737L31.3335 19.1732C31.0575 19.0912 30.8207 19.0208 30.6549 18.9111C30.578 18.8603 30.534 18.8115 30.51 18.7656C30.4879 18.7235 30.4714 18.663 30.4847 18.5647C30.5862 17.8181 30.9664 17.1193 31.4701 16.4453C31.8257 15.9694 32.2244 15.5281 32.6145 15.0965C32.7821 14.911 32.9481 14.7272 33.1084 14.5434C34.3391 13.1312 35.5772 11.7178 36.9923 10.5322C38.9185 8.91837 40.8865 7.38896 43.0293 5.9893Z" fill="#FFF0E0"/>
<path d="M39.756 2.77634L36.7921 0L23.2607 13.2199C22.636 15.218 21.8065 17.0016 20.2283 18.5931C18.0369 20.803 14.8415 23.4734 11.4481 24.9247L0 36.3636L0.016912 38.5097C4.51714 36.3714 8.87942 33.829 12.8277 30.8579C15.5296 28.8248 18.0639 26.5847 20.2809 24.0429C21.3901 22.7712 22.4243 21.4386 23.4642 20.0988L23.4651 20.0976L23.4656 20.097L23.4669 20.0952C23.7909 19.6778 24.1156 19.2595 24.4431 18.8423C27.4135 15.0583 30.6342 11.4862 33.9168 7.98549C35.7917 5.98603 37.6187 4.26724 39.756 2.77634Z" fill="#FFF0E0"/>
<path d="M12.8503 23.5237C15.5125 22.0585 17.9732 19.9556 19.7721 18.1414C20.9396 16.9641 21.6767 15.6717 22.2347 14.2223L18.8387 17.5401L12.8503 23.5237Z" fill="#FFF0E0"/>
</svg>
